<svg width="601" height="227" viewBox="0 0 601 227" fill="none" xmlns="http://www.w3.org/2000/svg">
<path d="M9 110C8.65 103.05 8.275 96.125 7.875 89.225C7.525 82.275 7.15 75.35 6.75 68.45C6.4 61.5 6.05 54.55 5.7 47.6C11.25 47.4 15.075 46.875 17.175 46.025C19.325 45.125 20.4 43.7 20.4 41.75C20.4 39.95 19.25 38.8 16.95 38.3C14.7 37.8 10.8 37.75 5.25 38.15C5.1 36.85 4.975 35.55 4.875 34.25C4.825 32.9 4.8 31.6 4.8 30.35C8 30.1 10.575 29.725 12.525 29.225C14.475 28.675 15.9 27.975 16.8 27.125C17.7 26.225 18.15 25.15 18.15 23.9C18.15 21.9 16.85 20.625 14.25 20.075C11.65 19.525 8.25 19.45 4.05 19.85C3.9 18.85 3.8 17.875 3.75 16.925C3.75 15.925 3.75 14.95 3.75 14C3.75 10.85 4.5 8.65 6 7.4C7.55 6.15 10.05 5.45 13.5 5.3C20.85 5 28 5 34.95 5.3C41.9 5.55 48.4 6.1 54.45 6.94999C58 7.4 60.575 8.375 62.175 9.875C63.825 11.375 64.65 13.15 64.65 15.2C64.65 18.05 63.725 20.175 61.875 21.575C60.075 22.925 57.95 24.1 55.5 25.1C51.75 26.6 48.25 27.775 45 28.625C41.75 29.425 38.65 30.45 35.7 31.7C34.45 32.2 33.375 32.7 32.475 33.2C31.625 33.7 30.9 34.25 30.3 34.85C29.7 35.5 29.225 36.25 28.875 37.1C28.575 37.95 28.35 39.05 28.2 40.4C28.05 41.65 27.95 42.9 27.9 44.15C27.9 45.35 27.9 46.6 27.9 47.9C27.9 49.6 28.225 50.825 28.875 51.575C29.525 52.275 31 52.55 33.3 52.4C36.6 52.15 39.9 51.775 43.2 51.275C46.5 50.775 49.8 50.45 53.1 50.3C55.25 50.2 56.85 50.7 57.9 51.8C58.95 52.9 59.475 54.15 59.475 55.55C59.475 56.85 59.025 58.125 58.125 59.375C57.225 60.575 55.9 61.3 54.15 61.55C50.25 62 46.5 62.275 42.9 62.375C39.3 62.425 35.7 62.7 32.1 63.2C30 63.4 28.85 64.15 28.65 65.45C28.45 66.7 29.2 67.675 30.9 68.375C33.3 69.375 35.675 70.175 38.025 70.775C40.375 71.375 42.75 72.2 45.15 73.25C46.45 73.8 47.4 74.575 48 75.575C48.6 76.575 48.9 77.625 48.9 78.725C48.9 80.525 48.125 82.1 46.575 83.45C45.075 84.75 43 84.95 40.35 84.05C38.2 83.3 36.175 82.45 34.275 81.5C32.425 80.55 30.45 79.75 28.35 79.1C26.25 78.4 24.65 78.35 23.55 78.95C22.5 79.5 21.9 80.8 21.75 82.85C21.4 87.2 21.225 91.7 21.225 96.35C21.275 101 21.1 105.55 20.7 110C20.6 111.3 20.275 112.35 19.725 113.15C19.175 114 18.475 114.6 17.625 114.95C16.775 115.35 15.85 115.55 14.85 115.55C13.3 115.55 11.95 115.1 10.8 114.2C9.65 113.35 9.05 111.95 9 110ZM34.2 24.5C36 24.5 37.425 23.875 38.475 22.625C39.525 21.375 40.05 19.75 40.05 17.75C40.05 16.15 39.5 14.825 38.4 13.775C37.35 12.725 36.15 12.2 34.8 12.2C32.25 12.2 30.425 12.725 29.325 13.775C28.275 14.775 27.75 16.25 27.75 18.2C27.75 20.05 28.275 21.575 29.325 22.775C30.425 23.925 32.05 24.5 34.2 24.5ZM108.779 111.65C99.7293 111.65 92.1293 109.6 85.9793 105.5C79.8793 101.35 75.2793 95.6 72.1793 88.25C69.0793 80.9 67.5293 72.4 67.5293 62.75C67.5293 50.85 69.4293 40.5 73.2293 31.7C77.0793 22.85 82.4293 16 89.2793 11.15C96.1293 6.25 104.079 3.8 113.129 3.8C119.479 3.8 125.079 4.975 129.929 7.32499C134.779 9.675 138.854 13.125 142.154 17.675C145.504 22.175 148.004 27.65 149.654 34.1C151.354 40.5 152.179 47.8 152.129 56C152.079 68.2 150.204 78.425 146.504 86.675C142.854 94.925 137.779 101.15 131.279 105.35C124.779 109.55 117.279 111.65 108.779 111.65ZM117.179 90.8C121.829 90.8 125.879 89.525 129.329 86.975C132.829 84.425 135.529 80.575 137.429 75.425C139.329 70.225 140.279 63.7 140.279 55.85C140.279 47.45 139.304 40.125 137.354 33.875C135.404 27.625 132.554 22.775 128.804 19.325C125.054 15.875 120.479 14.15 115.079 14.15C110.879 14.15 107.079 15.375 103.679 17.825C100.279 20.275 97.5793 24.025 95.5793 29.075C93.5793 34.075 92.5793 40.4 92.5793 48.05C92.5793 56.6 93.5543 64.075 95.5043 70.475C97.5043 76.875 100.329 81.875 103.979 85.475C107.679 89.025 112.079 90.8 117.179 90.8ZM97.3793 90.95C95.5293 90.95 94.1543 91.45 93.2543 92.45C92.4043 93.4 91.9793 95.15 91.9793 97.7C91.9793 99.2 92.5043 100.4 93.5543 101.3C94.6543 102.2 96.2793 102.65 98.4293 102.65C100.079 102.65 101.354 102.2 102.254 101.3C103.204 100.35 103.679 98.95 103.679 97.1C103.679 94.85 103.179 93.275 102.179 92.375C101.229 91.425 99.6293 90.95 97.3793 90.95ZM84.9293 74.75C82.9293 74.75 81.4043 75.325 80.3543 76.475C79.3043 77.575 78.7793 79 78.7793 80.75C78.7793 83.15 79.3793 84.95 80.5793 86.15C81.8293 87.35 83.3793 87.95 85.2293 87.95C87.3293 87.95 88.9793 87.425 90.1793 86.375C91.3793 85.275 91.9793 83.9 91.9793 82.25C91.9793 79.7 91.3293 77.825 90.0293 76.625C88.7293 75.375 87.0293 74.75 84.9293 74.75ZM81.3293 55.1C79.2293 55.1 77.7293 55.625 76.8293 56.675C75.9293 57.675 75.4793 59.35 75.4793 61.7C75.4793 63.05 75.9543 64.225 76.9043 65.225C77.9043 66.175 79.5293 66.65 81.7793 66.65C83.2793 66.65 84.5293 66.2 85.5293 65.3C86.5293 64.4 87.0293 62.95 87.0293 60.95C87.0293 58.75 86.5293 57.225 85.5293 56.375C84.5293 55.525 83.1293 55.1 81.3293 55.1ZM130.229 15.35C129.279 17.2 128.254 19.075 127.154 20.975C126.054 22.825 124.929 24.7 123.779 26.6C121.779 29.9 120.079 32.05 118.679 33.05C117.329 34 115.929 34.15 114.479 33.5C112.929 32.7 112.229 31.4 112.379 29.6C112.529 27.75 113.579 25 115.529 21.35C116.579 19.4 117.679 17.45 118.829 15.5C120.029 13.55 121.229 11.65 122.429 9.79999C122.979 8.89999 123.804 8.39999 124.904 8.3C126.004 8.14999 127.029 8.3 127.979 8.75C129.129 9.25 130.004 10.075 130.604 11.225C131.204 12.375 131.079 13.75 130.229 15.35ZM107.804 9.94999C107.904 10.15 107.979 10.375 108.029 10.625C108.129 10.825 108.204 11.05 108.254 11.3C108.504 12.25 108.329 13.075 107.729 13.775C107.179 14.425 106.529 14.9 105.779 15.2C104.879 15.5 103.879 15.7 102.779 15.8C101.679 15.85 100.954 15.525 100.604 14.825C100.404 14.425 100.204 14.05 100.004 13.7C99.8543 13.3 99.7043 12.925 99.5543 12.575C99.2543 11.875 99.4793 11.175 100.229 10.475C101.029 9.725 101.879 9.2 102.779 8.9C103.779 8.59999 104.779 8.49999 105.779 8.59999C106.829 8.64999 107.504 9.09999 107.804 9.94999ZM130.379 64.85C132.729 65.55 135.129 66.3 137.579 67.1C140.079 67.9 142.529 68.75 144.929 69.65C146.129 70.1 146.929 70.8 147.329 71.75C147.779 72.7 147.879 73.7 147.629 74.75C147.429 75.85 146.829 76.825 145.829 77.675C144.829 78.475 143.579 78.7 142.079 78.35C139.679 77.75 137.254 77.125 134.804 76.475C132.404 75.775 130.029 75.05 127.679 74.3C122.429 72.65 119.179 71.2 117.929 69.95C116.679 68.65 116.229 67.3 116.579 65.9C116.979 64.3 118.079 63.325 119.879 62.975C121.729 62.575 125.229 63.2 130.379 64.85ZM72.7793 42.95C73.0293 42.85 73.2793 42.775 73.5293 42.725C73.8293 42.625 74.0793 42.55 74.2793 42.5C74.6293 42.4 74.9043 42.375 75.1043 42.425C75.3543 42.475 75.5543 42.6 75.7043 42.8C75.9043 42.95 76.0793 43.15 76.2293 43.4C76.4293 43.75 76.5293 44.075 76.5293 44.375C76.5793 44.625 76.5293 44.875 76.3793 45.125C76.2793 45.325 76.0793 45.5 75.7793 45.65C75.5793 45.7 75.3543 45.8 75.1043 45.95C74.9043 46.05 74.6793 46.15 74.4293 46.25C74.0793 46.4 73.7543 46.325 73.4543 46.025C73.1543 45.725 72.8793 45.35 72.6293 44.9C72.4793 44.45 72.4043 44.025 72.4043 43.625C72.4543 43.225 72.5793 43 72.7793 42.95ZM140.729 37.25C142.229 36.8 143.579 36.775 144.779 37.175C145.979 37.575 146.829 38.65 147.329 40.4C147.879 42.1 147.879 43.45 147.329 44.45C146.779 45.45 145.679 46.25 144.029 46.85C142.979 47.3 141.854 47.75 140.654 48.2C139.454 48.6 137.729 49.1 135.479 49.7C131.229 50.75 128.229 51.2 126.479 51.05C124.729 50.9 123.579 50.05 123.029 48.5C122.429 46.7 122.804 45.175 124.154 43.925C125.504 42.625 128.229 41.3 132.329 39.95C134.079 39.35 135.554 38.85 136.754 38.45C138.004 38 139.329 37.6 140.729 37.25ZM135.929 89.45C136.229 89.8 136.504 90.15 136.754 90.5C137.054 90.8 137.329 91.15 137.579 91.55C138.129 92.2 138.429 93.075 138.479 94.175C138.529 95.225 137.829 96.4 136.379 97.7C134.879 99.1 133.554 99.625 132.404 99.275C131.254 98.925 130.329 98.35 129.629 97.55C129.279 97 128.979 96.575 128.729 96.275C128.529 95.925 128.279 95.55 127.979 95.15C127.329 94.1 127.104 93 127.304 91.85C127.554 90.7 128.279 89.65 129.479 88.7C130.679 87.7 131.879 87.35 133.079 87.65C134.329 87.95 135.279 88.55 135.929 89.45ZM164.818 114.05C163.268 114.05 161.968 113.55 160.918 112.55C159.918 111.55 159.418 110.2 159.418 108.5C159.418 106.85 159.843 104.95 160.693 102.8C162.793 97.3 165.068 91.9 167.518 86.6C169.968 81.25 172.243 75.85 174.343 70.4C175.243 68 175.868 65.625 176.218 63.275C176.568 60.875 176.743 58.5 176.743 56.15C176.743 53.5 176.543 50.9 176.143 48.35C175.743 45.8 175.043 43.55 174.043 41.6C171.943 37.35 169.693 33.325 167.293 29.525C164.893 25.725 162.643 21.65 160.543 17.3C159.843 15.85 159.293 14.5 158.893 13.25C158.493 12 158.293 10.9 158.293 9.94999C158.293 7.94999 158.993 6.4 160.393 5.3C161.793 4.19999 163.318 3.64999 164.968 3.64999C165.968 3.64999 166.943 3.89999 167.893 4.39999C168.843 4.84999 169.743 5.5 170.593 6.34999C171.693 7.45 173.018 9.3 174.568 11.9C176.168 14.45 177.643 16.95 178.993 19.4C179.193 19.75 179.393 20.1 179.593 20.45C179.793 20.75 179.993 21.075 180.193 21.425C180.393 21.725 180.593 22.05 180.793 22.4C181.043 22.85 181.293 23.325 181.543 23.825C181.843 24.325 182.143 24.8 182.443 25.25C182.743 25.85 183.043 26.425 183.343 26.975C183.693 27.525 184.043 28.1 184.393 28.7C184.693 29.2 184.993 29.7 185.293 30.2C185.593 30.65 185.893 31.15 186.193 31.7C186.493 32.15 186.793 32.625 187.093 33.125C187.393 33.625 187.693 34.1 187.993 34.55C188.393 35.15 188.768 35.75 189.118 36.35C189.518 36.9 189.893 37.45 190.243 38C191.893 40.4 193.393 41.95 194.743 42.65C196.093 43.35 197.543 43.7 199.093 43.7C200.543 43.7 201.893 43.325 203.143 42.575C204.393 41.825 205.693 40.3 207.043 38C209.543 33.65 211.843 29.15 213.943 24.5C216.043 19.8 218.293 15.2 220.693 10.7C221.643 8.94999 222.668 7.69999 223.768 6.94999C224.868 6.2 226.018 5.825 227.218 5.825C228.968 5.825 230.393 6.37499 231.493 7.47499C232.593 8.52499 233.143 9.975 233.143 11.825C233.143 13.475 232.693 15.45 231.793 17.75C230.093 22 228.293 26.125 226.393 30.125C224.543 34.075 222.743 38.2 220.993 42.5C220.243 44.3 219.668 46.175 219.268 48.125C218.918 50.075 218.743 51.95 218.743 53.75C218.743 55.55 218.893 57.375 219.193 59.225C219.493 61.075 219.943 62.95 220.543 64.85C222.293 70.05 224.468 75.675 227.068 81.725C229.668 87.725 231.943 93.7 233.893 99.65C234.293 100.85 234.593 102 234.793 103.1C235.043 104.15 235.168 105.2 235.168 106.25C235.168 108.75 234.393 110.725 232.843 112.175C231.343 113.625 229.493 114.35 227.293 114.35C223.693 114.35 220.493 112.15 217.693 107.75C214.643 102.8 211.793 97.8 209.143 92.75C206.543 87.65 203.743 82.75 200.743 78.05C199.843 76.6 198.818 75.55 197.668 74.9C196.568 74.2 195.293 73.85 193.843 73.85C192.293 73.85 190.918 74.25 189.718 75.05C188.518 75.85 187.543 77 186.793 78.5C184.243 83.45 181.868 88.35 179.668 93.2C177.468 98 175.093 102.85 172.543 107.75C171.443 109.75 170.243 111.3 168.943 112.4C167.693 113.5 166.318 114.05 164.818 114.05ZM225.343 40.25C222.493 38.95 219.668 37.6 216.868 36.2C214.068 34.8 211.343 33.35 208.693 31.85C204.793 29.6 202.243 27.725 201.043 26.225C199.893 24.725 199.643 23.2 200.293 21.65C201.043 19.85 202.493 19.075 204.643 19.325C206.843 19.575 209.593 20.45 212.893 21.95C215.843 23.3 218.818 24.725 221.818 26.225C224.818 27.725 227.843 29.3 230.893 30.95C235.093 33.15 237.993 35.1 239.593 36.8C241.243 38.5 241.693 40.25 240.943 42.05C240.193 43.85 238.593 44.525 236.143 44.075C233.693 43.625 230.093 42.35 225.343 40.25ZM210.643 46.4L214.093 39.35C215.593 39.95 216.543 40.675 216.943 41.525C217.393 42.375 217.243 43.6 216.493 45.2C215.693 46.75 214.843 47.5 213.943 47.45C213.093 47.4 211.993 47.05 210.643 46.4ZM194.293 59.675C192.793 59.675 191.543 59.2 190.543 58.25C189.543 57.25 189.043 55.7 189.043 53.6C189.043 52.1 189.493 50.9 190.393 50C191.343 49.1 192.743 48.65 194.593 48.65C196.243 48.65 197.568 49.15 198.568 50.15C199.568 51.15 200.068 52.575 200.068 54.425C200.068 56.025 199.518 57.3 198.418 58.25C197.318 59.2 195.943 59.675 194.293 59.675ZM179.593 100.7C176.743 99.5 173.968 98.25 171.268 96.95C168.618 95.6 165.993 94.275 163.393 92.975C160.343 91.325 158.218 89.775 157.018 88.325C155.818 86.825 155.618 85.225 156.418 83.525C157.218 81.925 158.493 81.175 160.243 81.275C162.043 81.325 164.643 82.05 168.043 83.45C170.843 84.55 173.618 85.725 176.368 86.975C179.118 88.225 181.793 89.5 184.393 90.8C189.043 93.05 192.143 95.05 193.693 96.8C195.293 98.55 195.743 100.3 195.043 102.05C194.243 103.9 192.718 104.675 190.468 104.375C188.268 104.075 184.643 102.85 179.593 100.7ZM216.643 91.1C218.293 91.1 219.593 90.625 220.543 89.675C221.543 88.725 222.043 87.65 222.043 86.45C222.043 84.7 221.593 83.35 220.693 82.4C219.843 81.4 218.743 80.9 217.393 80.9C215.443 80.9 214.018 81.325 213.118 82.175C212.268 82.975 211.843 84.4 211.843 86.45C211.843 87.85 212.243 88.975 213.043 89.825C213.893 90.675 215.093 91.1 216.643 91.1ZM208.693 71.9C210.643 71.9 212.168 71.3 213.268 70.1C214.418 68.9 214.993 67.1 214.993 64.7C214.993 63.05 214.493 61.725 213.493 60.725C212.493 59.675 211.243 59.15 209.743 59.15C207.143 59.15 205.243 59.75 204.043 60.95C202.843 62.1 202.243 63.55 202.243 65.3C202.243 67.4 202.818 69.025 203.968 70.175C205.168 71.325 206.743 71.9 208.693 71.9ZM165.943 108.2C165.743 108.1 165.493 108 165.193 107.9C164.943 107.75 164.693 107.65 164.443 107.6C163.693 107.3 163.243 106.725 163.093 105.875C162.993 105.025 163.243 104 163.843 102.8C164.543 101.5 165.218 100.6 165.868 100.1C166.518 99.6 167.293 99.55 168.193 99.95C168.343 100 168.443 100.05 168.493 100.1C168.593 100.1 168.743 100.15 168.943 100.25C169.843 100.6 170.368 101.225 170.518 102.125C170.668 103.025 170.443 104.2 169.843 105.65C169.243 107 168.618 107.85 167.968 108.2C167.368 108.5 166.693 108.5 165.943 108.2ZM320.411 112.7C312.761 112.7 306.061 110.85 300.311 107.15C294.561 103.4 290.086 97.8 286.886 90.35C283.736 82.9 282.161 73.55 282.161 62.3C282.161 50.4 284.286 40.1 288.536 31.4C292.786 22.65 298.486 15.9 305.636 11.15C312.786 6.35 320.711 3.95 329.411 3.95C333.461 3.95 337.161 4.525 340.511 5.675C343.861 6.775 346.511 8.625 348.461 11.225C350.461 13.775 351.461 17.2 351.461 21.5C351.461 25.9 350.536 29.675 348.686 32.825C346.836 35.975 344.211 37.55 340.811 37.55C340.061 37.55 339.361 37.55 338.711 37.55C338.111 37.5 337.461 37.4 336.761 37.25C338.111 31.2 338.936 26.675 339.236 23.675C339.536 20.675 339.386 18.65 338.786 17.6C338.236 16.55 337.411 15.95 336.311 15.8C335.211 15.65 334.186 16.025 333.236 16.925C332.336 17.825 331.511 19.775 330.761 22.775C330.011 25.725 329.361 30.2 328.811 36.2C327.711 36.05 326.311 35.9 324.611 35.75C322.961 35.6 321.561 35.55 320.411 35.6C320.611 30.75 320.586 27.125 320.336 24.725C320.136 22.325 319.686 20.75 318.986 20C318.286 19.25 317.311 18.9 316.061 18.95C314.961 19 314.036 19.45 313.286 20.3C312.536 21.1 312.011 22.7 311.711 25.1C311.461 27.45 311.461 30.95 311.711 35.6C309.011 36.25 306.436 37.775 303.986 40.175C301.586 42.525 299.611 45.7 298.061 49.7C296.561 53.65 295.811 58.35 295.811 63.8C295.811 71.65 296.961 78.35 299.261 83.9C301.561 89.45 304.611 93.7 308.411 96.65C312.211 99.55 316.361 101 320.861 101C321.361 101 321.836 101 322.286 101C322.786 100.95 323.261 100.9 323.711 100.85C324.211 100.75 324.686 100.675 325.136 100.625C325.636 100.525 326.111 100.425 326.561 100.325C327.261 100.175 327.961 99.975 328.661 99.725C329.411 99.475 330.136 99.225 330.836 98.975C331.236 98.775 331.636 98.6 332.036 98.45C332.436 98.25 332.811 98.05 333.161 97.85C333.461 97.7 333.736 97.525 333.986 97.325C334.286 97.125 334.561 96.95 334.811 96.8C335.111 96.65 335.386 96.5 335.636 96.35C335.836 96.1 336.061 95.925 336.311 95.825C336.561 95.675 336.786 95.5 336.986 95.3C337.236 95.05 337.536 94.775 337.886 94.475C339.686 92.675 341.186 91.35 342.386 90.5C343.636 89.65 344.961 89.225 346.361 89.225C347.661 89.225 348.686 89.7 349.436 90.65C350.236 91.6 350.636 92.75 350.636 94.1C350.636 96.6 349.811 98.975 348.161 101.225C346.511 103.425 344.261 105.4 341.411 107.15C338.561 108.85 335.311 110.2 331.661 111.2C328.061 112.2 324.311 112.7 320.411 112.7ZM311.561 13.25C311.711 13.45 311.886 13.725 312.086 14.075C312.336 14.425 312.561 14.8 312.761 15.2C313.161 16.05 312.911 17.025 312.011 18.125C311.111 19.175 310.011 20.1 308.711 20.9C307.461 21.65 306.436 22.025 305.636 22.025C305.386 22.025 305.136 22.025 304.886 22.025C304.636 21.975 304.411 21.85 304.211 21.65C304.061 21.5 303.836 21.275 303.536 20.975C303.236 20.625 303.011 20.35 302.861 20.15C301.961 18.85 301.686 17.575 302.036 16.325C302.386 15.075 303.161 14.05 304.361 13.25C305.561 12.4 306.861 11.975 308.261 11.975C308.961 11.975 309.586 12.1 310.136 12.35C310.736 12.55 311.211 12.85 311.561 13.25ZM280.886 79.4C283.636 78.15 287.036 76.7 291.086 75.05C295.136 73.4 299.286 71.825 303.536 70.325C305.236 69.675 306.711 69.525 307.961 69.875C309.211 70.225 310.111 70.975 310.661 72.125C311.411 73.425 311.511 74.725 310.961 76.025C310.461 77.275 309.336 78.4 307.586 79.4C303.636 81.5 299.661 83.55 295.661 85.55C291.711 87.55 288.136 89.25 284.936 90.65C282.336 91.85 280.161 92.325 278.411 92.075C276.711 91.775 275.486 90.7 274.736 88.85C274.036 87.05 274.136 85.35 275.036 83.75C275.986 82.15 277.936 80.7 280.886 79.4ZM323.711 73.7C321.611 73.7 319.911 73.025 318.611 71.675C317.311 70.325 316.661 68.3 316.661 65.6C316.661 63.35 317.386 61.5 318.836 60.05C320.286 58.55 322.461 57.8 325.361 57.8C327.611 57.8 329.361 58.475 330.611 59.825C331.911 61.125 332.561 62.9 332.561 65.15C332.561 68.15 331.861 70.325 330.461 71.675C329.111 73.025 326.861 73.7 323.711 73.7ZM339.911 98.6C340.211 98.95 340.486 99.375 340.736 99.875C341.036 100.325 341.261 100.75 341.411 101.15C342.111 102.65 341.786 103.925 340.436 104.975C339.136 106.025 337.761 106.55 336.311 106.55C335.611 106.55 334.961 106.375 334.361 106.025C333.811 105.675 333.361 105.25 333.011 104.75C332.861 104.5 332.711 104.25 332.561 104C332.461 103.7 332.361 103.45 332.261 103.25L339.911 98.6ZM330.611 108.95C331.011 111.65 331.361 114.35 331.661 117.05C331.961 119.8 332.211 122.6 332.411 125.45C332.511 127.6 332.086 129.175 331.136 130.175C330.186 131.225 328.636 131.75 326.486 131.75C324.836 131.75 323.561 131.225 322.661 130.175C321.811 129.125 321.261 127.45 321.011 125.15C320.811 122.75 320.611 120.225 320.411 117.575C320.211 114.925 320.061 112.15 319.961 109.25C319.961 107.75 320.511 106.6 321.611 105.8C322.711 105 323.886 104.6 325.136 104.6C326.436 104.6 327.611 104.95 328.661 105.65C329.711 106.35 330.361 107.45 330.611 108.95ZM358.634 96.05C359.584 92.35 360.784 87.75 362.234 82.25C363.684 76.7 365.259 70.8 366.959 64.55C368.659 58.25 370.334 52.175 371.984 46.325C374.934 47.525 377.634 48.45 380.084 49.1C382.584 49.7 384.584 49.775 386.084 49.325C387.584 48.875 388.334 47.65 388.334 45.65C388.334 44.3 387.359 43 385.409 41.75C383.509 40.5 379.809 39.2 374.309 37.85C374.759 36.1 375.209 34.45 375.659 32.9C376.109 31.3 376.534 29.8 376.934 28.4C380.384 29.85 383.659 31.025 386.759 31.925C389.859 32.825 392.384 33.1 394.334 32.75C396.284 32.4 397.259 31.1 397.259 28.85C397.259 27.2 396.009 25.7 393.509 24.35C391.009 23 386.309 21.55 379.409 20C379.459 19.8 379.484 19.65 379.484 19.55C379.534 19.4 379.584 19.225 379.634 19.025C380.934 14.675 383.309 11.3 386.759 8.9C390.259 6.5 395.034 5.35 401.084 5.45C407.284 5.45 412.134 6.82499 415.634 9.57499C419.134 12.275 421.334 16.6 422.234 22.55C422.334 23.3 422.434 24.1 422.534 24.95C422.684 25.75 422.809 26.6 422.909 27.5C423.009 28.3 423.109 29.125 423.209 29.975C423.359 30.825 423.484 31.7 423.584 32.6C423.684 33.1 423.759 33.6 423.809 34.1C423.909 34.6 423.984 35.1 424.034 35.6C424.134 36.1 424.209 36.625 424.259 37.175C424.409 38.325 424.559 39.5 424.709 40.7C424.859 41.9 425.034 43.125 425.234 44.375C425.334 45.125 425.434 45.9 425.534 46.7C425.684 47.45 425.784 48.25 425.834 49.1C425.934 49.7 426.009 50.325 426.059 50.975C426.159 51.575 426.259 52.2 426.359 52.85C426.459 53.45 426.534 54.075 426.584 54.725C427.184 59.075 427.759 63.5 428.309 68C428.909 72.5 429.484 76.925 430.034 81.275C430.584 85.625 431.084 89.75 431.534 93.65C432.034 97.55 432.484 101.1 432.884 104.3C433.234 107.05 432.809 109.35 431.609 111.2C430.409 113.1 428.684 114.05 426.434 114.05C424.484 114.05 422.809 113.3 421.409 111.8C420.059 110.35 419.234 108.2 418.934 105.35C417.984 96.35 417.134 87 416.384 77.3C415.634 67.55 414.809 57.7 413.909 47.75C413.609 44.3 412.984 41.9 412.034 40.55C411.084 39.2 409.509 38.525 407.309 38.525C405.309 38.525 403.409 39.125 401.609 40.325C399.859 41.525 397.884 44.35 395.684 48.8C391.434 57.4 387.209 66.2 383.009 75.2C378.859 84.2 374.784 92.85 370.784 101.15C369.784 103.2 368.684 104.7 367.484 105.65C366.284 106.55 364.934 107 363.434 107C361.284 107 359.734 105.975 358.784 103.925C357.884 101.875 357.834 99.25 358.634 96.05ZM376.034 83.75L378.884 73.1C385.284 72.85 391.659 72.6 398.009 72.35C404.359 72.1 410.384 71.9 416.084 71.75C418.484 71.65 420.459 72.025 422.009 72.875C423.559 73.675 424.334 75 424.334 76.85C424.334 78.85 423.784 80.3 422.684 81.2C421.634 82.1 420.084 82.6 418.034 82.7C411.034 83 404.109 83.225 397.259 83.375C390.409 83.525 383.334 83.65 376.034 83.75ZM426.584 97.85C425.234 97.85 424.034 97.425 422.984 96.575C421.984 95.725 421.484 94.55 421.484 93.05C421.484 91.55 421.934 90.4 422.834 89.6C423.784 88.8 425.034 88.4 426.584 88.4C426.884 88.4 427.309 88.4 427.859 88.4C428.409 88.4 428.934 88.4 429.434 88.4V97.85C428.984 97.9 428.509 97.925 428.009 97.925C427.509 97.875 427.034 97.85 426.584 97.85ZM368.159 77.525C363.659 76.225 360.184 75.075 357.734 74.075C355.284 73.075 353.584 72.1 352.634 71.15C351.634 70.15 351.134 69.025 351.134 67.775C351.134 65.375 352.109 63.95 354.059 63.5C355.959 63.05 358.459 63.25 361.559 64.1C364.659 64.95 367.909 66.15 371.309 67.7L368.159 77.525ZM372.434 86.3C371.184 85.9 370.109 85.475 369.209 85.025C368.359 84.575 367.709 84.05 367.259 83.45C366.809 82.85 366.584 82.1 366.584 81.2C366.584 79.3 366.934 77.8 367.634 76.7C368.334 75.6 369.334 74.925 370.634 74.675C371.984 74.425 373.634 74.65 375.584 75.35L372.434 86.3ZM419.534 66.05L418.484 55.7C420.284 55.5 421.759 55.5 422.909 55.7C424.059 55.9 424.909 56.45 425.459 57.35C426.009 58.2 426.284 59.55 426.284 61.4C426.284 63.2 425.709 64.35 424.559 64.85C423.409 65.35 421.734 65.75 419.534 66.05ZM424.859 82.25L424.334 71.3C428.534 71.15 431.834 71.1 434.234 71.15C436.684 71.2 438.409 71.65 439.409 72.5C440.459 73.3 440.984 74.825 440.984 77.075C440.984 79.125 439.884 80.5 437.684 81.2C435.534 81.85 431.259 82.2 424.859 82.25ZM449.673 102.5C448.923 95.65 448.248 88.15 447.648 80C447.098 71.8 446.673 63.625 446.373 55.475C446.223 51.475 446.198 47.6 446.298 43.85C446.398 40.1 446.623 36.8 446.973 33.95C451.023 35.15 454.148 35.7 456.348 35.6C458.548 35.45 459.973 34.6 460.623 33.05C461.373 31.25 460.923 29.525 459.273 27.875C457.673 26.175 454.173 24.4 448.773 22.55C449.673 20.35 450.873 18.1 452.373 15.8C453.923 13.5 455.523 11.65 457.173 10.25C460.173 14.35 462.598 16.95 464.448 18.05C466.348 19.1 468.123 19 469.773 17.75C471.373 16.6 471.798 14.675 471.048 11.975C470.298 9.22499 468.873 6.49999 466.773 3.8C468.823 2.9 471.598 2.175 475.098 1.625C478.598 1.07499 481.623 0.799993 484.173 0.799993C491.123 0.799993 497.173 1.54999 502.323 3.04999C507.473 4.49999 511.748 6.65 515.148 9.5C518.548 12.3 521.073 15.7 522.723 19.7C524.423 23.65 525.273 28.15 525.273 33.2C525.273 38.75 524.173 43.625 521.973 47.825C519.773 52.025 516.723 55.325 512.823 57.725C508.923 60.075 504.423 61.25 499.323 61.25C495.023 61.25 491.398 60.5 488.448 59C485.548 57.45 483.348 55.325 481.848 52.625C480.398 49.925 479.673 46.8 479.673 43.25C479.673 38.2 481.173 34.175 484.173 31.175C487.173 28.125 490.923 26.6 495.423 26.6C499.073 26.6 501.948 27.5 504.048 29.3C506.198 31.1 507.273 33.175 507.273 35.525C507.273 36.875 506.923 37.975 506.223 38.825C505.573 39.625 504.573 40.025 503.223 40.025C502.323 40.025 501.623 39.85 501.123 39.5C500.673 39.1 500.248 38.65 499.848 38.15C499.498 37.6 499.023 37.15 498.423 36.8C497.823 36.4 496.923 36.2 495.723 36.2C494.173 36.2 492.998 36.8 492.198 38C491.448 39.2 491.073 40.6 491.073 42.2C491.073 44.8 491.898 46.975 493.548 48.725C495.198 50.475 497.323 51.35 499.923 51.35C504.273 51.35 507.698 49.75 510.198 46.55C512.748 43.3 514.023 39.1 514.023 33.95C514.023 28.15 512.448 23.45 509.298 19.85C506.198 16.25 501.823 14.45 496.173 14.45C491.673 14.45 487.648 15.6 484.098 17.9C480.598 20.15 477.623 23.45 475.173 27.8C472.773 32.15 470.973 37.4 469.773 43.55C468.773 48.95 468.048 53.25 467.598 56.45C467.198 59.6 467.073 62.025 467.223 63.725C467.423 65.425 467.873 66.7 468.573 67.55C469.273 68.4 470.223 69.2 471.423 69.95C472.323 70.45 473.398 71.05 474.648 71.75C475.898 72.4 477.273 73.1 478.773 73.85C479.323 74.05 479.873 74.3 480.423 74.6C481.023 74.9 481.623 75.175 482.223 75.425C482.923 75.725 483.623 76.05 484.323 76.4C485.073 76.75 485.823 77.1 486.573 77.45C487.173 77.7 487.748 77.975 488.298 78.275C488.898 78.525 489.473 78.775 490.023 79.025C490.673 79.325 491.273 79.625 491.823 79.925C492.373 80.225 492.923 80.5 493.473 80.75C493.923 80.95 494.348 81.15 494.748 81.35C495.198 81.55 495.623 81.75 496.023 81.95C496.473 82.15 496.923 82.35 497.373 82.55C503.073 85.3 507.748 87.6 511.398 89.45C515.048 91.3 517.873 92.975 519.873 94.475C521.873 95.925 523.273 97.4 524.073 98.9C524.873 100.35 525.273 102.05 525.273 104C525.273 105.7 524.673 107.225 523.473 108.575C522.273 109.925 520.573 110.6 518.373 110.6C517.423 110.6 516.348 110.425 515.148 110.075C513.998 109.775 512.448 109.125 510.498 108.125C508.598 107.125 506.048 105.65 502.848 103.7C499.648 101.75 495.548 99.15 490.548 95.9C485.598 92.65 479.473 88.6 472.173 83.75C469.473 81.95 467.373 81.3 465.873 81.8C464.423 82.25 463.473 83.65 463.023 86C462.373 89.15 461.898 92.375 461.598 95.675C461.298 98.925 460.923 101.6 460.473 103.7C459.973 105.85 459.348 107.5 458.598 108.65C457.848 109.75 456.673 110.3 455.073 110.3C453.273 110.3 451.998 109.65 451.248 108.35C450.498 107.05 449.973 105.1 449.673 102.5ZM456.423 98.6C455.073 98.6 454.023 98.275 453.273 97.625C452.573 96.925 452.223 95.6 452.223 93.65C452.223 92 452.523 90.875 453.123 90.275C453.773 89.675 454.773 89.45 456.123 89.6L456.423 98.6ZM451.923 74.9C451.023 74.8 450.298 74.5 449.748 74C449.198 73.5 448.923 72.4 448.923 70.7C448.923 68.8 449.198 67.575 449.748 67.025C450.348 66.475 451.423 66.25 452.973 66.35L451.923 74.9ZM506.223 80.3C503.823 80.3 501.923 79.675 500.523 78.425C499.123 77.175 498.423 75.5 498.423 73.4C498.423 70.55 499.048 68.45 500.298 67.1C501.548 65.7 503.373 65 505.773 65C508.423 65 510.423 65.625 511.773 66.875C513.173 68.075 513.873 69.95 513.873 72.5C513.873 74.95 513.223 76.875 511.923 78.275C510.673 79.625 508.773 80.3 506.223 80.3ZM563.607 106.7C562.957 106.7 562.332 106.575 561.732 106.325C561.132 106.075 560.557 105.7 560.007 105.2C559.607 104.8 559.257 104.3 558.957 103.7C558.657 103.1 558.382 102.275 558.132 101.225C557.932 100.125 557.757 98.625 557.607 96.725C557.457 94.825 557.307 92.35 557.157 89.3C557.107 88.05 557.057 86.85 557.007 85.7C556.957 84.55 556.907 83.425 556.857 82.325C556.807 81.375 556.757 80.45 556.707 79.55C556.707 78.6 556.682 77.675 556.632 76.775C556.582 75.475 556.532 74.225 556.482 73.025C556.482 71.825 556.432 70.65 556.332 69.5C556.332 69.05 556.307 68.6 556.257 68.15C556.257 67.7 556.257 67.25 556.257 66.8C556.257 66.3 556.232 65.85 556.182 65.45C556.182 64.95 556.157 64.475 556.107 64.025C556.107 63.525 556.082 63.05 556.032 62.6C556.032 62.1 556.007 61.625 555.957 61.175C555.857 58.675 555.732 56.125 555.582 53.525C555.482 50.875 555.357 48.1 555.207 45.2C555.057 42.15 554.332 39.75 553.032 38C551.782 36.25 550.207 34.875 548.307 33.875C546.407 32.825 544.382 31.9 542.232 31.1C540.132 30.3 538.157 29.35 536.307 28.25C534.457 27.15 532.932 25.65 531.732 23.75C530.582 21.8 530.007 19.2 530.007 15.95C530.007 13.2 530.432 10.95 531.282 9.19999C532.132 7.39999 533.482 6.07499 535.332 5.22499C537.232 4.375 539.757 3.95 542.907 3.95C542.457 9.2 542.607 12.775 543.357 14.675C544.157 16.525 545.307 17.45 546.807 17.45C548.457 17.45 549.707 16.6 550.557 14.9C551.407 13.15 551.857 9.54999 551.907 4.1C553.257 4.1 554.657 4.1 556.107 4.1C557.557 4.1 558.957 4.1 560.307 4.1C560.157 8.54999 560.157 11.975 560.307 14.375C560.507 16.725 560.932 18.35 561.582 19.25C562.232 20.15 563.157 20.6 564.357 20.6C565.407 20.6 566.307 20.175 567.057 19.325C567.857 18.425 568.457 16.8 568.857 14.45C569.257 12.1 569.457 8.69999 569.457 4.24999C576.157 4.24999 581.557 4.32499 585.657 4.475C589.757 4.57499 592.857 4.82499 594.957 5.22499C597.107 5.57499 598.532 6.17499 599.232 7.025C599.982 7.82499 600.357 8.94999 600.357 10.4C600.357 11.95 599.707 13.125 598.407 13.925C597.157 14.675 595.507 15.25 593.457 15.65C591.457 16 589.307 16.35 587.007 16.7C584.757 17 582.582 17.475 580.482 18.125C578.432 18.725 576.707 19.675 575.307 20.975C573.957 22.275 573.207 24.125 573.057 26.525C572.157 39.875 571.457 51.1 570.957 60.2C570.457 69.25 570.032 76.65 569.682 82.4C569.382 88.1 569.107 92.525 568.857 95.675C568.607 98.825 568.307 101.125 567.957 102.575C567.607 103.975 567.157 104.95 566.607 105.5C566.307 105.85 565.857 106.15 565.257 106.4C564.707 106.6 564.157 106.7 563.607 106.7ZM586.107 40.85C583.957 40.85 582.032 40.125 580.332 38.675C578.682 37.225 577.857 35.15 577.857 32.45C577.857 29.65 578.607 27.4 580.107 25.7C581.607 24 583.957 23.15 587.157 23.15C589.657 23.15 591.682 23.975 593.232 25.625C594.782 27.225 595.557 29.15 595.557 31.4C595.557 34.7 594.782 37.1 593.232 38.6C591.732 40.1 589.357 40.85 586.107 40.85ZM566.307 89.75L565.857 78.95C571.807 78.7 576.382 78.6 579.582 78.65C582.782 78.7 584.982 79.075 586.182 79.775C587.432 80.475 588.057 81.65 588.057 83.3C588.057 85.3 587.457 86.725 586.257 87.575C585.107 88.375 582.957 88.9 579.807 89.15C576.707 89.35 572.207 89.55 566.307 89.75ZM560.307 48.95L560.157 60.35C553.707 60.3 548.732 60.175 545.232 59.975C541.732 59.775 539.282 59.25 537.882 58.4C536.532 57.5 535.857 56.05 535.857 54.05C535.857 52 536.632 50.6 538.182 49.85C539.782 49.05 542.382 48.65 545.982 48.65C549.582 48.6 554.357 48.7 560.307 48.95ZM8.464 160.408C9.57333 160.365 11.1093 160.429 13.072 160.6C15.0773 160.771 17.0827 160.984 19.088 161.24C21.136 161.496 22.8 161.773 24.08 162.072C26.3413 162.499 27.8773 163.203 28.688 164.184C29.5413 165.123 29.968 166.424 29.968 168.088C29.968 169.752 29.5627 171.16 28.752 172.312C27.9413 173.421 26.512 174.104 24.464 174.36C22.5013 174.573 20.56 174.744 18.64 174.872C16.7627 175 14.928 175.107 13.136 175.192C11.344 175.235 9.65867 175.256 8.08 175.256C5.43467 175.171 3.49333 174.467 2.256 173.144C1.01867 171.779 0.4 170.008 0.4 167.832C0.4 165.656 1.01867 163.885 2.256 162.52C3.536 161.112 5.60533 160.408 8.464 160.408ZM50.215 208.35L46.615 173.88L38.965 174.96L38.425 165.69L46.525 165.06C46.885 159.3 48.085 154.62 50.125 151.02C52.165 147.36 54.625 144.63 57.505 142.83C60.385 140.97 63.295 139.86 66.235 139.5L69.565 154.89C66.805 155.85 64.495 157.11 62.635 158.67C60.775 160.23 59.275 162.03 58.135 164.07L98.275 160.83L92.515 207.54L83.605 208.35L79.555 169.29L63.535 171.54L59.125 207.54L50.215 208.35ZM87.745 156.24C85.465 156.24 83.485 155.43 81.805 153.81C80.185 152.13 79.375 150.15 79.375 147.87C79.375 145.59 80.185 143.64 81.805 142.02C83.485 140.34 85.465 139.5 87.745 139.5C90.025 139.5 91.975 140.34 93.595 142.02C95.275 143.64 96.115 145.59 96.115 147.87C96.115 150.15 95.275 152.13 93.595 153.81C91.975 155.43 90.025 156.24 87.745 156.24ZM115.454 208.35L110.864 145.53L130.124 142.56L124.364 207.54L115.454 208.35ZM147.271 208.35L142.681 145.53L161.941 142.56L156.181 207.54L147.271 208.35ZM208.68 226.08C206.94 226.08 205.14 225.75 203.28 225.09C201.48 224.49 199.68 223.47 197.88 222.03L200.58 217.44C202.56 218.16 204.51 218.52 206.43 218.52C209.07 218.52 211.38 217.77 213.36 216.27C215.4 214.77 216.69 212.37 217.23 209.07L198.6 163.8L217.86 160.83L223.8 195.39H224.52L236.13 161.1L243.42 163.08L223.89 212.22C222.51 215.76 221.07 218.52 219.57 220.5C218.13 222.54 216.54 223.98 214.8 224.82C213.06 225.66 211.02 226.08 208.68 226.08ZM270.096 209.16C265.836 209.16 262.206 208.65 259.206 207.63C256.266 206.67 253.866 205.44 252.006 203.94C251.526 201.54 251.166 199.23 250.926 197.01C250.746 194.73 250.656 192.54 250.656 190.44C250.656 186.24 251.256 182.34 252.456 178.74C253.716 175.14 255.246 171.96 257.046 169.2C258.906 166.38 260.796 164.07 262.716 162.27C264.636 160.41 266.256 159.15 267.576 158.49C270.276 159.87 272.946 161.55 275.586 163.53C278.226 165.51 280.626 167.82 282.786 170.46C285.006 173.1 286.776 176.07 288.096 179.37C289.416 182.67 290.076 186.36 290.076 190.44C290.076 194.58 289.506 198.03 288.366 200.79C287.226 203.55 285.216 205.62 282.336 207C279.456 208.44 275.376 209.16 270.096 209.16ZM265.236 201.33C267.516 201.33 269.796 201.18 272.076 200.88C274.416 200.52 276.456 200.04 278.196 199.44C278.676 197.52 279.036 195.6 279.276 193.68C279.516 191.76 279.636 189.87 279.636 188.01C279.636 182.31 278.436 177.09 276.036 172.35C272.676 174.09 269.706 176.52 267.126 179.64C264.546 182.7 262.506 186.09 261.006 189.81C259.566 193.47 258.846 197.13 258.846 200.79C260.766 201.15 262.896 201.33 265.236 201.33ZM312.044 209.07C311.684 209.07 311.084 208.98 310.244 208.8C309.404 208.68 308.804 208.53 308.444 208.35C307.064 206.67 305.894 204.42 304.934 201.6C303.974 198.72 303.194 195.57 302.594 192.15C301.994 188.67 301.544 185.13 301.244 181.53C300.944 177.93 300.734 174.51 300.614 171.27C300.494 167.97 300.434 165.12 300.434 162.72L318.434 161.37C317.954 166.17 317.564 170.4 317.264 174.06C316.964 177.72 316.814 181.23 316.814 184.59C316.814 187.29 316.904 190.02 317.084 192.78C317.324 195.48 317.684 198.48 318.164 201.78C320.804 201.18 322.994 200.04 324.734 198.36C326.534 196.62 327.974 194.55 329.054 192.15C330.194 189.69 331.004 187.11 331.484 184.41C331.964 181.71 332.204 179.07 332.204 176.49C332.204 176.01 332.174 175.44 332.114 174.78C332.114 174.06 332.024 172.89 331.844 171.27C331.724 169.59 331.484 167.1 331.124 163.8L350.384 160.83L344.624 207.54L335.714 208.35L333.914 191.25H333.284C330.884 197.61 327.914 202.17 324.374 204.93C320.834 207.69 316.724 209.07 312.044 209.07ZM367.163 208.35L362.573 163.71L381.833 160.74L380.033 175.14H380.663C382.943 170.16 385.643 166.26 388.763 163.44C391.943 160.56 395.363 158.97 399.023 158.67L396.503 177.84C395.543 177.72 394.613 177.63 393.713 177.57C392.873 177.45 392.033 177.39 391.193 177.39C388.613 177.39 386.393 177.96 384.533 179.1C382.733 180.24 381.233 182.28 380.033 185.22C378.893 188.1 377.993 192.15 377.333 197.37L376.073 207.54L367.163 208.35ZM451.54 209.16C447.22 209.16 443.29 208.65 439.75 207.63C436.27 206.61 433.63 205.35 431.83 203.85C431.35 201.45 430.99 199.29 430.75 197.37C430.57 195.39 430.48 193.53 430.48 191.79C430.48 186.45 431.32 181.56 433 177.12C434.68 172.62 436.81 168.78 439.39 165.6C441.97 162.36 444.61 159.99 447.31 158.49L462.88 168.66C455.44 172.68 449.53 177.48 445.15 183.06C440.77 188.64 438.58 194.55 438.58 200.79C441.1 201.15 443.71 201.33 446.41 201.33C449.05 201.33 451.72 201.12 454.42 200.7C457.18 200.22 459.94 199.44 462.7 198.36L465.4 207.09C463.06 207.87 460.72 208.41 458.38 208.71C456.04 209.01 453.76 209.16 451.54 209.16ZM479.527 209.07C479.167 209.07 478.777 209.07 478.357 209.07C477.997 209.07 477.637 209.04 477.277 208.98C475.237 207.6 473.587 205.56 472.327 202.86C471.127 200.1 470.527 197.25 470.527 194.31C470.527 191.85 471.097 189.81 472.237 188.19C473.377 186.57 475.417 185.37 478.357 184.59C481.357 183.75 485.557 183.33 490.957 183.33C492.277 183.33 493.687 183.39 495.187 183.51C496.687 183.57 498.277 183.72 499.957 183.96L499.777 181.98C499.537 179.52 498.367 177.6 496.267 176.22C494.227 174.84 491.797 174.15 488.977 174.15C487.417 174.15 485.767 174.39 484.027 174.87C482.347 175.35 480.667 176.1 478.987 177.12L475.027 164.07C477.007 163.23 479.527 162.51 482.587 161.91C485.707 161.25 488.917 160.92 492.217 160.92C496.597 160.92 500.407 161.55 503.647 162.81C506.947 164.07 509.497 166.05 511.297 168.75C513.157 171.39 514.087 174.9 514.087 179.28C514.087 179.82 514.057 180.45 513.997 181.17C513.997 181.89 513.967 182.4 513.907 182.7L511.387 207.54L502.477 208.35L501.127 195.3H500.407C498.427 199.5 495.637 202.86 492.037 205.38C488.497 207.84 484.327 209.07 479.527 209.07ZM486.277 198.99C487.597 198.75 489.157 198.33 490.957 197.73C492.817 197.07 494.587 195.99 496.267 194.49C498.007 192.93 499.357 190.68 500.317 187.74C499.537 187.74 498.757 187.74 497.977 187.74C497.197 187.68 496.387 187.65 495.547 187.65C493.687 187.65 492.007 187.68 490.507 187.74C489.007 187.8 487.447 187.98 485.827 188.28C485.587 188.82 485.317 189.48 485.017 190.26C484.717 191.04 484.567 192.03 484.567 193.23C484.567 194.25 484.747 195.36 485.107 196.56C485.467 197.7 485.857 198.51 486.277 198.99ZM530.024 208.35L525.434 163.71L544.694 160.74L542.894 175.14H543.524C545.804 170.16 548.504 166.26 551.624 163.44C554.804 160.56 558.224 158.97 561.884 158.67L559.364 177.84C558.404 177.72 557.474 177.63 556.574 177.57C555.734 177.45 554.894 177.39 554.054 177.39C551.474 177.39 549.254 177.96 547.394 179.1C545.594 180.24 544.094 182.28 542.894 185.22C541.754 188.1 540.854 192.15 540.194 197.37L538.934 207.54L530.024 208.35ZM575.449 208.35L571.579 171.99L563.299 173.16L562.759 163.89L570.679 163.53L569.329 150.93L591.739 147.96L589.939 162.54L598.849 162.09L598.579 168.12L589.039 169.47L584.359 207.54L575.449 208.35Z" fill="white"/>
</svg>
