<svg width="1202" height="132" viewBox="0 0 1202 132" fill="none" xmlns="http://www.w3.org/2000/svg">
<rect width="1202" height="132" fill="#1E1E1E"/>
<path d="M6 110C5.65 103.05 5.275 96.125 4.875 89.225C4.525 82.275 4.15 75.35 3.75 68.45C3.4 61.5 3.05 54.55 2.7 47.6C8.25 47.4 12.075 46.875 14.175 46.025C16.325 45.125 17.4 43.7 17.4 41.75C17.4 39.95 16.25 38.8 13.95 38.3C11.7 37.8 7.8 37.75 2.25 38.15C2.1 36.85 1.975 35.55 1.875 34.25C1.825 32.9 1.8 31.6 1.8 30.35C5 30.1 7.575 29.725 9.525 29.225C11.475 28.675 12.9 27.975 13.8 27.125C14.7 26.225 15.15 25.15 15.15 23.9C15.15 21.9 13.85 20.625 11.25 20.075C8.65 19.525 5.25 19.45 1.05 19.85C0.900001 18.85 0.800001 17.875 0.750001 16.925C0.750001 15.925 0.750001 14.95 0.750001 14C0.750001 10.85 1.5 8.65 3 7.4C4.55 6.15 7.05 5.45 10.5 5.3C17.85 5 25 5 31.95 5.3C38.9 5.55 45.4 6.1 51.45 6.94999C55 7.4 57.575 8.375 59.175 9.875C60.825 11.375 61.65 13.15 61.65 15.2C61.65 18.05 60.725 20.175 58.875 21.575C57.075 22.925 54.95 24.1 52.5 25.1C48.75 26.6 45.25 27.775 42 28.625C38.75 29.425 35.65 30.45 32.7 31.7C31.45 32.2 30.375 32.7 29.475 33.2C28.625 33.7 27.9 34.25 27.3 34.85C26.7 35.5 26.225 36.25 25.875 37.1C25.575 37.95 25.35 39.05 25.2 40.4C25.05 41.65 24.95 42.9 24.9 44.15C24.9 45.35 24.9 46.6 24.9 47.9C24.9 49.6 25.225 50.825 25.875 51.575C26.525 52.275 28 52.55 30.3 52.4C33.6 52.15 36.9 51.775 40.2 51.275C43.5 50.775 46.8 50.45 50.1 50.3C52.25 50.2 53.85 50.7 54.9 51.8C55.95 52.9 56.475 54.15 56.475 55.55C56.475 56.85 56.025 58.125 55.125 59.375C54.225 60.575 52.9 61.3 51.15 61.55C47.25 62 43.5 62.275 39.9 62.375C36.3 62.425 32.7 62.7 29.1 63.2C27 63.4 25.85 64.15 25.65 65.45C25.45 66.7 26.2 67.675 27.9 68.375C30.3 69.375 32.675 70.175 35.025 70.775C37.375 71.375 39.75 72.2 42.15 73.25C43.45 73.8 44.4 74.575 45 75.575C45.6 76.575 45.9 77.625 45.9 78.725C45.9 80.525 45.125 82.1 43.575 83.45C42.075 84.75 40 84.95 37.35 84.05C35.2 83.3 33.175 82.45 31.275 81.5C29.425 80.55 27.45 79.75 25.35 79.1C23.25 78.4 21.65 78.35 20.55 78.95C19.5 79.5 18.9 80.8 18.75 82.85C18.4 87.2 18.225 91.7 18.225 96.35C18.275 101 18.1 105.55 17.7 110C17.6 111.3 17.275 112.35 16.725 113.15C16.175 114 15.475 114.6 14.625 114.95C13.775 115.35 12.85 115.55 11.85 115.55C10.3 115.55 8.95 115.1 7.8 114.2C6.65 113.35 6.05 111.95 6 110ZM31.2 24.5C33 24.5 34.425 23.875 35.475 22.625C36.525 21.375 37.05 19.75 37.05 17.75C37.05 16.15 36.5 14.825 35.4 13.775C34.35 12.725 33.15 12.2 31.8 12.2C29.25 12.2 27.425 12.725 26.325 13.775C25.275 14.775 24.75 16.25 24.75 18.2C24.75 20.05 25.275 21.575 26.325 22.775C27.425 23.925 29.05 24.5 31.2 24.5ZM105.779 111.65C96.7293 111.65 89.1293 109.6 82.9793 105.5C76.8793 101.35 72.2793 95.6 69.1793 88.25C66.0793 80.9 64.5293 72.4 64.5293 62.75C64.5293 50.85 66.4293 40.5 70.2293 31.7C74.0793 22.85 79.4293 16 86.2793 11.15C93.1293 6.25 101.079 3.8 110.129 3.8C116.479 3.8 122.079 4.975 126.929 7.32499C131.779 9.675 135.854 13.125 139.154 17.675C142.504 22.175 145.004 27.65 146.654 34.1C148.354 40.5 149.179 47.8 149.129 56C149.079 68.2 147.204 78.425 143.504 86.675C139.854 94.925 134.779 101.15 128.279 105.35C121.779 109.55 114.279 111.65 105.779 111.65ZM114.179 90.8C118.829 90.8 122.879 89.525 126.329 86.975C129.829 84.425 132.529 80.575 134.429 75.425C136.329 70.225 137.279 63.7 137.279 55.85C137.279 47.45 136.304 40.125 134.354 33.875C132.404 27.625 129.554 22.775 125.804 19.325C122.054 15.875 117.479 14.15 112.079 14.15C107.879 14.15 104.079 15.375 100.679 17.825C97.2793 20.275 94.5793 24.025 92.5793 29.075C90.5793 34.075 89.5793 40.4 89.5793 48.05C89.5793 56.6 90.5543 64.075 92.5043 70.475C94.5043 76.875 97.3293 81.875 100.979 85.475C104.679 89.025 109.079 90.8 114.179 90.8ZM94.3793 90.95C92.5293 90.95 91.1543 91.45 90.2543 92.45C89.4043 93.4 88.9793 95.15 88.9793 97.7C88.9793 99.2 89.5043 100.4 90.5543 101.3C91.6543 102.2 93.2793 102.65 95.4293 102.65C97.0793 102.65 98.3543 102.2 99.2543 101.3C100.204 100.35 100.679 98.95 100.679 97.1C100.679 94.85 100.179 93.275 99.1793 92.375C98.2293 91.425 96.6293 90.95 94.3793 90.95ZM81.9293 74.75C79.9293 74.75 78.4043 75.325 77.3543 76.475C76.3043 77.575 75.7793 79 75.7793 80.75C75.7793 83.15 76.3793 84.95 77.5793 86.15C78.8293 87.35 80.3793 87.95 82.2293 87.95C84.3293 87.95 85.9793 87.425 87.1793 86.375C88.3793 85.275 88.9793 83.9 88.9793 82.25C88.9793 79.7 88.3293 77.825 87.0293 76.625C85.7293 75.375 84.0293 74.75 81.9293 74.75ZM78.3293 55.1C76.2293 55.1 74.7293 55.625 73.8293 56.675C72.9293 57.675 72.4793 59.35 72.4793 61.7C72.4793 63.05 72.9543 64.225 73.9043 65.225C74.9043 66.175 76.5293 66.65 78.7793 66.65C80.2793 66.65 81.5293 66.2 82.5293 65.3C83.5293 64.4 84.0293 62.95 84.0293 60.95C84.0293 58.75 83.5293 57.225 82.5293 56.375C81.5293 55.525 80.1293 55.1 78.3293 55.1ZM127.229 15.35C126.279 17.2 125.254 19.075 124.154 20.975C123.054 22.825 121.929 24.7 120.779 26.6C118.779 29.9 117.079 32.05 115.679 33.05C114.329 34 112.929 34.15 111.479 33.5C109.929 32.7 109.229 31.4 109.379 29.6C109.529 27.75 110.579 25 112.529 21.35C113.579 19.4 114.679 17.45 115.829 15.5C117.029 13.55 118.229 11.65 119.429 9.79999C119.979 8.89999 120.804 8.39999 121.904 8.3C123.004 8.14999 124.029 8.3 124.979 8.75C126.129 9.25 127.004 10.075 127.604 11.225C128.204 12.375 128.079 13.75 127.229 15.35ZM104.804 9.94999C104.904 10.15 104.979 10.375 105.029 10.625C105.129 10.825 105.204 11.05 105.254 11.3C105.504 12.25 105.329 13.075 104.729 13.775C104.179 14.425 103.529 14.9 102.779 15.2C101.879 15.5 100.879 15.7 99.7793 15.8C98.6793 15.85 97.9543 15.525 97.6043 14.825C97.4043 14.425 97.2043 14.05 97.0043 13.7C96.8543 13.3 96.7043 12.925 96.5543 12.575C96.2543 11.875 96.4793 11.175 97.2293 10.475C98.0293 9.725 98.8793 9.2 99.7793 8.9C100.779 8.59999 101.779 8.49999 102.779 8.59999C103.829 8.64999 104.504 9.09999 104.804 9.94999ZM127.379 64.85C129.729 65.55 132.129 66.3 134.579 67.1C137.079 67.9 139.529 68.75 141.929 69.65C143.129 70.1 143.929 70.8 144.329 71.75C144.779 72.7 144.879 73.7 144.629 74.75C144.429 75.85 143.829 76.825 142.829 77.675C141.829 78.475 140.579 78.7 139.079 78.35C136.679 77.75 134.254 77.125 131.804 76.475C129.404 75.775 127.029 75.05 124.679 74.3C119.429 72.65 116.179 71.2 114.929 69.95C113.679 68.65 113.229 67.3 113.579 65.9C113.979 64.3 115.079 63.325 116.879 62.975C118.729 62.575 122.229 63.2 127.379 64.85ZM69.7793 42.95C70.0293 42.85 70.2793 42.775 70.5293 42.725C70.8293 42.625 71.0793 42.55 71.2793 42.5C71.6293 42.4 71.9043 42.375 72.1043 42.425C72.3543 42.475 72.5543 42.6 72.7043 42.8C72.9043 42.95 73.0793 43.15 73.2293 43.4C73.4293 43.75 73.5293 44.075 73.5293 44.375C73.5793 44.625 73.5293 44.875 73.3793 45.125C73.2793 45.325 73.0793 45.5 72.7793 45.65C72.5793 45.7 72.3543 45.8 72.1043 45.95C71.9043 46.05 71.6793 46.15 71.4293 46.25C71.0793 46.4 70.7543 46.325 70.4543 46.025C70.1543 45.725 69.8793 45.35 69.6293 44.9C69.4793 44.45 69.4043 44.025 69.4043 43.625C69.4543 43.225 69.5793 43 69.7793 42.95ZM137.729 37.25C139.229 36.8 140.579 36.775 141.779 37.175C142.979 37.575 143.829 38.65 144.329 40.4C144.879 42.1 144.879 43.45 144.329 44.45C143.779 45.45 142.679 46.25 141.029 46.85C139.979 47.3 138.854 47.75 137.654 48.2C136.454 48.6 134.729 49.1 132.479 49.7C128.229 50.75 125.229 51.2 123.479 51.05C121.729 50.9 120.579 50.05 120.029 48.5C119.429 46.7 119.804 45.175 121.154 43.925C122.504 42.625 125.229 41.3 129.329 39.95C131.079 39.35 132.554 38.85 133.754 38.45C135.004 38 136.329 37.6 137.729 37.25ZM132.929 89.45C133.229 89.8 133.504 90.15 133.754 90.5C134.054 90.8 134.329 91.15 134.579 91.55C135.129 92.2 135.429 93.075 135.479 94.175C135.529 95.225 134.829 96.4 133.379 97.7C131.879 99.1 130.554 99.625 129.404 99.275C128.254 98.925 127.329 98.35 126.629 97.55C126.279 97 125.979 96.575 125.729 96.275C125.529 95.925 125.279 95.55 124.979 95.15C124.329 94.1 124.104 93 124.304 91.85C124.554 90.7 125.279 89.65 126.479 88.7C127.679 87.7 128.879 87.35 130.079 87.65C131.329 87.95 132.279 88.55 132.929 89.45ZM161.818 114.05C160.268 114.05 158.968 113.55 157.918 112.55C156.918 111.55 156.418 110.2 156.418 108.5C156.418 106.85 156.843 104.95 157.693 102.8C159.793 97.3 162.068 91.9 164.518 86.6C166.968 81.25 169.243 75.85 171.343 70.4C172.243 68 172.868 65.625 173.218 63.275C173.568 60.875 173.743 58.5 173.743 56.15C173.743 53.5 173.543 50.9 173.143 48.35C172.743 45.8 172.043 43.55 171.043 41.6C168.943 37.35 166.693 33.325 164.293 29.525C161.893 25.725 159.643 21.65 157.543 17.3C156.843 15.85 156.293 14.5 155.893 13.25C155.493 12 155.293 10.9 155.293 9.94999C155.293 7.94999 155.993 6.4 157.393 5.3C158.793 4.19999 160.318 3.64999 161.968 3.64999C162.968 3.64999 163.943 3.89999 164.893 4.39999C165.843 4.84999 166.743 5.5 167.593 6.34999C168.693 7.45 170.018 9.3 171.568 11.9C173.168 14.45 174.643 16.95 175.993 19.4C176.193 19.75 176.393 20.1 176.593 20.45C176.793 20.75 176.993 21.075 177.193 21.425C177.393 21.725 177.593 22.05 177.793 22.4C178.043 22.85 178.293 23.325 178.543 23.825C178.843 24.325 179.143 24.8 179.443 25.25C179.743 25.85 180.043 26.425 180.343 26.975C180.693 27.525 181.043 28.1 181.393 28.7C181.693 29.2 181.993 29.7 182.293 30.2C182.593 30.65 182.893 31.15 183.193 31.7C183.493 32.15 183.793 32.625 184.093 33.125C184.393 33.625 184.693 34.1 184.993 34.55C185.393 35.15 185.768 35.75 186.118 36.35C186.518 36.9 186.893 37.45 187.243 38C188.893 40.4 190.393 41.95 191.743 42.65C193.093 43.35 194.543 43.7 196.093 43.7C197.543 43.7 198.893 43.325 200.143 42.575C201.393 41.825 202.693 40.3 204.043 38C206.543 33.65 208.843 29.15 210.943 24.5C213.043 19.8 215.293 15.2 217.693 10.7C218.643 8.94999 219.668 7.69999 220.768 6.94999C221.868 6.2 223.018 5.825 224.218 5.825C225.968 5.825 227.393 6.37499 228.493 7.47499C229.593 8.52499 230.143 9.975 230.143 11.825C230.143 13.475 229.693 15.45 228.793 17.75C227.093 22 225.293 26.125 223.393 30.125C221.543 34.075 219.743 38.2 217.993 42.5C217.243 44.3 216.668 46.175 216.268 48.125C215.918 50.075 215.743 51.95 215.743 53.75C215.743 55.55 215.893 57.375 216.193 59.225C216.493 61.075 216.943 62.95 217.543 64.85C219.293 70.05 221.468 75.675 224.068 81.725C226.668 87.725 228.943 93.7 230.893 99.65C231.293 100.85 231.593 102 231.793 103.1C232.043 104.15 232.168 105.2 232.168 106.25C232.168 108.75 231.393 110.725 229.843 112.175C228.343 113.625 226.493 114.35 224.293 114.35C220.693 114.35 217.493 112.15 214.693 107.75C211.643 102.8 208.793 97.8 206.143 92.75C203.543 87.65 200.743 82.75 197.743 78.05C196.843 76.6 195.818 75.55 194.668 74.9C193.568 74.2 192.293 73.85 190.843 73.85C189.293 73.85 187.918 74.25 186.718 75.05C185.518 75.85 184.543 77 183.793 78.5C181.243 83.45 178.868 88.35 176.668 93.2C174.468 98 172.093 102.85 169.543 107.75C168.443 109.75 167.243 111.3 165.943 112.4C164.693 113.5 163.318 114.05 161.818 114.05ZM222.343 40.25C219.493 38.95 216.668 37.6 213.868 36.2C211.068 34.8 208.343 33.35 205.693 31.85C201.793 29.6 199.243 27.725 198.043 26.225C196.893 24.725 196.643 23.2 197.293 21.65C198.043 19.85 199.493 19.075 201.643 19.325C203.843 19.575 206.593 20.45 209.893 21.95C212.843 23.3 215.818 24.725 218.818 26.225C221.818 27.725 224.843 29.3 227.893 30.95C232.093 33.15 234.993 35.1 236.593 36.8C238.243 38.5 238.693 40.25 237.943 42.05C237.193 43.85 235.593 44.525 233.143 44.075C230.693 43.625 227.093 42.35 222.343 40.25ZM207.643 46.4L211.093 39.35C212.593 39.95 213.543 40.675 213.943 41.525C214.393 42.375 214.243 43.6 213.493 45.2C212.693 46.75 211.843 47.5 210.943 47.45C210.093 47.4 208.993 47.05 207.643 46.4ZM191.293 59.675C189.793 59.675 188.543 59.2 187.543 58.25C186.543 57.25 186.043 55.7 186.043 53.6C186.043 52.1 186.493 50.9 187.393 50C188.343 49.1 189.743 48.65 191.593 48.65C193.243 48.65 194.568 49.15 195.568 50.15C196.568 51.15 197.068 52.575 197.068 54.425C197.068 56.025 196.518 57.3 195.418 58.25C194.318 59.2 192.943 59.675 191.293 59.675ZM176.593 100.7C173.743 99.5 170.968 98.25 168.268 96.95C165.618 95.6 162.993 94.275 160.393 92.975C157.343 91.325 155.218 89.775 154.018 88.325C152.818 86.825 152.618 85.225 153.418 83.525C154.218 81.925 155.493 81.175 157.243 81.275C159.043 81.325 161.643 82.05 165.043 83.45C167.843 84.55 170.618 85.725 173.368 86.975C176.118 88.225 178.793 89.5 181.393 90.8C186.043 93.05 189.143 95.05 190.693 96.8C192.293 98.55 192.743 100.3 192.043 102.05C191.243 103.9 189.718 104.675 187.468 104.375C185.268 104.075 181.643 102.85 176.593 100.7ZM213.643 91.1C215.293 91.1 216.593 90.625 217.543 89.675C218.543 88.725 219.043 87.65 219.043 86.45C219.043 84.7 218.593 83.35 217.693 82.4C216.843 81.4 215.743 80.9 214.393 80.9C212.443 80.9 211.018 81.325 210.118 82.175C209.268 82.975 208.843 84.4 208.843 86.45C208.843 87.85 209.243 88.975 210.043 89.825C210.893 90.675 212.093 91.1 213.643 91.1ZM205.693 71.9C207.643 71.9 209.168 71.3 210.268 70.1C211.418 68.9 211.993 67.1 211.993 64.7C211.993 63.05 211.493 61.725 210.493 60.725C209.493 59.675 208.243 59.15 206.743 59.15C204.143 59.15 202.243 59.75 201.043 60.95C199.843 62.1 199.243 63.55 199.243 65.3C199.243 67.4 199.818 69.025 200.968 70.175C202.168 71.325 203.743 71.9 205.693 71.9ZM162.943 108.2C162.743 108.1 162.493 108 162.193 107.9C161.943 107.75 161.693 107.65 161.443 107.6C160.693 107.3 160.243 106.725 160.093 105.875C159.993 105.025 160.243 104 160.843 102.8C161.543 101.5 162.218 100.6 162.868 100.1C163.518 99.6 164.293 99.55 165.193 99.95C165.343 100 165.443 100.05 165.493 100.1C165.593 100.1 165.743 100.15 165.943 100.25C166.843 100.6 167.368 101.225 167.518 102.125C167.668 103.025 167.443 104.2 166.843 105.65C166.243 107 165.618 107.85 164.968 108.2C164.368 108.5 163.693 108.5 162.943 108.2ZM317.411 112.7C309.761 112.7 303.061 110.85 297.311 107.15C291.561 103.4 287.086 97.8 283.886 90.35C280.736 82.9 279.161 73.55 279.161 62.3C279.161 50.4 281.286 40.1 285.536 31.4C289.786 22.65 295.486 15.9 302.636 11.15C309.786 6.35 317.711 3.95 326.411 3.95C330.461 3.95 334.161 4.525 337.511 5.675C340.861 6.775 343.511 8.625 345.461 11.225C347.461 13.775 348.461 17.2 348.461 21.5C348.461 25.9 347.536 29.675 345.686 32.825C343.836 35.975 341.211 37.55 337.811 37.55C337.061 37.55 336.361 37.55 335.711 37.55C335.111 37.5 334.461 37.4 333.761 37.25C335.111 31.2 335.936 26.675 336.236 23.675C336.536 20.675 336.386 18.65 335.786 17.6C335.236 16.55 334.411 15.95 333.311 15.8C332.211 15.65 331.186 16.025 330.236 16.925C329.336 17.825 328.511 19.775 327.761 22.775C327.011 25.725 326.361 30.2 325.811 36.2C324.711 36.05 323.311 35.9 321.611 35.75C319.961 35.6 318.561 35.55 317.411 35.6C317.611 30.75 317.586 27.125 317.336 24.725C317.136 22.325 316.686 20.75 315.986 20C315.286 19.25 314.311 18.9 313.061 18.95C311.961 19 311.036 19.45 310.286 20.3C309.536 21.1 309.011 22.7 308.711 25.1C308.461 27.45 308.461 30.95 308.711 35.6C306.011 36.25 303.436 37.775 300.986 40.175C298.586 42.525 296.611 45.7 295.061 49.7C293.561 53.65 292.811 58.35 292.811 63.8C292.811 71.65 293.961 78.35 296.261 83.9C298.561 89.45 301.611 93.7 305.411 96.65C309.211 99.55 313.361 101 317.861 101C318.361 101 318.836 101 319.286 101C319.786 100.95 320.261 100.9 320.711 100.85C321.211 100.75 321.686 100.675 322.136 100.625C322.636 100.525 323.111 100.425 323.561 100.325C324.261 100.175 324.961 99.975 325.661 99.725C326.411 99.475 327.136 99.225 327.836 98.975C328.236 98.775 328.636 98.6 329.036 98.45C329.436 98.25 329.811 98.05 330.161 97.85C330.461 97.7 330.736 97.525 330.986 97.325C331.286 97.125 331.561 96.95 331.811 96.8C332.111 96.65 332.386 96.5 332.636 96.35C332.836 96.1 333.061 95.925 333.311 95.825C333.561 95.675 333.786 95.5 333.986 95.3C334.236 95.05 334.536 94.775 334.886 94.475C336.686 92.675 338.186 91.35 339.386 90.5C340.636 89.65 341.961 89.225 343.361 89.225C344.661 89.225 345.686 89.7 346.436 90.65C347.236 91.6 347.636 92.75 347.636 94.1C347.636 96.6 346.811 98.975 345.161 101.225C343.511 103.425 341.261 105.4 338.411 107.15C335.561 108.85 332.311 110.2 328.661 111.2C325.061 112.2 321.311 112.7 317.411 112.7ZM308.561 13.25C308.711 13.45 308.886 13.725 309.086 14.075C309.336 14.425 309.561 14.8 309.761 15.2C310.161 16.05 309.911 17.025 309.011 18.125C308.111 19.175 307.011 20.1 305.711 20.9C304.461 21.65 303.436 22.025 302.636 22.025C302.386 22.025 302.136 22.025 301.886 22.025C301.636 21.975 301.411 21.85 301.211 21.65C301.061 21.5 300.836 21.275 300.536 20.975C300.236 20.625 300.011 20.35 299.861 20.15C298.961 18.85 298.686 17.575 299.036 16.325C299.386 15.075 300.161 14.05 301.361 13.25C302.561 12.4 303.861 11.975 305.261 11.975C305.961 11.975 306.586 12.1 307.136 12.35C307.736 12.55 308.211 12.85 308.561 13.25ZM277.886 79.4C280.636 78.15 284.036 76.7 288.086 75.05C292.136 73.4 296.286 71.825 300.536 70.325C302.236 69.675 303.711 69.525 304.961 69.875C306.211 70.225 307.111 70.975 307.661 72.125C308.411 73.425 308.511 74.725 307.961 76.025C307.461 77.275 306.336 78.4 304.586 79.4C300.636 81.5 296.661 83.55 292.661 85.55C288.711 87.55 285.136 89.25 281.936 90.65C279.336 91.85 277.161 92.325 275.411 92.075C273.711 91.775 272.486 90.7 271.736 88.85C271.036 87.05 271.136 85.35 272.036 83.75C272.986 82.15 274.936 80.7 277.886 79.4ZM320.711 73.7C318.611 73.7 316.911 73.025 315.611 71.675C314.311 70.325 313.661 68.3 313.661 65.6C313.661 63.35 314.386 61.5 315.836 60.05C317.286 58.55 319.461 57.8 322.361 57.8C324.611 57.8 326.361 58.475 327.611 59.825C328.911 61.125 329.561 62.9 329.561 65.15C329.561 68.15 328.861 70.325 327.461 71.675C326.111 73.025 323.861 73.7 320.711 73.7ZM336.911 98.6C337.211 98.95 337.486 99.375 337.736 99.875C338.036 100.325 338.261 100.75 338.411 101.15C339.111 102.65 338.786 103.925 337.436 104.975C336.136 106.025 334.761 106.55 333.311 106.55C332.611 106.55 331.961 106.375 331.361 106.025C330.811 105.675 330.361 105.25 330.011 104.75C329.861 104.5 329.711 104.25 329.561 104C329.461 103.7 329.361 103.45 329.261 103.25L336.911 98.6ZM327.611 108.95C328.011 111.65 328.361 114.35 328.661 117.05C328.961 119.8 329.211 122.6 329.411 125.45C329.511 127.6 329.086 129.175 328.136 130.175C327.186 131.225 325.636 131.75 323.486 131.75C321.836 131.75 320.561 131.225 319.661 130.175C318.811 129.125 318.261 127.45 318.011 125.15C317.811 122.75 317.611 120.225 317.411 117.575C317.211 114.925 317.061 112.15 316.961 109.25C316.961 107.75 317.511 106.6 318.611 105.8C319.711 105 320.886 104.6 322.136 104.6C323.436 104.6 324.611 104.95 325.661 105.65C326.711 106.35 327.361 107.45 327.611 108.95ZM355.634 96.05C356.584 92.35 357.784 87.75 359.234 82.25C360.684 76.7 362.259 70.8 363.959 64.55C365.659 58.25 367.334 52.175 368.984 46.325C371.934 47.525 374.634 48.45 377.084 49.1C379.584 49.7 381.584 49.775 383.084 49.325C384.584 48.875 385.334 47.65 385.334 45.65C385.334 44.3 384.359 43 382.409 41.75C380.509 40.5 376.809 39.2 371.309 37.85C371.759 36.1 372.209 34.45 372.659 32.9C373.109 31.3 373.534 29.8 373.934 28.4C377.384 29.85 380.659 31.025 383.759 31.925C386.859 32.825 389.384 33.1 391.334 32.75C393.284 32.4 394.259 31.1 394.259 28.85C394.259 27.2 393.009 25.7 390.509 24.35C388.009 23 383.309 21.55 376.409 20C376.459 19.8 376.484 19.65 376.484 19.55C376.534 19.4 376.584 19.225 376.634 19.025C377.934 14.675 380.309 11.3 383.759 8.9C387.259 6.5 392.034 5.35 398.084 5.45C404.284 5.45 409.134 6.82499 412.634 9.57499C416.134 12.275 418.334 16.6 419.234 22.55C419.334 23.3 419.434 24.1 419.534 24.95C419.684 25.75 419.809 26.6 419.909 27.5C420.009 28.3 420.109 29.125 420.209 29.975C420.359 30.825 420.484 31.7 420.584 32.6C420.684 33.1 420.759 33.6 420.809 34.1C420.909 34.6 420.984 35.1 421.034 35.6C421.134 36.1 421.209 36.625 421.259 37.175C421.409 38.325 421.559 39.5 421.709 40.7C421.859 41.9 422.034 43.125 422.234 44.375C422.334 45.125 422.434 45.9 422.534 46.7C422.684 47.45 422.784 48.25 422.834 49.1C422.934 49.7 423.009 50.325 423.059 50.975C423.159 51.575 423.259 52.2 423.359 52.85C423.459 53.45 423.534 54.075 423.584 54.725C424.184 59.075 424.759 63.5 425.309 68C425.909 72.5 426.484 76.925 427.034 81.275C427.584 85.625 428.084 89.75 428.534 93.65C429.034 97.55 429.484 101.1 429.884 104.3C430.234 107.05 429.809 109.35 428.609 111.2C427.409 113.1 425.684 114.05 423.434 114.05C421.484 114.05 419.809 113.3 418.409 111.8C417.059 110.35 416.234 108.2 415.934 105.35C414.984 96.35 414.134 87 413.384 77.3C412.634 67.55 411.809 57.7 410.909 47.75C410.609 44.3 409.984 41.9 409.034 40.55C408.084 39.2 406.509 38.525 404.309 38.525C402.309 38.525 400.409 39.125 398.609 40.325C396.859 41.525 394.884 44.35 392.684 48.8C388.434 57.4 384.209 66.2 380.009 75.2C375.859 84.2 371.784 92.85 367.784 101.15C366.784 103.2 365.684 104.7 364.484 105.65C363.284 106.55 361.934 107 360.434 107C358.284 107 356.734 105.975 355.784 103.925C354.884 101.875 354.834 99.25 355.634 96.05ZM373.034 83.75L375.884 73.1C382.284 72.85 388.659 72.6 395.009 72.35C401.359 72.1 407.384 71.9 413.084 71.75C415.484 71.65 417.459 72.025 419.009 72.875C420.559 73.675 421.334 75 421.334 76.85C421.334 78.85 420.784 80.3 419.684 81.2C418.634 82.1 417.084 82.6 415.034 82.7C408.034 83 401.109 83.225 394.259 83.375C387.409 83.525 380.334 83.65 373.034 83.75ZM423.584 97.85C422.234 97.85 421.034 97.425 419.984 96.575C418.984 95.725 418.484 94.55 418.484 93.05C418.484 91.55 418.934 90.4 419.834 89.6C420.784 88.8 422.034 88.4 423.584 88.4C423.884 88.4 424.309 88.4 424.859 88.4C425.409 88.4 425.934 88.4 426.434 88.4V97.85C425.984 97.9 425.509 97.925 425.009 97.925C424.509 97.875 424.034 97.85 423.584 97.85ZM365.159 77.525C360.659 76.225 357.184 75.075 354.734 74.075C352.284 73.075 350.584 72.1 349.634 71.15C348.634 70.15 348.134 69.025 348.134 67.775C348.134 65.375 349.109 63.95 351.059 63.5C352.959 63.05 355.459 63.25 358.559 64.1C361.659 64.95 364.909 66.15 368.309 67.7L365.159 77.525ZM369.434 86.3C368.184 85.9 367.109 85.475 366.209 85.025C365.359 84.575 364.709 84.05 364.259 83.45C363.809 82.85 363.584 82.1 363.584 81.2C363.584 79.3 363.934 77.8 364.634 76.7C365.334 75.6 366.334 74.925 367.634 74.675C368.984 74.425 370.634 74.65 372.584 75.35L369.434 86.3ZM416.534 66.05L415.484 55.7C417.284 55.5 418.759 55.5 419.909 55.7C421.059 55.9 421.909 56.45 422.459 57.35C423.009 58.2 423.284 59.55 423.284 61.4C423.284 63.2 422.709 64.35 421.559 64.85C420.409 65.35 418.734 65.75 416.534 66.05ZM421.859 82.25L421.334 71.3C425.534 71.15 428.834 71.1 431.234 71.15C433.684 71.2 435.409 71.65 436.409 72.5C437.459 73.3 437.984 74.825 437.984 77.075C437.984 79.125 436.884 80.5 434.684 81.2C432.534 81.85 428.259 82.2 421.859 82.25ZM446.673 102.5C445.923 95.65 445.248 88.15 444.648 80C444.098 71.8 443.673 63.625 443.373 55.475C443.223 51.475 443.198 47.6 443.298 43.85C443.398 40.1 443.623 36.8 443.973 33.95C448.023 35.15 451.148 35.7 453.348 35.6C455.548 35.45 456.973 34.6 457.623 33.05C458.373 31.25 457.923 29.525 456.273 27.875C454.673 26.175 451.173 24.4 445.773 22.55C446.673 20.35 447.873 18.1 449.373 15.8C450.923 13.5 452.523 11.65 454.173 10.25C457.173 14.35 459.598 16.95 461.448 18.05C463.348 19.1 465.123 19 466.773 17.75C468.373 16.6 468.798 14.675 468.048 11.975C467.298 9.22499 465.873 6.49999 463.773 3.8C465.823 2.9 468.598 2.175 472.098 1.625C475.598 1.07499 478.623 0.799993 481.173 0.799993C488.123 0.799993 494.173 1.54999 499.323 3.04999C504.473 4.49999 508.748 6.65 512.148 9.5C515.548 12.3 518.073 15.7 519.723 19.7C521.423 23.65 522.273 28.15 522.273 33.2C522.273 38.75 521.173 43.625 518.973 47.825C516.773 52.025 513.723 55.325 509.823 57.725C505.923 60.075 501.423 61.25 496.323 61.25C492.023 61.25 488.398 60.5 485.448 59C482.548 57.45 480.348 55.325 478.848 52.625C477.398 49.925 476.673 46.8 476.673 43.25C476.673 38.2 478.173 34.175 481.173 31.175C484.173 28.125 487.923 26.6 492.423 26.6C496.073 26.6 498.948 27.5 501.048 29.3C503.198 31.1 504.273 33.175 504.273 35.525C504.273 36.875 503.923 37.975 503.223 38.825C502.573 39.625 501.573 40.025 500.223 40.025C499.323 40.025 498.623 39.85 498.123 39.5C497.673 39.1 497.248 38.65 496.848 38.15C496.498 37.6 496.023 37.15 495.423 36.8C494.823 36.4 493.923 36.2 492.723 36.2C491.173 36.2 489.998 36.8 489.198 38C488.448 39.2 488.073 40.6 488.073 42.2C488.073 44.8 488.898 46.975 490.548 48.725C492.198 50.475 494.323 51.35 496.923 51.35C501.273 51.35 504.698 49.75 507.198 46.55C509.748 43.3 511.023 39.1 511.023 33.95C511.023 28.15 509.448 23.45 506.298 19.85C503.198 16.25 498.823 14.45 493.173 14.45C488.673 14.45 484.648 15.6 481.098 17.9C477.598 20.15 474.623 23.45 472.173 27.8C469.773 32.15 467.973 37.4 466.773 43.55C465.773 48.95 465.048 53.25 464.598 56.45C464.198 59.6 464.073 62.025 464.223 63.725C464.423 65.425 464.873 66.7 465.573 67.55C466.273 68.4 467.223 69.2 468.423 69.95C469.323 70.45 470.398 71.05 471.648 71.75C472.898 72.4 474.273 73.1 475.773 73.85C476.323 74.05 476.873 74.3 477.423 74.6C478.023 74.9 478.623 75.175 479.223 75.425C479.923 75.725 480.623 76.05 481.323 76.4C482.073 76.75 482.823 77.1 483.573 77.45C484.173 77.7 484.748 77.975 485.298 78.275C485.898 78.525 486.473 78.775 487.023 79.025C487.673 79.325 488.273 79.625 488.823 79.925C489.373 80.225 489.923 80.5 490.473 80.75C490.923 80.95 491.348 81.15 491.748 81.35C492.198 81.55 492.623 81.75 493.023 81.95C493.473 82.15 493.923 82.35 494.373 82.55C500.073 85.3 504.748 87.6 508.398 89.45C512.048 91.3 514.873 92.975 516.873 94.475C518.873 95.925 520.273 97.4 521.073 98.9C521.873 100.35 522.273 102.05 522.273 104C522.273 105.7 521.673 107.225 520.473 108.575C519.273 109.925 517.573 110.6 515.373 110.6C514.423 110.6 513.348 110.425 512.148 110.075C510.998 109.775 509.448 109.125 507.498 108.125C505.598 107.125 503.048 105.65 499.848 103.7C496.648 101.75 492.548 99.15 487.548 95.9C482.598 92.65 476.473 88.6 469.173 83.75C466.473 81.95 464.373 81.3 462.873 81.8C461.423 82.25 460.473 83.65 460.023 86C459.373 89.15 458.898 92.375 458.598 95.675C458.298 98.925 457.923 101.6 457.473 103.7C456.973 105.85 456.348 107.5 455.598 108.65C454.848 109.75 453.673 110.3 452.073 110.3C450.273 110.3 448.998 109.65 448.248 108.35C447.498 107.05 446.973 105.1 446.673 102.5ZM453.423 98.6C452.073 98.6 451.023 98.275 450.273 97.625C449.573 96.925 449.223 95.6 449.223 93.65C449.223 92 449.523 90.875 450.123 90.275C450.773 89.675 451.773 89.45 453.123 89.6L453.423 98.6ZM448.923 74.9C448.023 74.8 447.298 74.5 446.748 74C446.198 73.5 445.923 72.4 445.923 70.7C445.923 68.8 446.198 67.575 446.748 67.025C447.348 66.475 448.423 66.25 449.973 66.35L448.923 74.9ZM503.223 80.3C500.823 80.3 498.923 79.675 497.523 78.425C496.123 77.175 495.423 75.5 495.423 73.4C495.423 70.55 496.048 68.45 497.298 67.1C498.548 65.7 500.373 65 502.773 65C505.423 65 507.423 65.625 508.773 66.875C510.173 68.075 510.873 69.95 510.873 72.5C510.873 74.95 510.223 76.875 508.923 78.275C507.673 79.625 505.773 80.3 503.223 80.3ZM560.607 106.7C559.957 106.7 559.332 106.575 558.732 106.325C558.132 106.075 557.557 105.7 557.007 105.2C556.607 104.8 556.257 104.3 555.957 103.7C555.657 103.1 555.382 102.275 555.132 101.225C554.932 100.125 554.757 98.625 554.607 96.725C554.457 94.825 554.307 92.35 554.157 89.3C554.107 88.05 554.057 86.85 554.007 85.7C553.957 84.55 553.907 83.425 553.857 82.325C553.807 81.375 553.757 80.45 553.707 79.55C553.707 78.6 553.682 77.675 553.632 76.775C553.582 75.475 553.532 74.225 553.482 73.025C553.482 71.825 553.432 70.65 553.332 69.5C553.332 69.05 553.307 68.6 553.257 68.15C553.257 67.7 553.257 67.25 553.257 66.8C553.257 66.3 553.232 65.85 553.182 65.45C553.182 64.95 553.157 64.475 553.107 64.025C553.107 63.525 553.082 63.05 553.032 62.6C553.032 62.1 553.007 61.625 552.957 61.175C552.857 58.675 552.732 56.125 552.582 53.525C552.482 50.875 552.357 48.1 552.207 45.2C552.057 42.15 551.332 39.75 550.032 38C548.782 36.25 547.207 34.875 545.307 33.875C543.407 32.825 541.382 31.9 539.232 31.1C537.132 30.3 535.157 29.35 533.307 28.25C531.457 27.15 529.932 25.65 528.732 23.75C527.582 21.8 527.007 19.2 527.007 15.95C527.007 13.2 527.432 10.95 528.282 9.19999C529.132 7.39999 530.482 6.07499 532.332 5.22499C534.232 4.375 536.757 3.95 539.907 3.95C539.457 9.2 539.607 12.775 540.357 14.675C541.157 16.525 542.307 17.45 543.807 17.45C545.457 17.45 546.707 16.6 547.557 14.9C548.407 13.15 548.857 9.54999 548.907 4.1C550.257 4.1 551.657 4.1 553.107 4.1C554.557 4.1 555.957 4.1 557.307 4.1C557.157 8.54999 557.157 11.975 557.307 14.375C557.507 16.725 557.932 18.35 558.582 19.25C559.232 20.15 560.157 20.6 561.357 20.6C562.407 20.6 563.307 20.175 564.057 19.325C564.857 18.425 565.457 16.8 565.857 14.45C566.257 12.1 566.457 8.69999 566.457 4.24999C573.157 4.24999 578.557 4.32499 582.657 4.475C586.757 4.57499 589.857 4.82499 591.957 5.22499C594.107 5.57499 595.532 6.17499 596.232 7.025C596.982 7.82499 597.357 8.94999 597.357 10.4C597.357 11.95 596.707 13.125 595.407 13.925C594.157 14.675 592.507 15.25 590.457 15.65C588.457 16 586.307 16.35 584.007 16.7C581.757 17 579.582 17.475 577.482 18.125C575.432 18.725 573.707 19.675 572.307 20.975C570.957 22.275 570.207 24.125 570.057 26.525C569.157 39.875 568.457 51.1 567.957 60.2C567.457 69.25 567.032 76.65 566.682 82.4C566.382 88.1 566.107 92.525 565.857 95.675C565.607 98.825 565.307 101.125 564.957 102.575C564.607 103.975 564.157 104.95 563.607 105.5C563.307 105.85 562.857 106.15 562.257 106.4C561.707 106.6 561.157 106.7 560.607 106.7ZM583.107 40.85C580.957 40.85 579.032 40.125 577.332 38.675C575.682 37.225 574.857 35.15 574.857 32.45C574.857 29.65 575.607 27.4 577.107 25.7C578.607 24 580.957 23.15 584.157 23.15C586.657 23.15 588.682 23.975 590.232 25.625C591.782 27.225 592.557 29.15 592.557 31.4C592.557 34.7 591.782 37.1 590.232 38.6C588.732 40.1 586.357 40.85 583.107 40.85ZM563.307 89.75L562.857 78.95C568.807 78.7 573.382 78.6 576.582 78.65C579.782 78.7 581.982 79.075 583.182 79.775C584.432 80.475 585.057 81.65 585.057 83.3C585.057 85.3 584.457 86.725 583.257 87.575C582.107 88.375 579.957 88.9 576.807 89.15C573.707 89.35 569.207 89.55 563.307 89.75ZM557.307 48.95L557.157 60.35C550.707 60.3 545.732 60.175 542.232 59.975C538.732 59.775 536.282 59.25 534.882 58.4C533.532 57.5 532.857 56.05 532.857 54.05C532.857 52 533.632 50.6 535.182 49.85C536.782 49.05 539.382 48.65 542.982 48.65C546.582 48.6 551.357 48.7 557.307 48.95ZM611.03 63.408C612.14 63.3653 613.676 63.4293 615.638 63.6C617.644 63.7707 619.649 63.984 621.654 64.24C623.702 64.496 625.366 64.7733 626.646 65.072C628.908 65.4987 630.444 66.2027 631.254 67.184C632.108 68.1227 632.534 69.424 632.534 71.088C632.534 72.752 632.129 74.16 631.318 75.312C630.508 76.4213 629.078 77.104 627.03 77.36C625.068 77.5733 623.126 77.744 621.206 77.872C619.329 78 617.494 78.1067 615.702 78.192C613.91 78.2347 612.225 78.256 610.646 78.256C608.001 78.1707 606.06 77.4667 604.822 76.144C603.585 74.7787 602.966 73.008 602.966 70.832C602.966 68.656 603.585 66.8853 604.822 65.52C606.102 64.112 608.172 63.408 611.03 63.408ZM652.781 111.35L649.181 76.88L641.531 77.96L640.991 68.69L649.091 68.06C649.451 62.3 650.651 57.62 652.691 54.02C654.731 50.36 657.191 47.63 660.071 45.83C662.951 43.97 665.861 42.86 668.801 42.5L672.131 57.89C669.371 58.85 667.061 60.11 665.201 61.67C663.341 63.23 661.841 65.03 660.701 67.07L700.841 63.83L695.081 110.54L686.171 111.35L682.121 72.29L666.101 74.54L661.691 110.54L652.781 111.35ZM690.311 59.24C688.031 59.24 686.051 58.43 684.371 56.81C682.751 55.13 681.941 53.15 681.941 50.87C681.941 48.59 682.751 46.64 684.371 45.02C686.051 43.34 688.031 42.5 690.311 42.5C692.591 42.5 694.541 43.34 696.161 45.02C697.841 46.64 698.681 48.59 698.681 50.87C698.681 53.15 697.841 55.13 696.161 56.81C694.541 58.43 692.591 59.24 690.311 59.24ZM718.021 111.35L713.431 48.53L732.691 45.56L726.931 110.54L718.021 111.35ZM749.837 111.35L745.247 48.53L764.507 45.56L758.747 110.54L749.837 111.35ZM811.246 129.08C809.506 129.08 807.706 128.75 805.846 128.09C804.046 127.49 802.246 126.47 800.446 125.03L803.146 120.44C805.126 121.16 807.076 121.52 808.996 121.52C811.636 121.52 813.946 120.77 815.926 119.27C817.966 117.77 819.256 115.37 819.796 112.07L801.166 66.8L820.426 63.83L826.366 98.39H827.086L838.696 64.1L845.986 66.08L826.456 115.22C825.076 118.76 823.636 121.52 822.136 123.5C820.696 125.54 819.106 126.98 817.366 127.82C815.626 128.66 813.586 129.08 811.246 129.08ZM872.663 112.16C868.403 112.16 864.773 111.65 861.773 110.63C858.833 109.67 856.433 108.44 854.573 106.94C854.093 104.54 853.733 102.23 853.493 100.01C853.313 97.73 853.223 95.54 853.223 93.44C853.223 89.24 853.823 85.34 855.023 81.74C856.283 78.14 857.813 74.96 859.613 72.2C861.473 69.38 863.363 67.07 865.283 65.27C867.203 63.41 868.823 62.15 870.143 61.49C872.843 62.87 875.513 64.55 878.153 66.53C880.793 68.51 883.193 70.82 885.353 73.46C887.573 76.1 889.343 79.07 890.663 82.37C891.983 85.67 892.643 89.36 892.643 93.44C892.643 97.58 892.073 101.03 890.933 103.79C889.793 106.55 887.783 108.62 884.903 110C882.023 111.44 877.943 112.16 872.663 112.16ZM867.803 104.33C870.083 104.33 872.363 104.18 874.643 103.88C876.983 103.52 879.023 103.04 880.763 102.44C881.243 100.52 881.603 98.6 881.843 96.68C882.083 94.76 882.203 92.87 882.203 91.01C882.203 85.31 881.003 80.09 878.603 75.35C875.243 77.09 872.273 79.52 869.693 82.64C867.113 85.7 865.073 89.09 863.573 92.81C862.133 96.47 861.413 100.13 861.413 103.79C863.333 104.15 865.463 104.33 867.803 104.33ZM914.61 112.07C914.25 112.07 913.65 111.98 912.81 111.8C911.97 111.68 911.37 111.53 911.01 111.35C909.63 109.67 908.46 107.42 907.5 104.6C906.54 101.72 905.76 98.57 905.16 95.15C904.56 91.67 904.11 88.13 903.81 84.53C903.51 80.93 903.3 77.51 903.18 74.27C903.06 70.97 903 68.12 903 65.72L921 64.37C920.52 69.17 920.13 73.4 919.83 77.06C919.53 80.72 919.38 84.23 919.38 87.59C919.38 90.29 919.47 93.02 919.65 95.78C919.89 98.48 920.25 101.48 920.73 104.78C923.37 104.18 925.56 103.04 927.3 101.36C929.1 99.62 930.54 97.55 931.62 95.15C932.76 92.69 933.57 90.11 934.05 87.41C934.53 84.71 934.77 82.07 934.77 79.49C934.77 79.01 934.74 78.44 934.68 77.78C934.68 77.06 934.59 75.89 934.41 74.27C934.29 72.59 934.05 70.1 933.69 66.8L952.95 63.83L947.19 110.54L938.28 111.35L936.48 94.25H935.85C933.45 100.61 930.48 105.17 926.94 107.93C923.4 110.69 919.29 112.07 914.61 112.07ZM969.729 111.35L965.139 66.71L984.399 63.74L982.599 78.14H983.229C985.509 73.16 988.209 69.26 991.329 66.44C994.509 63.56 997.929 61.97 1001.59 61.67L999.069 80.84C998.109 80.72 997.179 80.63 996.279 80.57C995.439 80.45 994.599 80.39 993.759 80.39C991.179 80.39 988.959 80.96 987.099 82.1C985.299 83.24 983.799 85.28 982.599 88.22C981.459 91.1 980.559 95.15 979.899 100.37L978.639 110.54L969.729 111.35ZM1054.11 112.16C1049.79 112.16 1045.86 111.65 1042.32 110.63C1038.84 109.61 1036.2 108.35 1034.4 106.85C1033.92 104.45 1033.56 102.29 1033.32 100.37C1033.14 98.39 1033.05 96.53 1033.05 94.79C1033.05 89.45 1033.89 84.56 1035.57 80.12C1037.25 75.62 1039.38 71.78 1041.96 68.6C1044.54 65.36 1047.18 62.99 1049.88 61.49L1065.45 71.66C1058.01 75.68 1052.1 80.48 1047.72 86.06C1043.34 91.64 1041.15 97.55 1041.15 103.79C1043.67 104.15 1046.28 104.33 1048.98 104.33C1051.62 104.33 1054.29 104.12 1056.99 103.7C1059.75 103.22 1062.51 102.44 1065.27 101.36L1067.97 110.09C1065.63 110.87 1063.29 111.41 1060.95 111.71C1058.61 112.01 1056.33 112.16 1054.11 112.16ZM1082.09 112.07C1081.73 112.07 1081.34 112.07 1080.92 112.07C1080.56 112.07 1080.2 112.04 1079.84 111.98C1077.8 110.6 1076.15 108.56 1074.89 105.86C1073.69 103.1 1073.09 100.25 1073.09 97.31C1073.09 94.85 1073.66 92.81 1074.8 91.19C1075.94 89.57 1077.98 88.37 1080.92 87.59C1083.92 86.75 1088.12 86.33 1093.52 86.33C1094.84 86.33 1096.25 86.39 1097.75 86.51C1099.25 86.57 1100.84 86.72 1102.52 86.96L1102.34 84.98C1102.1 82.52 1100.93 80.6 1098.83 79.22C1096.79 77.84 1094.36 77.15 1091.54 77.15C1089.98 77.15 1088.33 77.39 1086.59 77.87C1084.91 78.35 1083.23 79.1 1081.55 80.12L1077.59 67.07C1079.57 66.23 1082.09 65.51 1085.15 64.91C1088.27 64.25 1091.48 63.92 1094.78 63.92C1099.16 63.92 1102.97 64.55 1106.21 65.81C1109.51 67.07 1112.06 69.05 1113.86 71.75C1115.72 74.39 1116.65 77.9 1116.65 82.28C1116.65 82.82 1116.62 83.45 1116.56 84.17C1116.56 84.89 1116.53 85.4 1116.47 85.7L1113.95 110.54L1105.04 111.35L1103.69 98.3H1102.97C1100.99 102.5 1098.2 105.86 1094.6 108.38C1091.06 110.84 1086.89 112.07 1082.09 112.07ZM1088.84 101.99C1090.16 101.75 1091.72 101.33 1093.52 100.73C1095.38 100.07 1097.15 98.99 1098.83 97.49C1100.57 95.93 1101.92 93.68 1102.88 90.74C1102.1 90.74 1101.32 90.74 1100.54 90.74C1099.76 90.68 1098.95 90.65 1098.11 90.65C1096.25 90.65 1094.57 90.68 1093.07 90.74C1091.57 90.8 1090.01 90.98 1088.39 91.28C1088.15 91.82 1087.88 92.48 1087.58 93.26C1087.28 94.04 1087.13 95.03 1087.13 96.23C1087.13 97.25 1087.31 98.36 1087.67 99.56C1088.03 100.7 1088.42 101.51 1088.84 101.99ZM1132.59 111.35L1128 66.71L1147.26 63.74L1145.46 78.14H1146.09C1148.37 73.16 1151.07 69.26 1154.19 66.44C1157.37 63.56 1160.79 61.97 1164.45 61.67L1161.93 80.84C1160.97 80.72 1160.04 80.63 1159.14 80.57C1158.3 80.45 1157.46 80.39 1156.62 80.39C1154.04 80.39 1151.82 80.96 1149.96 82.1C1148.16 83.24 1146.66 85.28 1145.46 88.22C1144.32 91.1 1143.42 95.15 1142.76 100.37L1141.5 110.54L1132.59 111.35ZM1178.02 111.35L1174.15 74.99L1165.87 76.16L1165.33 66.89L1173.25 66.53L1171.9 53.93L1194.31 50.96L1192.51 65.54L1201.42 65.09L1201.15 71.12L1191.61 72.47L1186.93 110.54L1178.02 111.35Z" fill="white"/>
</svg>
