<svg width="20" height="23" viewBox="0 0 20 23" fill="none" xmlns="http://www.w3.org/2000/svg">
<path d="M10.1916 13.7867C8.51088 13.7867 7.8737 13.0585 7.57801 12.649" stroke="#FF44BD" stroke-width="1.76414" stroke-linecap="round" stroke-linejoin="round"/>
<path d="M7.41155 10.4958C7.40927 10.113 7.2556 9.74669 6.98411 9.47681C6.71262 9.20693 6.34536 9.05544 5.96255 9.05544C5.57973 9.05544 5.21247 9.20693 4.94098 9.47681C4.66949 9.74669 4.51582 10.113 4.51355 10.4958" stroke="#FF44BD" stroke-width="1.76414" stroke-linecap="round" stroke-linejoin="round"/>
<path d="M5.96252 18.087C6.83514 18.1559 6.70201 20.442 5.58714 20.3168C4.47226 20.1916 4.6656 17.9847 5.96252 18.087Z" stroke="#FF44BD" stroke-width="1.76414" stroke-linecap="round" stroke-linejoin="round"/>
<path d="M2.85026 3.75745C3.33898 3.26873 3.51906 2.65645 3.25248 2.38987C2.9859 2.12329 2.37362 2.30337 1.8849 2.79208C1.39618 3.2808 1.2161 3.89309 1.48268 4.15966C1.74926 4.42624 2.36155 4.24616 2.85026 3.75745Z" stroke="#FF44BD" stroke-width="1.76414" stroke-linecap="round" stroke-linejoin="round"/>
<path d="M5.31893 5.29615C4.68824 4.28729 3.99813 3.31681 3.25226 2.38985" stroke="#FF44BD" stroke-width="1.76414" stroke-linecap="round" stroke-linejoin="round"/>
<path d="M4.41729 6.16621C3.63267 5.29615 1.48267 4.15964 1.48267 4.15964" stroke="#FF44BD" stroke-width="1.76414" stroke-linecap="round" stroke-linejoin="round"/>
<path d="M10.1916 13.7867C11.8724 13.7867 12.5096 13.0585 12.8053 12.649" stroke="#FF44BD" stroke-width="1.76414" stroke-linecap="round" stroke-linejoin="round"/>
<path d="M12.9717 10.4958C12.974 10.113 13.1277 9.74669 13.3992 9.47681C13.6707 9.20693 14.0379 9.05544 14.4207 9.05544C14.8036 9.05544 15.1708 9.20693 15.4423 9.47681C15.7138 9.74669 15.8675 10.113 15.8697 10.4958" stroke="#FF44BD" stroke-width="1.76414" stroke-linecap="round" stroke-linejoin="round"/>
<path d="M10.1916 21.5C12.8053 21.5 13.1011 20.6582 13.1011 20.1121C13.1011 19.5659 12.5323 17.7382 10.1916 17.7382C7.85103 17.7382 7.28221 19.566 7.28221 20.1121C7.28221 20.6581 7.578 21.5 10.1916 21.5Z" stroke="#FF44BD" stroke-width="1.76414" stroke-linecap="round" stroke-linejoin="round"/>
<path d="M14.4208 18.087C13.5482 18.1559 13.6813 20.442 14.7962 20.3168C15.911 20.1916 15.7177 17.9847 14.4208 18.087Z" stroke="#FF44BD" stroke-width="1.76414" stroke-linecap="round" stroke-linejoin="round"/>
<path d="M18.9007 4.15964C19.1672 3.89306 18.9872 3.28077 18.4984 2.79206C18.0097 2.30334 17.3974 2.12326 17.1309 2.38984C16.8643 2.65642 17.0444 3.26871 17.5331 3.75742C18.0218 4.24614 18.6341 4.42622 18.9007 4.15964Z" stroke="#FF44BD" stroke-width="1.76414" stroke-linecap="round" stroke-linejoin="round"/>
<path d="M15.0644 5.29615C15.6951 4.28729 16.3852 3.31681 17.131 2.38985" stroke="#FF44BD" stroke-width="1.76414" stroke-linecap="round" stroke-linejoin="round"/>
<path d="M15.966 6.16621C16.7506 5.29615 18.9006 4.15964 18.9006 4.15964" stroke="#FF44BD" stroke-width="1.76414" stroke-linecap="round" stroke-linejoin="round"/>
<path d="M12.4132 3.78056L12.4263 3.78092C12.7413 3.58654 12.9874 3.29814 13.1298 2.95641C12.3918 2.95411 11.6621 3.11196 10.991 3.41908C11.5633 2.81494 12.0954 2.17387 12.5837 1.5C12.5837 1.5 9.39826 2.29636 8.32124 3.67056H8.3297C3.91154 4.88 1.35883 10.2034 1.35883 13.3089C1.35883 16.828 7.79985 17.7382 10.1916 17.7382C12.5834 17.7382 19.0245 16.8282 19.0245 13.3089C19.0245 10.2888 16.6096 5.17179 12.4132 3.78056Z" stroke="#FF44BD" stroke-width="1.76414" stroke-linecap="round" stroke-linejoin="round"/>
</svg>
