<svg width="497" height="455" viewBox="0 0 497 455" fill="none" xmlns="http://www.w3.org/2000/svg">
<rect width="497" height="455" fill="#1E1E1E"/>
<path d="M83.7539 142C83.2872 132.733 82.7872 123.5 82.2539 114.3C81.7872 105.033 81.2872 95.8 80.7539 86.6C80.2872 77.3333 79.8206 68.0667 79.3539 58.8C86.7539 58.5333 91.8539 57.8333 94.6539 56.7C97.5206 55.5 98.9539 53.6 98.9539 51C98.9539 48.6 97.4206 47.0667 94.3539 46.4C91.3539 45.7333 86.1539 45.6667 78.7539 46.2C78.5539 44.4667 78.3872 42.7333 78.2539 41C78.1872 39.2 78.1539 37.4667 78.1539 35.8C82.4206 35.4667 85.8539 34.9667 88.4539 34.3C91.0539 33.5667 92.9539 32.6333 94.1539 31.5C95.3539 30.3 95.9539 28.8667 95.9539 27.2C95.9539 24.5333 94.2206 22.8333 90.7539 22.1C87.2872 21.3667 82.7539 21.2667 77.1539 21.8C76.9539 20.4667 76.8206 19.1667 76.7539 17.9C76.7539 16.5667 76.7539 15.2667 76.7539 14C76.7539 9.79999 77.7539 6.86666 79.7539 5.2C81.8206 3.53333 85.1539 2.6 89.7539 2.4C99.5539 1.99999 109.087 1.99999 118.354 2.4C127.621 2.73333 136.287 3.46666 144.354 4.59999C149.087 5.2 152.521 6.5 154.654 8.5C156.854 10.5 157.954 12.8667 157.954 15.6C157.954 19.4 156.721 22.2333 154.254 24.1C151.854 25.9 149.021 27.4667 145.754 28.8C140.754 30.8 136.087 32.3667 131.754 33.5C127.421 34.5667 123.287 35.9333 119.354 37.6C117.687 38.2667 116.254 38.9333 115.054 39.6C113.921 40.2667 112.954 41 112.154 41.8C111.354 42.6667 110.721 43.6667 110.254 44.8C109.854 45.9333 109.554 47.4 109.354 49.2C109.154 50.8667 109.021 52.5333 108.954 54.2C108.954 55.8 108.954 57.4667 108.954 59.2C108.954 61.4667 109.387 63.1 110.254 64.1C111.121 65.0333 113.087 65.4 116.154 65.2C120.554 64.8667 124.954 64.3667 129.354 63.7C133.754 63.0333 138.154 62.6 142.554 62.4C145.421 62.2667 147.554 62.9333 148.954 64.4C150.354 65.8667 151.054 67.5333 151.054 69.4C151.054 71.1333 150.454 72.8333 149.254 74.5C148.054 76.1 146.287 77.0667 143.954 77.4C138.754 78 133.754 78.3667 128.954 78.5C124.154 78.5667 119.354 78.9333 114.554 79.6C111.754 79.8667 110.221 80.8667 109.954 82.6C109.687 84.2667 110.687 85.5667 112.954 86.5C116.154 87.8333 119.321 88.9 122.454 89.7C125.587 90.5 128.754 91.6 131.954 93C133.687 93.7333 134.954 94.7667 135.754 96.1C136.554 97.4333 136.954 98.8333 136.954 100.3C136.954 102.7 135.921 104.8 133.854 106.6C131.854 108.333 129.087 108.6 125.554 107.4C122.687 106.4 119.987 105.267 117.454 104C114.987 102.733 112.354 101.667 109.554 100.8C106.754 99.8667 104.621 99.8 103.154 100.6C101.754 101.333 100.954 103.067 100.754 105.8C100.287 111.6 100.054 117.6 100.054 123.8C100.121 130 99.8872 136.067 99.3539 142C99.2206 143.733 98.7872 145.133 98.0539 146.2C97.3206 147.333 96.3872 148.133 95.2539 148.6C94.1206 149.133 92.8872 149.4 91.5539 149.4C89.4872 149.4 87.6872 148.8 86.1539 147.6C84.6206 146.467 83.8206 144.6 83.7539 142ZM117.354 28C119.754 28 121.654 27.1667 123.054 25.5C124.454 23.8333 125.154 21.6667 125.154 19C125.154 16.8667 124.421 15.1 122.954 13.7C121.554 12.3 119.954 11.6 118.154 11.6C114.754 11.6 112.321 12.3 110.854 13.7C109.454 15.0333 108.754 17 108.754 19.6C108.754 22.0667 109.454 24.1 110.854 25.7C112.321 27.2333 114.487 28 117.354 28ZM236.793 144.2C224.726 144.2 214.593 141.467 206.393 136C198.26 130.467 192.126 122.8 187.993 113C183.86 103.2 181.793 91.8667 181.793 79C181.793 63.1333 184.326 49.3333 189.393 37.6C194.526 25.8 201.66 16.6667 210.793 10.2C219.926 3.66666 230.526 0.399999 242.593 0.399999C251.06 0.399999 258.526 1.96666 264.993 5.09999C271.46 8.23333 276.893 12.8333 281.293 18.9C285.76 24.9 289.093 32.2 291.293 40.8C293.56 49.3333 294.66 59.0667 294.593 70C294.526 86.2667 292.026 99.9 287.093 110.9C282.226 121.9 275.46 130.2 266.793 135.8C258.126 141.4 248.126 144.2 236.793 144.2ZM247.993 116.4C254.193 116.4 259.593 114.7 264.193 111.3C268.86 107.9 272.46 102.767 274.993 95.9C277.526 88.9667 278.793 80.2667 278.793 69.8C278.793 58.6 277.493 48.8333 274.893 40.5C272.293 32.1667 268.493 25.7 263.493 21.1C258.493 16.5 252.393 14.2 245.193 14.2C239.593 14.2 234.526 15.8333 229.993 19.1C225.46 22.3667 221.86 27.3667 219.193 34.1C216.526 40.7667 215.193 49.2 215.193 59.4C215.193 70.8 216.493 80.7667 219.093 89.3C221.76 97.8333 225.526 104.5 230.393 109.3C235.326 114.033 241.193 116.4 247.993 116.4ZM221.593 116.6C219.126 116.6 217.293 117.267 216.093 118.6C214.96 119.867 214.393 122.2 214.393 125.6C214.393 127.6 215.093 129.2 216.493 130.4C217.96 131.6 220.126 132.2 222.993 132.2C225.193 132.2 226.893 131.6 228.093 130.4C229.36 129.133 229.993 127.267 229.993 124.8C229.993 121.8 229.326 119.7 227.993 118.5C226.726 117.233 224.593 116.6 221.593 116.6ZM204.993 95C202.326 95 200.293 95.7667 198.893 97.3C197.493 98.7667 196.793 100.667 196.793 103C196.793 106.2 197.593 108.6 199.193 110.2C200.86 111.8 202.926 112.6 205.393 112.6C208.193 112.6 210.393 111.9 211.993 110.5C213.593 109.033 214.393 107.2 214.393 105C214.393 101.6 213.526 99.1 211.793 97.5C210.06 95.8333 207.793 95 204.993 95ZM200.193 68.8C197.393 68.8 195.393 69.5 194.193 70.9C192.993 72.2333 192.393 74.4667 192.393 77.6C192.393 79.4 193.026 80.9667 194.293 82.3C195.626 83.5667 197.793 84.2 200.793 84.2C202.793 84.2 204.46 83.6 205.793 82.4C207.126 81.2 207.793 79.2667 207.793 76.6C207.793 73.6667 207.126 71.6333 205.793 70.5C204.46 69.3667 202.593 68.8 200.193 68.8ZM265.393 15.8C264.126 18.2667 262.76 20.7667 261.293 23.3C259.826 25.7667 258.326 28.2667 256.793 30.8C254.126 35.2 251.86 38.0667 249.993 39.4C248.193 40.6667 246.326 40.8667 244.393 40C242.326 38.9333 241.393 37.2 241.593 34.8C241.793 32.3333 243.193 28.6667 245.793 23.8C247.193 21.2 248.66 18.6 250.193 16C251.793 13.4 253.393 10.8667 254.993 8.39999C255.726 7.19999 256.826 6.53333 258.293 6.39999C259.76 6.19999 261.126 6.39999 262.393 7C263.926 7.66666 265.093 8.76666 265.893 10.3C266.693 11.8333 266.526 13.6667 265.393 15.8ZM235.493 8.59999C235.626 8.86666 235.726 9.16666 235.793 9.5C235.926 9.76666 236.026 10.0667 236.093 10.4C236.426 11.6667 236.193 12.7667 235.393 13.7C234.66 14.5667 233.793 15.2 232.793 15.6C231.593 16 230.26 16.2667 228.793 16.4C227.326 16.4667 226.36 16.0333 225.893 15.1C225.626 14.5667 225.36 14.0667 225.093 13.6C224.893 13.0667 224.693 12.5667 224.493 12.1C224.093 11.1667 224.393 10.2333 225.393 9.3C226.46 8.3 227.593 7.6 228.793 7.2C230.126 6.79999 231.46 6.66666 232.793 6.79999C234.193 6.86666 235.093 7.46666 235.493 8.59999ZM265.593 81.8C268.726 82.7333 271.926 83.7333 275.193 84.8C278.526 85.8667 281.793 87 284.993 88.2C286.593 88.8 287.66 89.7333 288.193 91C288.793 92.2667 288.926 93.6 288.593 95C288.326 96.4667 287.526 97.7667 286.193 98.9C284.86 99.9667 283.193 100.267 281.193 99.8C277.993 99 274.76 98.1667 271.493 97.3C268.293 96.3667 265.126 95.4 261.993 94.4C254.993 92.2 250.66 90.2667 248.993 88.6C247.326 86.8667 246.726 85.0667 247.193 83.2C247.726 81.0667 249.193 79.7667 251.593 79.3C254.06 78.7667 258.726 79.6 265.593 81.8ZM188.793 52.6C189.126 52.4667 189.46 52.3667 189.793 52.3C190.193 52.1667 190.526 52.0667 190.793 52C191.26 51.8667 191.626 51.8333 191.893 51.9C192.226 51.9667 192.493 52.1333 192.693 52.4C192.96 52.6 193.193 52.8667 193.393 53.2C193.66 53.6667 193.793 54.1 193.793 54.5C193.86 54.8333 193.793 55.1667 193.593 55.5C193.46 55.7667 193.193 56 192.793 56.2C192.526 56.2667 192.226 56.4 191.893 56.6C191.626 56.7333 191.326 56.8667 190.993 57C190.526 57.2 190.093 57.1 189.693 56.7C189.293 56.3 188.926 55.8 188.593 55.2C188.393 54.6 188.293 54.0333 188.293 53.5C188.36 52.9667 188.526 52.6667 188.793 52.6ZM279.393 45C281.393 44.4 283.193 44.3667 284.793 44.9C286.393 45.4333 287.526 46.8667 288.193 49.2C288.926 51.4667 288.926 53.2667 288.193 54.6C287.46 55.9333 285.993 57 283.793 57.8C282.393 58.4 280.893 59 279.293 59.6C277.693 60.1333 275.393 60.8 272.393 61.6C266.726 63 262.726 63.6 260.393 63.4C258.06 63.2 256.526 62.0667 255.793 60C254.993 57.6 255.493 55.5667 257.293 53.9C259.093 52.1667 262.726 50.4 268.193 48.6C270.526 47.8 272.493 47.1333 274.093 46.6C275.76 46 277.526 45.4667 279.393 45ZM272.993 114.6C273.393 115.067 273.76 115.533 274.093 116C274.493 116.4 274.86 116.867 275.193 117.4C275.926 118.267 276.326 119.433 276.393 120.9C276.46 122.3 275.526 123.867 273.593 125.6C271.593 127.467 269.826 128.167 268.293 127.7C266.76 127.233 265.526 126.467 264.593 125.4C264.126 124.667 263.726 124.1 263.393 123.7C263.126 123.233 262.793 122.733 262.393 122.2C261.526 120.8 261.226 119.333 261.493 117.8C261.826 116.267 262.793 114.867 264.393 113.6C265.993 112.267 267.593 111.8 269.193 112.2C270.86 112.6 272.126 113.4 272.993 114.6ZM331.512 147.4C329.445 147.4 327.712 146.733 326.312 145.4C324.978 144.067 324.312 142.267 324.312 140C324.312 137.8 324.878 135.267 326.012 132.4C328.812 125.067 331.845 117.867 335.112 110.8C338.378 103.667 341.412 96.4667 344.212 89.2C345.412 86 346.245 82.8333 346.712 79.7C347.178 76.5 347.412 73.3333 347.412 70.2C347.412 66.6667 347.145 63.2 346.612 59.8C346.078 56.4 345.145 53.4 343.812 50.8C341.012 45.1333 338.012 39.7667 334.812 34.7C331.612 29.6333 328.612 24.2 325.812 18.4C324.878 16.4667 324.145 14.6667 323.612 13C323.078 11.3333 322.812 9.86666 322.812 8.59999C322.812 5.93332 323.745 3.86666 325.612 2.4C327.478 0.933326 329.512 0.19999 331.712 0.19999C333.045 0.19999 334.345 0.533323 335.612 1.19999C336.878 1.79999 338.078 2.66666 339.212 3.79999C340.678 5.26666 342.445 7.73333 344.512 11.2C346.645 14.6 348.612 17.9333 350.412 21.2C350.678 21.6667 350.945 22.1333 351.212 22.6C351.478 23 351.745 23.4333 352.012 23.9C352.278 24.3 352.545 24.7333 352.812 25.2C353.145 25.8 353.478 26.4333 353.812 27.1C354.212 27.7667 354.612 28.4 355.012 29C355.412 29.8 355.812 30.5667 356.212 31.3C356.678 32.0333 357.145 32.8 357.612 33.6C358.012 34.2667 358.412 34.9333 358.812 35.6C359.212 36.2 359.612 36.8667 360.012 37.6C360.412 38.2 360.812 38.8333 361.212 39.5C361.612 40.1667 362.012 40.8 362.412 41.4C362.945 42.2 363.445 43 363.912 43.8C364.445 44.5333 364.945 45.2667 365.412 46C367.612 49.2 369.612 51.2667 371.412 52.2C373.212 53.1333 375.145 53.6 377.212 53.6C379.145 53.6 380.945 53.1 382.612 52.1C384.278 51.1 386.012 49.0667 387.812 46C391.145 40.2 394.212 34.2 397.012 28C399.812 21.7333 402.812 15.6 406.012 9.59999C407.278 7.26666 408.645 5.59999 410.112 4.59999C411.578 3.59999 413.112 3.09999 414.712 3.09999C417.045 3.09999 418.945 3.83333 420.412 5.29999C421.878 6.69999 422.612 8.63333 422.612 11.1C422.612 13.3 422.012 15.9333 420.812 19C418.545 24.6667 416.145 30.1667 413.612 35.5C411.145 40.7667 408.745 46.2667 406.412 52C405.412 54.4 404.645 56.9 404.112 59.5C403.645 62.1 403.412 64.6 403.412 67C403.412 69.4 403.612 71.8333 404.012 74.3C404.412 76.7667 405.012 79.2667 405.812 81.8C408.145 88.7333 411.045 96.2333 414.512 104.3C417.978 112.3 421.012 120.267 423.612 128.2C424.145 129.8 424.545 131.333 424.812 132.8C425.145 134.2 425.312 135.6 425.312 137C425.312 140.333 424.278 142.967 422.212 144.9C420.212 146.833 417.745 147.8 414.812 147.8C410.012 147.8 405.745 144.867 402.012 139C397.945 132.4 394.145 125.733 390.612 119C387.145 112.2 383.412 105.667 379.412 99.4C378.212 97.4667 376.845 96.0667 375.312 95.2C373.845 94.2667 372.145 93.8 370.212 93.8C368.145 93.8 366.312 94.3333 364.712 95.4C363.112 96.4667 361.812 98 360.812 100C357.412 106.6 354.245 113.133 351.312 119.6C348.378 126 345.212 132.467 341.812 139C340.345 141.667 338.745 143.733 337.012 145.2C335.345 146.667 333.512 147.4 331.512 147.4ZM412.212 49C408.412 47.2667 404.645 45.4667 400.912 43.6C397.178 41.7333 393.545 39.8 390.012 37.8C384.812 34.8 381.412 32.3 379.812 30.3C378.278 28.3 377.945 26.2667 378.812 24.2C379.812 21.8 381.745 20.7667 384.612 21.1C387.545 21.4333 391.212 22.6 395.612 24.6C399.545 26.4 403.512 28.3 407.512 30.3C411.512 32.3 415.545 34.4 419.612 36.6C425.212 39.5333 429.078 42.1333 431.212 44.4C433.412 46.6667 434.012 49 433.012 51.4C432.012 53.8 429.878 54.7 426.612 54.1C423.345 53.5 418.545 51.8 412.212 49ZM392.612 57.2L397.212 47.8C399.212 48.6 400.478 49.5667 401.012 50.7C401.612 51.8333 401.412 53.4667 400.412 55.6C399.345 57.6667 398.212 58.6667 397.012 58.6C395.878 58.5333 394.412 58.0667 392.612 57.2ZM370.812 74.9C368.812 74.9 367.145 74.2667 365.812 73C364.478 71.6667 363.812 69.6 363.812 66.8C363.812 64.8 364.412 63.2 365.612 62C366.878 60.8 368.745 60.2 371.212 60.2C373.412 60.2 375.178 60.8667 376.512 62.2C377.845 63.5333 378.512 65.4333 378.512 67.9C378.512 70.0333 377.778 71.7333 376.312 73C374.845 74.2667 373.012 74.9 370.812 74.9ZM351.212 129.6C347.412 128 343.712 126.333 340.112 124.6C336.578 122.8 333.078 121.033 329.612 119.3C325.545 117.1 322.712 115.033 321.112 113.1C319.512 111.1 319.245 108.967 320.312 106.7C321.378 104.567 323.078 103.567 325.412 103.7C327.812 103.767 331.278 104.733 335.812 106.6C339.545 108.067 343.245 109.633 346.912 111.3C350.578 112.967 354.145 114.667 357.612 116.4C363.812 119.4 367.945 122.067 370.012 124.4C372.145 126.733 372.745 129.067 371.812 131.4C370.745 133.867 368.712 134.9 365.712 134.5C362.778 134.1 357.945 132.467 351.212 129.6ZM400.612 116.8C402.812 116.8 404.545 116.167 405.812 114.9C407.145 113.633 407.812 112.2 407.812 110.6C407.812 108.267 407.212 106.467 406.012 105.2C404.878 103.867 403.412 103.2 401.612 103.2C399.012 103.2 397.112 103.767 395.912 104.9C394.778 105.967 394.212 107.867 394.212 110.6C394.212 112.467 394.745 113.967 395.812 115.1C396.945 116.233 398.545 116.8 400.612 116.8ZM390.012 91.2C392.612 91.2 394.645 90.4 396.112 88.8C397.645 87.2 398.412 84.8 398.412 81.6C398.412 79.4 397.745 77.6333 396.412 76.3C395.078 74.9 393.412 74.2 391.412 74.2C387.945 74.2 385.412 75 383.812 76.6C382.212 78.1333 381.412 80.0667 381.412 82.4C381.412 85.2 382.178 87.3667 383.712 88.9C385.312 90.4333 387.412 91.2 390.012 91.2ZM333.012 139.6C332.745 139.467 332.412 139.333 332.012 139.2C331.678 139 331.345 138.867 331.012 138.8C330.012 138.4 329.412 137.633 329.212 136.5C329.078 135.367 329.412 134 330.212 132.4C331.145 130.667 332.045 129.467 332.912 128.8C333.778 128.133 334.812 128.067 336.012 128.6C336.212 128.667 336.345 128.733 336.412 128.8C336.545 128.8 336.745 128.867 337.012 129C338.212 129.467 338.912 130.3 339.112 131.5C339.312 132.7 339.012 134.267 338.212 136.2C337.412 138 336.578 139.133 335.712 139.6C334.912 140 334.012 140 333.012 139.6ZM62.7961 345.6C52.5961 345.6 43.6628 343.133 35.9961 338.2C28.3294 333.2 22.3628 325.733 18.0961 315.8C13.8961 305.867 11.7961 293.4 11.7961 278.4C11.7961 262.533 14.6294 248.8 20.2961 237.2C25.9628 225.533 33.5628 216.533 43.0961 210.2C52.6294 203.8 63.1961 200.6 74.7961 200.6C80.1961 200.6 85.1294 201.367 89.5961 202.9C94.0628 204.367 97.5961 206.833 100.196 210.3C102.863 213.7 104.196 218.267 104.196 224C104.196 229.867 102.963 234.9 100.496 239.1C98.0294 243.3 94.5294 245.4 89.9961 245.4C88.9961 245.4 88.0628 245.4 87.1961 245.4C86.3961 245.333 85.5294 245.2 84.5961 245C86.3961 236.933 87.4961 230.9 87.8961 226.9C88.2961 222.9 88.0961 220.2 87.2961 218.8C86.5628 217.4 85.4628 216.6 83.9961 216.4C82.5294 216.2 81.1628 216.7 79.8961 217.9C78.6961 219.1 77.5961 221.7 76.5961 225.7C75.5961 229.633 74.7294 235.6 73.9961 243.6C72.5294 243.4 70.6628 243.2 68.3961 243C66.1961 242.8 64.3294 242.733 62.7961 242.8C63.0628 236.333 63.0294 231.5 62.6961 228.3C62.4294 225.1 61.8294 223 60.8961 222C59.9628 221 58.6628 220.533 56.9961 220.6C55.5294 220.667 54.2961 221.267 53.2961 222.4C52.2961 223.467 51.5961 225.6 51.1961 228.8C50.8628 231.933 50.8628 236.6 51.1961 242.8C47.5961 243.667 44.1628 245.7 40.8961 248.9C37.6961 252.033 35.0628 256.267 32.9961 261.6C30.9961 266.867 29.9961 273.133 29.9961 280.4C29.9961 290.867 31.5294 299.8 34.5961 307.2C37.6628 314.6 41.7294 320.267 46.7961 324.2C51.8628 328.067 57.3961 330 63.3961 330C64.0628 330 64.6961 330 65.2961 330C65.9628 329.933 66.5961 329.867 67.1961 329.8C67.8628 329.667 68.4961 329.567 69.0961 329.5C69.7628 329.367 70.3961 329.233 70.9961 329.1C71.9294 328.9 72.8628 328.633 73.7961 328.3C74.7961 327.967 75.7628 327.633 76.6961 327.3C77.2294 327.033 77.7628 326.8 78.2961 326.6C78.8294 326.333 79.3294 326.067 79.7961 325.8C80.1961 325.6 80.5628 325.367 80.8961 325.1C81.2961 324.833 81.6628 324.6 81.9961 324.4C82.3961 324.2 82.7628 324 83.0961 323.8C83.3628 323.467 83.6628 323.233 83.9961 323.1C84.3294 322.9 84.6294 322.667 84.8961 322.4C85.2294 322.067 85.6294 321.7 86.0961 321.3C88.4961 318.9 90.4961 317.133 92.0961 316C93.7628 314.867 95.5294 314.3 97.3961 314.3C99.1294 314.3 100.496 314.933 101.496 316.2C102.563 317.467 103.096 319 103.096 320.8C103.096 324.133 101.996 327.3 99.7961 330.3C97.5961 333.233 94.5961 335.867 90.7961 338.2C86.9961 340.467 82.6628 342.267 77.7961 343.6C72.9961 344.933 67.9961 345.6 62.7961 345.6ZM50.9961 213C51.1961 213.267 51.4294 213.633 51.6961 214.1C52.0294 214.567 52.3294 215.067 52.5961 215.6C53.1294 216.733 52.7961 218.033 51.5961 219.5C50.3961 220.9 48.9294 222.133 47.1961 223.2C45.5294 224.2 44.1628 224.7 43.0961 224.7C42.7628 224.7 42.4294 224.7 42.0961 224.7C41.7628 224.633 41.4628 224.467 41.1961 224.2C40.9961 224 40.6961 223.7 40.2961 223.3C39.8961 222.833 39.5961 222.467 39.3961 222.2C38.1961 220.467 37.8294 218.767 38.2961 217.1C38.7628 215.433 39.7961 214.067 41.3961 213C42.9961 211.867 44.7294 211.3 46.5961 211.3C47.5294 211.3 48.3628 211.467 49.0961 211.8C49.8961 212.067 50.5294 212.467 50.9961 213ZM10.0961 301.2C13.7628 299.533 18.2961 297.6 23.6961 295.4C29.0961 293.2 34.6294 291.1 40.2961 289.1C42.5628 288.233 44.5294 288.033 46.1961 288.5C47.8628 288.967 49.0628 289.967 49.7961 291.5C50.7961 293.233 50.9294 294.967 50.1961 296.7C49.5294 298.367 48.0294 299.867 45.6961 301.2C40.4294 304 35.1294 306.733 29.7961 309.4C24.5294 312.067 19.7628 314.333 15.4961 316.2C12.0294 317.8 9.12943 318.433 6.79609 318.1C4.52943 317.7 2.89609 316.267 1.89609 313.8C0.96276 311.4 1.09609 309.133 2.29609 307C3.56276 304.867 6.16276 302.933 10.0961 301.2ZM67.1961 293.6C64.3961 293.6 62.1294 292.7 60.3961 290.9C58.6628 289.1 57.7961 286.4 57.7961 282.8C57.7961 279.8 58.7628 277.333 60.6961 275.4C62.6294 273.4 65.5294 272.4 69.3961 272.4C72.3961 272.4 74.7294 273.3 76.3961 275.1C78.1294 276.833 78.9961 279.2 78.9961 282.2C78.9961 286.2 78.0628 289.1 76.1961 290.9C74.3961 292.7 71.3961 293.6 67.1961 293.6ZM88.7961 326.8C89.1961 327.267 89.5628 327.833 89.8961 328.5C90.2961 329.1 90.5961 329.667 90.7961 330.2C91.7294 332.2 91.2961 333.9 89.4961 335.3C87.7628 336.7 85.9294 337.4 83.9961 337.4C83.0628 337.4 82.1961 337.167 81.3961 336.7C80.6628 336.233 80.0628 335.667 79.5961 335C79.3961 334.667 79.1961 334.333 78.9961 334C78.8628 333.6 78.7294 333.267 78.5961 333L88.7961 326.8ZM76.3961 340.6C76.9294 344.2 77.3961 347.8 77.7961 351.4C78.1961 355.067 78.5294 358.8 78.7961 362.6C78.9294 365.467 78.3628 367.567 77.0961 368.9C75.8294 370.3 73.7628 371 70.8961 371C68.6961 371 66.9961 370.3 65.7961 368.9C64.6628 367.5 63.9294 365.267 63.5961 362.2C63.3294 359 63.0628 355.633 62.7961 352.1C62.5294 348.567 62.3294 344.867 62.1961 341C62.1961 339 62.9294 337.467 64.3961 336.4C65.8628 335.333 67.4294 334.8 69.0961 334.8C70.8294 334.8 72.3961 335.267 73.7961 336.2C75.1961 337.133 76.0628 338.6 76.3961 340.6ZM133.76 323.4C135.027 318.467 136.627 312.333 138.56 305C140.493 297.6 142.593 289.733 144.86 281.4C147.127 273 149.36 264.9 151.56 257.1C155.493 258.7 159.093 259.933 162.36 260.8C165.693 261.6 168.36 261.7 170.36 261.1C172.36 260.5 173.36 258.867 173.36 256.2C173.36 254.4 172.06 252.667 169.46 251C166.927 249.333 161.993 247.6 154.66 245.8C155.26 243.467 155.86 241.267 156.46 239.2C157.06 237.067 157.627 235.067 158.16 233.2C162.76 235.133 167.127 236.7 171.26 237.9C175.393 239.1 178.76 239.467 181.36 239C183.96 238.533 185.26 236.8 185.26 233.8C185.26 231.6 183.593 229.6 180.26 227.8C176.927 226 170.66 224.067 161.46 222C161.527 221.733 161.56 221.533 161.56 221.4C161.627 221.2 161.693 220.967 161.76 220.7C163.493 214.9 166.66 210.4 171.26 207.2C175.927 204 182.293 202.467 190.36 202.6C198.627 202.6 205.093 204.433 209.76 208.1C214.427 211.7 217.36 217.467 218.56 225.4C218.693 226.4 218.827 227.467 218.96 228.6C219.16 229.667 219.327 230.8 219.46 232C219.593 233.067 219.727 234.167 219.86 235.3C220.06 236.433 220.227 237.6 220.36 238.8C220.493 239.467 220.593 240.133 220.66 240.8C220.793 241.467 220.893 242.133 220.96 242.8C221.093 243.467 221.193 244.167 221.26 244.9C221.46 246.433 221.66 248 221.86 249.6C222.06 251.2 222.293 252.833 222.56 254.5C222.693 255.5 222.827 256.533 222.96 257.6C223.16 258.6 223.293 259.667 223.36 260.8C223.493 261.6 223.593 262.433 223.66 263.3C223.793 264.1 223.927 264.933 224.06 265.8C224.193 266.6 224.293 267.433 224.36 268.3C225.16 274.1 225.927 280 226.66 286C227.46 292 228.227 297.9 228.96 303.7C229.693 309.5 230.36 315 230.96 320.2C231.627 325.4 232.227 330.133 232.76 334.4C233.227 338.067 232.66 341.133 231.06 343.6C229.46 346.133 227.16 347.4 224.16 347.4C221.56 347.4 219.327 346.4 217.46 344.4C215.66 342.467 214.56 339.6 214.16 335.8C212.893 323.8 211.76 311.333 210.76 298.4C209.76 285.4 208.66 272.267 207.46 259C207.06 254.4 206.227 251.2 204.96 249.4C203.693 247.6 201.593 246.7 198.66 246.7C195.993 246.7 193.46 247.5 191.06 249.1C188.727 250.7 186.093 254.467 183.16 260.4C177.493 271.867 171.86 283.6 166.26 295.6C160.727 307.6 155.293 319.133 149.96 330.2C148.627 332.933 147.16 334.933 145.56 336.2C143.96 337.4 142.16 338 140.16 338C137.293 338 135.227 336.633 133.96 333.9C132.76 331.167 132.693 327.667 133.76 323.4ZM156.96 307L160.76 292.8C169.293 292.467 177.793 292.133 186.26 291.8C194.727 291.467 202.76 291.2 210.36 291C213.56 290.867 216.193 291.367 218.26 292.5C220.327 293.567 221.36 295.333 221.36 297.8C221.36 300.467 220.627 302.4 219.16 303.6C217.76 304.8 215.693 305.467 212.96 305.6C203.627 306 194.393 306.3 185.26 306.5C176.127 306.7 166.693 306.867 156.96 307ZM224.36 325.8C222.56 325.8 220.96 325.233 219.56 324.1C218.227 322.967 217.56 321.4 217.56 319.4C217.56 317.4 218.16 315.867 219.36 314.8C220.627 313.733 222.293 313.2 224.36 313.2C224.76 313.2 225.327 313.2 226.06 313.2C226.793 313.2 227.493 313.2 228.16 313.2V325.8C227.56 325.867 226.927 325.9 226.26 325.9C225.593 325.833 224.96 325.8 224.36 325.8ZM146.46 298.7C140.46 296.967 135.827 295.433 132.56 294.1C129.293 292.767 127.027 291.467 125.76 290.2C124.427 288.867 123.76 287.367 123.76 285.7C123.76 282.5 125.06 280.6 127.66 280C130.193 279.4 133.527 279.667 137.66 280.8C141.793 281.933 146.127 283.533 150.66 285.6L146.46 298.7ZM152.16 310.4C150.493 309.867 149.06 309.3 147.86 308.7C146.727 308.1 145.86 307.4 145.26 306.6C144.66 305.8 144.36 304.8 144.36 303.6C144.36 301.067 144.827 299.067 145.76 297.6C146.693 296.133 148.027 295.233 149.76 294.9C151.56 294.567 153.76 294.867 156.36 295.8L152.16 310.4ZM214.96 283.4L213.56 269.6C215.96 269.333 217.927 269.333 219.46 269.6C220.993 269.867 222.127 270.6 222.86 271.8C223.593 272.933 223.96 274.733 223.96 277.2C223.96 279.6 223.193 281.133 221.66 281.8C220.127 282.467 217.893 283 214.96 283.4ZM222.06 305L221.36 290.4C226.96 290.2 231.36 290.133 234.56 290.2C237.827 290.267 240.127 290.867 241.46 292C242.86 293.067 243.56 295.1 243.56 298.1C243.56 300.833 242.093 302.667 239.16 303.6C236.293 304.467 230.593 304.933 222.06 305ZM275.146 332C274.146 322.867 273.246 312.867 272.446 302C271.713 291.067 271.146 280.167 270.746 269.3C270.546 263.967 270.513 258.8 270.646 253.8C270.779 248.8 271.079 244.4 271.546 240.6C276.946 242.2 281.113 242.933 284.046 242.8C286.979 242.6 288.879 241.467 289.746 239.4C290.746 237 290.146 234.7 287.946 232.5C285.813 230.233 281.146 227.867 273.946 225.4C275.146 222.467 276.746 219.467 278.746 216.4C280.813 213.333 282.946 210.867 285.146 209C289.146 214.467 292.379 217.933 294.846 219.4C297.379 220.8 299.746 220.667 301.946 219C304.079 217.467 304.646 214.9 303.646 211.3C302.646 207.633 300.746 204 297.946 200.4C300.679 199.2 304.379 198.233 309.046 197.5C313.713 196.767 317.746 196.4 321.146 196.4C330.413 196.4 338.479 197.4 345.346 199.4C352.213 201.333 357.913 204.2 362.446 208C366.979 211.733 370.346 216.267 372.546 221.6C374.813 226.867 375.946 232.867 375.946 239.6C375.946 247 374.479 253.5 371.546 259.1C368.613 264.7 364.546 269.1 359.346 272.3C354.146 275.433 348.146 277 341.346 277C335.613 277 330.779 276 326.846 274C322.979 271.933 320.046 269.1 318.046 265.5C316.113 261.9 315.146 257.733 315.146 253C315.146 246.267 317.146 240.9 321.146 236.9C325.146 232.833 330.146 230.8 336.146 230.8C341.013 230.8 344.846 232 347.646 234.4C350.513 236.8 351.946 239.567 351.946 242.7C351.946 244.5 351.479 245.967 350.546 247.1C349.679 248.167 348.346 248.7 346.546 248.7C345.346 248.7 344.413 248.467 343.746 248C343.146 247.467 342.579 246.867 342.046 246.2C341.579 245.467 340.946 244.867 340.146 244.4C339.346 243.867 338.146 243.6 336.546 243.6C334.479 243.6 332.913 244.4 331.846 246C330.846 247.6 330.346 249.467 330.346 251.6C330.346 255.067 331.446 257.967 333.646 260.3C335.846 262.633 338.679 263.8 342.146 263.8C347.946 263.8 352.513 261.667 355.846 257.4C359.246 253.067 360.946 247.467 360.946 240.6C360.946 232.867 358.846 226.6 354.646 221.8C350.513 217 344.679 214.6 337.146 214.6C331.146 214.6 325.779 216.133 321.046 219.2C316.379 222.2 312.413 226.6 309.146 232.4C305.946 238.2 303.546 245.2 301.946 253.4C300.613 260.6 299.646 266.333 299.046 270.6C298.513 274.8 298.346 278.033 298.546 280.3C298.813 282.567 299.413 284.267 300.346 285.4C301.279 286.533 302.546 287.6 304.146 288.6C305.346 289.267 306.779 290.067 308.446 291C310.113 291.867 311.946 292.8 313.946 293.8C314.679 294.067 315.413 294.4 316.146 294.8C316.946 295.2 317.746 295.567 318.546 295.9C319.479 296.3 320.413 296.733 321.346 297.2C322.346 297.667 323.346 298.133 324.346 298.6C325.146 298.933 325.913 299.3 326.646 299.7C327.446 300.033 328.213 300.367 328.946 300.7C329.813 301.1 330.613 301.5 331.346 301.9C332.079 302.3 332.813 302.667 333.546 303C334.146 303.267 334.713 303.533 335.246 303.8C335.846 304.067 336.413 304.333 336.946 304.6C337.546 304.867 338.146 305.133 338.746 305.4C346.346 309.067 352.579 312.133 357.446 314.6C362.313 317.067 366.079 319.3 368.746 321.3C371.413 323.233 373.279 325.2 374.346 327.2C375.413 329.133 375.946 331.4 375.946 334C375.946 336.267 375.146 338.3 373.546 340.1C371.946 341.9 369.679 342.8 366.746 342.8C365.479 342.8 364.046 342.567 362.446 342.1C360.913 341.7 358.846 340.833 356.246 339.5C353.713 338.167 350.313 336.2 346.046 333.6C341.779 331 336.313 327.533 329.646 323.2C323.046 318.867 314.879 313.467 305.146 307C301.546 304.6 298.746 303.733 296.746 304.4C294.813 305 293.546 306.867 292.946 310C292.079 314.2 291.446 318.5 291.046 322.9C290.646 327.233 290.146 330.8 289.546 333.6C288.879 336.467 288.046 338.667 287.046 340.2C286.046 341.667 284.479 342.4 282.346 342.4C279.946 342.4 278.246 341.533 277.246 339.8C276.246 338.067 275.546 335.467 275.146 332ZM284.146 326.8C282.346 326.8 280.946 326.367 279.946 325.5C279.013 324.567 278.546 322.8 278.546 320.2C278.546 318 278.946 316.5 279.746 315.7C280.613 314.9 281.946 314.6 283.746 314.8L284.146 326.8ZM278.146 295.2C276.946 295.067 275.979 294.667 275.246 294C274.513 293.333 274.146 291.867 274.146 289.6C274.146 287.067 274.513 285.433 275.246 284.7C276.046 283.967 277.479 283.667 279.546 283.8L278.146 295.2ZM350.546 302.4C347.346 302.4 344.813 301.567 342.946 299.9C341.079 298.233 340.146 296 340.146 293.2C340.146 289.4 340.979 286.6 342.646 284.8C344.313 282.933 346.746 282 349.946 282C353.479 282 356.146 282.833 357.946 284.5C359.813 286.1 360.746 288.6 360.746 292C360.746 295.267 359.879 297.833 358.146 299.7C356.479 301.5 353.946 302.4 350.546 302.4ZM447.059 337.6C446.192 337.6 445.359 337.433 444.559 337.1C443.759 336.767 442.992 336.267 442.259 335.6C441.725 335.067 441.259 334.4 440.859 333.6C440.459 332.8 440.092 331.7 439.759 330.3C439.492 328.833 439.259 326.833 439.059 324.3C438.859 321.767 438.659 318.467 438.459 314.4C438.392 312.733 438.325 311.133 438.259 309.6C438.192 308.067 438.125 306.567 438.059 305.1C437.992 303.833 437.925 302.6 437.859 301.4C437.859 300.133 437.825 298.9 437.759 297.7C437.692 295.967 437.625 294.3 437.559 292.7C437.559 291.1 437.492 289.533 437.359 288C437.359 287.4 437.325 286.8 437.259 286.2C437.259 285.6 437.259 285 437.259 284.4C437.259 283.733 437.225 283.133 437.159 282.6C437.159 281.933 437.125 281.3 437.059 280.7C437.059 280.033 437.025 279.4 436.959 278.8C436.959 278.133 436.925 277.5 436.859 276.9C436.725 273.567 436.559 270.167 436.359 266.7C436.225 263.167 436.059 259.467 435.859 255.6C435.659 251.533 434.692 248.333 432.959 246C431.292 243.667 429.192 241.833 426.659 240.5C424.125 239.1 421.425 237.867 418.559 236.8C415.759 235.733 413.125 234.467 410.659 233C408.192 231.533 406.159 229.533 404.559 227C403.025 224.4 402.259 220.933 402.259 216.6C402.259 212.933 402.825 209.933 403.959 207.6C405.092 205.2 406.892 203.433 409.359 202.3C411.892 201.167 415.259 200.6 419.459 200.6C418.859 207.6 419.059 212.367 420.059 214.9C421.125 217.367 422.659 218.6 424.659 218.6C426.859 218.6 428.525 217.467 429.659 215.2C430.792 212.867 431.392 208.067 431.459 200.8C433.259 200.8 435.125 200.8 437.059 200.8C438.992 200.8 440.859 200.8 442.659 200.8C442.459 206.733 442.459 211.3 442.659 214.5C442.925 217.633 443.492 219.8 444.359 221C445.225 222.2 446.459 222.8 448.059 222.8C449.459 222.8 450.659 222.233 451.659 221.1C452.725 219.9 453.525 217.733 454.059 214.6C454.592 211.467 454.859 206.933 454.859 201C463.792 201 470.992 201.1 476.459 201.3C481.925 201.433 486.059 201.767 488.859 202.3C491.725 202.767 493.625 203.567 494.559 204.7C495.559 205.767 496.059 207.267 496.059 209.2C496.059 211.267 495.192 212.833 493.459 213.9C491.792 214.9 489.592 215.667 486.859 216.2C484.192 216.667 481.325 217.133 478.259 217.6C475.259 218 472.359 218.633 469.559 219.5C466.825 220.3 464.525 221.567 462.659 223.3C460.859 225.033 459.859 227.5 459.659 230.7C458.459 248.5 457.525 263.467 456.859 275.6C456.192 287.667 455.625 297.533 455.159 305.2C454.759 312.8 454.392 318.7 454.059 322.9C453.725 327.1 453.325 330.167 452.859 332.1C452.392 333.967 451.792 335.267 451.059 336C450.659 336.467 450.059 336.867 449.259 337.2C448.525 337.467 447.792 337.6 447.059 337.6ZM477.059 249.8C474.192 249.8 471.625 248.833 469.359 246.9C467.159 244.967 466.059 242.2 466.059 238.6C466.059 234.867 467.059 231.867 469.059 229.6C471.059 227.333 474.192 226.2 478.459 226.2C481.792 226.2 484.492 227.3 486.559 229.5C488.625 231.633 489.659 234.2 489.659 237.2C489.659 241.6 488.625 244.8 486.559 246.8C484.559 248.8 481.392 249.8 477.059 249.8ZM450.659 315L450.059 300.6C457.992 300.267 464.092 300.133 468.359 300.2C472.625 300.267 475.559 300.767 477.159 301.7C478.825 302.633 479.659 304.2 479.659 306.4C479.659 309.067 478.859 310.967 477.259 312.1C475.725 313.167 472.859 313.867 468.659 314.2C464.525 314.467 458.525 314.733 450.659 315ZM442.659 260.6L442.459 275.8C433.859 275.733 427.225 275.567 422.559 275.3C417.892 275.033 414.625 274.333 412.759 273.2C410.959 272 410.059 270.067 410.059 267.4C410.059 264.667 411.092 262.8 413.159 261.8C415.292 260.733 418.759 260.2 423.559 260.2C428.359 260.133 434.725 260.267 442.659 260.6Z" fill="white"/>
<path d="M9.18859 437.6C9.18859 435.98 10.5586 435.17 13.2986 435.17L18.0386 435.26C18.2786 435.26 18.3986 435.38 18.3986 435.62C18.3986 436.04 18.1486 436.55 17.6486 437.15C17.1486 437.73 16.7286 438.02 16.3886 438.02L13.7186 437.81L9.36859 437.87C9.24859 437.87 9.18859 437.78 9.18859 437.6ZM41.0266 430.73C41.0266 430.37 41.1566 430.19 41.4166 430.19C41.8166 430.19 42.2266 430.28 42.6466 430.46C43.0666 430.62 43.5166 430.75 43.9966 430.85C45.5966 427.43 47.4366 425.2 49.5166 424.16C50.2366 423.8 50.9566 423.62 51.6766 423.62C53.0166 423.64 53.9166 423.96 54.3766 424.58C54.8566 425.2 55.0966 426 55.0966 426.98C55.0766 428.84 54.2766 430.31 52.6966 431.39C51.1166 432.45 49.1866 433.04 46.9066 433.16C46.3266 434.7 45.8766 436.34 45.5566 438.08C46.3366 437.78 47.3366 437.63 48.5566 437.63C48.7166 438.89 48.9966 439.79 49.3966 440.33C49.7966 440.87 50.2366 441.14 50.7166 441.14C51.2166 441.14 51.6266 441.02 51.9466 440.78C52.2866 440.54 52.5766 440.27 52.8166 439.97C53.0766 439.67 53.2866 439.4 53.4466 439.16C53.6266 438.92 53.7966 438.8 53.9566 438.8C54.2966 438.8 54.4666 439.1 54.4666 439.7C54.4666 440.9 54.1666 441.9 53.5666 442.7C52.9666 443.48 52.0466 443.87 50.8066 443.87C48.8666 443.87 47.4866 443.36 46.6666 442.34C47.1066 446.74 47.3266 449.36 47.3266 450.2C47.3266 451.7 46.8566 452.77 45.9166 453.41C45.1366 453.95 44.1366 454.22 42.9166 454.22C41.7166 454.22 40.8766 453.94 40.3966 453.38C39.9366 452.84 39.7066 452.19 39.7066 451.43C39.7066 446.61 40.3966 441.76 41.7766 436.88C42.2166 435.32 42.7166 433.86 43.2766 432.5C41.7766 431.84 41.0266 431.25 41.0266 430.73ZM44.0266 451.91C44.2666 451.91 44.4866 451.72 44.6866 451.34C44.8866 450.98 44.9866 450.59 44.9866 450.17C44.9866 448.79 44.7966 446.67 44.4166 443.81C43.9166 445.87 43.5766 447.92 43.3966 449.96C43.3566 450.4 43.3366 450.67 43.3366 450.77C43.3366 451.53 43.5666 451.91 44.0266 451.91ZM51.4366 426.59C51.0366 426.59 50.4866 426.97 49.7866 427.73C49.1066 428.49 48.4066 429.65 47.6866 431.21C49.1466 430.57 50.1066 430.08 50.5666 429.74C51.5066 429.08 51.9766 428.29 51.9766 427.37C51.9766 426.85 51.7966 426.59 51.4366 426.59ZM76.5664 446.09C74.5664 446.09 73.5664 444.22 73.5664 440.48C73.5664 438.44 73.8164 436.59 74.3164 434.93C75.0964 432.37 75.9764 431.09 76.9564 431.09C77.5364 431.09 77.9964 431.48 78.3364 432.26C78.6164 432.86 78.7464 433.45 78.7264 434.03C78.7264 434.83 78.4864 436.24 78.0064 438.26C77.5464 440.02 77.3164 441.11 77.3164 441.53C77.3164 441.95 77.4164 442.24 77.6164 442.4C77.8364 442.56 78.0864 442.64 78.3664 442.64C78.6664 442.64 79.0364 442.45 79.4764 442.07C79.9164 441.69 80.3564 441.28 80.7964 440.84C81.2364 440.38 81.6364 439.96 81.9964 439.58C82.3764 439.2 82.6364 439.01 82.7764 439.01C83.0564 439.01 83.1964 439.35 83.1964 440.03C83.1964 441.43 82.4864 442.8 81.0664 444.14C79.6664 445.46 78.1664 446.11 76.5664 446.09ZM77.7964 428.66C77.2564 427.86 76.9864 427 76.9864 426.08C76.9864 425.16 77.1264 424.4 77.4064 423.8C77.7064 423.18 77.9864 422.73 78.2464 422.45C78.5064 422.15 78.8064 422 79.1464 422C79.7064 422 80.2164 422.42 80.6764 423.26C81.1364 424.08 81.3664 424.77 81.3664 425.33C81.3664 426.37 80.9964 427.19 80.2564 427.79C79.5364 428.37 78.7164 428.66 77.7964 428.66ZM108.387 446.09C105.527 446.11 103.577 445.04 102.537 442.88C102.177 442.12 101.997 441.17 101.997 440.03C101.997 438.87 102.097 437.64 102.297 436.34C102.697 433.74 103.467 431.34 104.607 429.14C105.187 428.02 105.837 427.06 106.557 426.26C108.137 424.5 109.897 423.63 111.837 423.65C112.697 423.65 113.367 423.89 113.847 424.37C114.347 424.83 114.597 425.5 114.597 426.38C114.597 427.26 114.337 428.15 113.817 429.05C113.297 429.93 112.627 430.85 111.807 431.81C111.007 432.75 110.117 433.74 109.137 434.78C108.157 435.82 107.197 436.95 106.257 438.17V439.37C106.257 440.49 106.497 441.31 106.977 441.83C107.457 442.35 108.017 442.61 108.657 442.61C110.377 442.61 111.897 441.76 113.217 440.06C113.757 439.36 114.167 439.01 114.447 439.01C114.727 439.01 114.867 439.35 114.867 440.03C114.867 440.71 114.677 441.41 114.297 442.13C113.937 442.83 113.457 443.48 112.857 444.08C112.257 444.66 111.567 445.14 110.787 445.52C110.007 445.9 109.207 446.09 108.387 446.09ZM110.007 429.98C110.427 429.46 110.757 428.99 110.997 428.57C111.237 428.15 111.357 427.72 111.357 427.28C111.357 426.82 111.197 426.59 110.877 426.59C110.177 426.59 109.397 427.31 108.537 428.75C107.697 430.19 107.067 432.08 106.647 434.42C107.327 433.38 107.947 432.51 108.507 431.81C109.087 431.11 109.587 430.5 110.007 429.98ZM139.783 446.09C136.923 446.11 134.973 445.04 133.933 442.88C133.573 442.12 133.393 441.17 133.393 440.03C133.393 438.87 133.493 437.64 133.693 436.34C134.093 433.74 134.863 431.34 136.003 429.14C136.583 428.02 137.233 427.06 137.953 426.26C139.533 424.5 141.293 423.63 143.233 423.65C144.093 423.65 144.763 423.89 145.243 424.37C145.743 424.83 145.993 425.5 145.993 426.38C145.993 427.26 145.733 428.15 145.213 429.05C144.693 429.93 144.023 430.85 143.203 431.81C142.403 432.75 141.513 433.74 140.533 434.78C139.553 435.82 138.593 436.95 137.653 438.17V439.37C137.653 440.49 137.893 441.31 138.373 441.83C138.853 442.35 139.413 442.61 140.053 442.61C141.773 442.61 143.293 441.76 144.613 440.06C145.153 439.36 145.563 439.01 145.843 439.01C146.123 439.01 146.263 439.35 146.263 440.03C146.263 440.71 146.073 441.41 145.693 442.13C145.333 442.83 144.853 443.48 144.253 444.08C143.653 444.66 142.963 445.14 142.183 445.52C141.403 445.9 140.603 446.09 139.783 446.09ZM141.403 429.98C141.823 429.46 142.153 428.99 142.393 428.57C142.633 428.15 142.753 427.72 142.753 427.28C142.753 426.82 142.593 426.59 142.273 426.59C141.573 426.59 140.793 427.31 139.933 428.75C139.093 430.19 138.463 432.08 138.043 434.42C138.723 433.38 139.343 432.51 139.903 431.81C140.483 431.11 140.983 430.5 141.403 429.98ZM202.412 438.65C202.412 439.85 202.942 440.45 204.002 440.45C205.162 440.45 206.192 439.75 207.092 438.35C207.332 437.29 207.782 435.45 208.442 432.83C209.122 430.21 209.522 428.6 209.642 428C209.902 426.82 210.192 425.88 210.512 425.18C210.852 424.48 211.272 424.13 211.772 424.13C212.692 424.13 213.392 424.34 213.872 424.76C214.372 425.16 214.622 425.9 214.622 426.98C214.622 428.04 214.262 429.24 213.542 430.58C213.422 431.3 213.292 432.05 213.152 432.83C213.012 433.61 212.832 434.63 212.612 435.89C212.392 437.15 211.982 439.29 211.382 442.31C213.742 441.35 215.182 440.56 215.702 439.94C216.242 439.32 216.662 439.01 216.962 439.01C217.262 439.01 217.412 439.32 217.412 439.94C217.412 440.56 217.222 441.1 216.842 441.56C216.482 442.02 215.902 442.54 215.102 443.12C214.322 443.7 212.882 444.44 210.782 445.34C209.742 449.78 207.842 452.58 205.082 453.74C204.322 454.06 203.522 454.22 202.682 454.22C200.882 454.22 199.452 453.88 198.392 453.2C197.172 452.44 196.562 451.31 196.562 449.81C196.562 448.47 198.562 447.05 202.562 445.55C204.562 444.81 205.772 444.38 206.192 444.26C206.192 443.78 206.242 443.16 206.342 442.4C205.102 443.1 203.742 443.45 202.262 443.45C200.802 443.45 199.702 443.01 198.962 442.13C198.222 441.23 197.852 440 197.852 438.44C197.852 437.7 197.972 436.91 198.212 436.07C198.472 435.23 198.752 434.38 199.052 433.52C199.372 432.64 199.652 431.78 199.892 430.94C200.152 430.1 200.282 429.32 200.282 428.6C200.282 427.26 199.872 426.59 199.052 426.59C198.772 426.59 198.512 426.67 198.272 426.83C198.052 426.99 197.822 427.16 197.582 427.34C197.362 427.52 197.132 427.69 196.892 427.85C196.652 428.01 196.372 428.09 196.052 428.09C195.752 428.09 195.602 427.82 195.602 427.28C195.602 426.18 196.112 425.28 197.132 424.58C198.112 423.86 199.282 423.5 200.642 423.5C202.002 423.5 203.022 424 203.702 425C204.222 425.74 204.482 426.58 204.482 427.52C204.482 428.46 204.372 429.37 204.152 430.25C203.932 431.11 203.692 432 203.432 432.92C203.192 433.84 202.962 434.78 202.742 435.74C202.522 436.68 202.412 437.65 202.412 438.65ZM203.492 451.52C204.292 450.86 204.972 449.46 205.532 447.32C204.472 447.7 203.572 448.01 202.832 448.25C202.092 448.49 201.482 448.71 201.002 448.91C200.522 449.11 200.172 449.3 199.952 449.48C199.732 449.68 199.622 449.91 199.622 450.17C199.622 450.67 199.922 451.08 200.522 451.4C201.122 451.72 201.692 451.88 202.232 451.88C202.772 451.9 203.192 451.78 203.492 451.52ZM248.045 443.45C246.465 445.31 244.565 446.24 242.345 446.24C240.145 446.24 238.495 445.68 237.395 444.56C236.295 443.42 235.755 442.01 235.775 440.33C235.755 437.95 236.505 435.9 238.025 434.18C239.545 432.46 241.535 431.6 243.995 431.6C245.115 431.6 246.015 431.74 246.695 432.02C247.875 432.5 248.465 432.95 248.465 433.37C248.465 433.69 247.635 433.86 245.975 433.88C244.335 433.88 242.955 434.45 241.835 435.59C240.735 436.71 240.185 438.13 240.185 439.85C240.185 440.75 240.445 441.51 240.965 442.13C241.505 442.73 242.255 443.03 243.215 443.03C244.195 443.03 245.005 442.83 245.645 442.43C244.225 441.47 243.515 440.08 243.515 438.26C243.495 437.3 243.835 436.43 244.535 435.65C245.255 434.85 246.165 434.45 247.265 434.45C248.385 434.43 249.185 434.73 249.665 435.35C250.145 435.97 250.385 436.77 250.385 437.75C250.385 438.71 250.155 439.73 249.695 440.81H249.875C250.755 440.79 251.515 440.48 252.155 439.88C252.395 439.64 252.595 439.43 252.755 439.25C252.935 439.07 253.115 438.98 253.295 438.98C253.575 438.98 253.715 439.31 253.715 439.97C253.715 441.19 253.355 442.11 252.635 442.73C251.915 443.33 251.115 443.63 250.235 443.63C249.375 443.63 248.645 443.57 248.045 443.45ZM247.775 439.97C248.115 439.25 248.285 438.55 248.285 437.87C248.285 437.19 248.065 436.85 247.625 436.85C247.445 436.85 247.295 436.98 247.175 437.24C247.055 437.5 246.995 437.75 246.995 437.99C246.995 438.79 247.255 439.45 247.775 439.97ZM281.544 433.34C281.544 432 282.584 431.33 284.664 431.33C285.184 431.33 285.504 431.5 285.624 431.84C285.764 432.18 285.834 432.7 285.834 433.4C285.834 434.38 285.614 435.9 285.174 437.96C284.734 440.02 284.524 441.41 284.544 442.13C284.544 442.47 284.654 442.64 284.874 442.64C285.174 442.64 285.544 442.45 285.984 442.07C286.424 441.69 286.864 441.28 287.304 440.84C287.744 440.38 288.144 439.96 288.504 439.58C288.884 439.2 289.144 439.01 289.284 439.01C289.564 439.01 289.704 439.35 289.704 440.03C289.704 441.43 289.014 442.78 287.634 444.08C285.314 445.44 283.844 446.12 283.224 446.12C283.164 446.12 283.114 446.11 283.074 446.09C282.314 446.09 281.774 445.84 281.454 445.34C281.154 444.84 280.964 444.21 280.884 443.45C280.484 444.19 279.934 444.83 279.234 445.37C278.534 445.89 277.734 446.15 276.834 446.15C275.254 446.15 274.034 445.85 273.174 445.25C272.334 444.65 271.914 443.76 271.914 442.58C271.914 442.06 271.984 441.58 272.124 441.14C272.284 440.7 272.534 440.16 272.874 439.52L273.744 432.14C274.364 431.66 275.254 431.42 276.414 431.42C277.334 431.42 277.854 432.02 277.974 433.22C278.074 434.2 278.024 435.08 277.824 435.86C277.644 436.62 277.394 437.59 277.074 438.77C276.754 439.93 276.594 440.96 276.594 441.86C276.594 442.58 277.044 442.94 277.944 442.94C278.924 442.94 279.774 442.08 280.494 440.36C281.054 439.04 281.434 437.57 281.634 435.95C281.614 435.79 281.594 435.59 281.574 435.35C281.574 435.09 281.564 434.84 281.544 434.6C281.544 434.36 281.544 434.12 281.544 433.88V433.34ZM312.591 440.96L312.771 444.62C312.771 445.1 312.521 445.53 312.021 445.91C311.521 446.29 310.841 446.48 309.981 446.48C309.481 446.48 309.131 446.22 308.931 445.7C308.751 445.18 308.661 444.42 308.661 443.42C308.661 441.32 308.761 439.68 308.961 438.5C309.181 437.3 309.601 436.09 310.221 434.87C309.301 433.99 308.841 433.23 308.841 432.59C308.841 431.25 309.561 430.58 311.001 430.58C311.741 430.58 312.391 430.97 312.951 431.75C313.351 432.29 313.641 432.92 313.821 433.64C314.101 433.74 314.451 433.79 314.871 433.79C315.451 433.79 316.121 433.6 316.881 433.22L317.661 432.83C317.901 432.71 318.111 432.65 318.291 432.65C318.871 432.65 319.451 433.5 320.031 435.2C319.851 435.98 319.651 436.73 319.431 437.45C319.231 438.17 318.991 439.04 318.711 440.06C318.431 441.08 318.281 441.77 318.261 442.13C318.261 442.47 318.371 442.64 318.591 442.64C318.891 442.64 319.261 442.45 319.701 442.07C320.141 441.69 320.581 441.28 321.021 440.84C321.461 440.38 321.861 439.96 322.221 439.58C322.601 439.2 322.861 439.01 323.001 439.01C323.281 439.01 323.421 439.35 323.421 440.03C323.421 441.41 322.811 442.77 321.591 444.11C320.391 445.45 319.011 446.11 317.451 446.09C316.531 446.09 315.841 445.72 315.381 444.98C314.921 444.24 314.681 443.34 314.661 442.28C314.661 440.18 315.131 438.19 316.071 436.31C315.631 436.49 315.131 436.58 314.571 436.58C314.031 436.58 313.641 436.56 313.401 436.52C313.221 437.28 313.041 438.05 312.861 438.83C312.681 439.59 312.591 440.3 312.591 440.96ZM388.993 441.14C389.513 440.76 389.983 440.3 390.403 439.76C390.823 439.2 391.173 438.92 391.453 438.92C391.753 438.92 391.903 439.36 391.903 440.24C391.903 441.1 391.653 441.92 391.153 442.7C390.673 443.46 390.033 444.1 389.233 444.62C387.593 445.7 385.653 446.24 383.413 446.24C380.693 446.24 378.583 445.56 377.083 444.2C375.583 442.84 374.833 440.95 374.833 438.53C374.833 435.55 375.553 432.72 376.993 430.04C377.473 429.16 378.013 428.35 378.613 427.61C378.153 427.07 377.783 426.51 377.503 425.93C377.243 425.33 377.113 424.88 377.113 424.58C377.113 424.04 377.313 423.77 377.713 423.77C377.993 423.79 378.313 423.98 378.673 424.34L379.603 425.24C379.843 425.48 380.093 425.68 380.353 425.84C382.333 424.16 384.463 423.32 386.743 423.32C389.043 423.32 390.533 423.96 391.213 425.24C391.453 425.72 391.573 426.31 391.573 427.01C391.573 428.07 391.113 428.96 390.193 429.68C389.273 430.4 388.033 430.76 386.473 430.76C384.933 430.76 383.333 430.44 381.673 429.8C380.253 432.22 379.543 434.75 379.543 437.39C379.543 441.05 381.003 442.88 383.923 442.88C385.723 442.88 387.413 442.3 388.993 441.14ZM383.113 427.94C384.133 428.28 385.243 428.45 386.443 428.45C387.643 428.45 388.243 428.12 388.243 427.46C388.243 426.68 387.753 426.29 386.773 426.29C385.433 426.29 384.213 426.84 383.113 427.94ZM428.818 438.92C429.178 438.92 429.358 439.38 429.358 440.3C429.358 440.8 429.148 441.41 428.728 442.13C428.308 442.83 427.758 443.48 427.078 444.08C426.418 444.66 425.678 445.14 424.858 445.52C424.038 445.9 423.238 446.09 422.458 446.09C421.398 446.09 420.688 445.16 420.328 443.3C419.808 444.16 419.128 444.87 418.288 445.43C417.448 445.97 416.318 446.24 414.898 446.24C413.498 446.24 412.368 445.8 411.508 444.92C410.648 444.04 410.228 442.97 410.248 441.71C410.248 438.31 411.378 435.63 413.638 433.67C414.598 432.85 415.488 432.31 416.308 432.05C417.148 431.79 418.028 431.66 418.948 431.66C419.868 431.66 420.618 431.82 421.198 432.14C421.478 431.56 421.798 431.27 422.158 431.27C422.858 431.27 423.518 431.58 424.138 432.2C424.778 432.8 425.098 433.37 425.098 433.91C424.818 434.57 424.408 435.36 423.868 436.28C423.708 437.2 423.628 438.49 423.628 440.15C423.628 441.81 423.838 442.64 424.258 442.64C424.778 442.64 426.038 441.6 428.038 439.52C428.398 439.12 428.658 438.92 428.818 438.92ZM414.658 440.72C414.658 442.26 415.228 443.03 416.368 443.03C417.588 443.01 418.598 442.36 419.398 441.08C419.678 440.64 419.908 440.1 420.088 439.46C420.088 437.22 420.288 435.3 420.688 433.7C419.068 434.02 417.658 434.8 416.458 436.04C415.258 437.28 414.658 438.84 414.658 440.72ZM452.239 440.96L452.419 444.62C452.419 445.1 452.169 445.53 451.669 445.91C451.169 446.29 450.489 446.48 449.629 446.48C449.129 446.48 448.779 446.22 448.579 445.7C448.399 445.18 448.309 444.42 448.309 443.42C448.309 441.32 448.409 439.68 448.609 438.5C448.829 437.3 449.249 436.09 449.869 434.87C448.949 433.99 448.489 433.23 448.489 432.59C448.489 431.25 449.209 430.58 450.649 430.58C451.389 430.58 452.039 430.97 452.599 431.75C452.999 432.29 453.289 432.92 453.469 433.64C453.749 433.74 454.099 433.79 454.519 433.79C455.099 433.79 455.769 433.6 456.529 433.22L457.309 432.83C457.549 432.71 457.759 432.65 457.939 432.65C458.519 432.65 459.099 433.5 459.679 435.2C459.499 435.98 459.299 436.73 459.079 437.45C458.879 438.17 458.639 439.04 458.359 440.06C458.079 441.08 457.929 441.77 457.909 442.13C457.909 442.47 458.019 442.64 458.239 442.64C458.539 442.64 458.909 442.45 459.349 442.07C459.789 441.69 460.229 441.28 460.669 440.84C461.109 440.38 461.509 439.96 461.869 439.58C462.249 439.2 462.509 439.01 462.649 439.01C462.929 439.01 463.069 439.35 463.069 440.03C463.069 441.41 462.459 442.77 461.239 444.11C460.039 445.45 458.659 446.11 457.099 446.09C456.179 446.09 455.489 445.72 455.029 444.98C454.569 444.24 454.329 443.34 454.309 442.28C454.309 440.18 454.779 438.19 455.719 436.31C455.279 436.49 454.779 436.58 454.219 436.58C453.679 436.58 453.289 436.56 453.049 436.52C452.869 437.28 452.689 438.05 452.509 438.83C452.329 439.59 452.239 440.3 452.239 440.96ZM482.89 444.38C482.67 443.84 482.51 443.22 482.41 442.52C482.31 441.8 482.26 440.8 482.26 439.52C482.26 438.24 482.5 436.51 482.98 434.33H481.63C481.39 434.33 481.27 434.23 481.27 434.03C481.27 433.55 481.31 433.16 481.39 432.86C481.49 432.54 481.71 432.18 482.05 431.78H482.77C483.05 431.78 483.35 431.77 483.67 431.75C484.63 428.67 485.61 427.13 486.61 427.13C487.41 427.15 487.97 427.66 488.29 428.66C488.37 428.94 488.46 429.24 488.56 429.56L487.33 431.72C488.73 431.76 489.61 431.78 489.97 431.78C490.35 431.78 490.55 431.82 490.57 431.9C490.61 431.96 490.63 432.06 490.63 432.2C490.63 432.56 490.54 433.01 490.36 433.55C490.2 434.09 490.01 434.35 489.79 434.33L486.79 434.18C486.37 436.62 486.16 438.64 486.16 440.24C486.16 441.84 486.39 442.64 486.85 442.64C487.23 442.64 487.92 442.33 488.92 441.71C489.92 441.07 490.64 440.46 491.08 439.88C491.52 439.3 491.88 439.01 492.16 439.01C492.44 439.01 492.58 439.35 492.58 440.03C492.58 440.71 492.34 441.41 491.86 442.13C491.38 442.83 490.77 443.48 490.03 444.08C489.31 444.66 488.5 445.14 487.6 445.52C486.72 445.9 485.95 446.09 485.29 446.09C484.63 446.09 484.12 445.94 483.76 445.64C483.42 445.32 483.13 444.9 482.89 444.38Z" fill="white"/>
</svg>
