<svg width="805" height="127" viewBox="0 0 805 127" fill="none" xmlns="http://www.w3.org/2000/svg">
<rect width="805" height="127" fill="#1E1E1E"/>
<path d="M101.376 10.248C100.181 13.9173 97.8773 16.7333 94.464 18.696C91.0507 20.6587 86.784 21.64 81.664 21.64C77.6533 21.64 73.3867 21.2987 68.864 20.616C64.4267 19.848 60.032 18.9093 55.68 17.8C54.7413 20.1893 54.016 22.7067 53.504 25.352C53.0773 27.912 52.608 30.728 52.096 33.8C52.1813 33.8 52.5653 33.8427 53.248 33.928C54.016 34.0133 54.7413 34.0987 55.424 34.184C56.192 34.2693 56.576 34.312 56.576 34.312C58.2827 34.568 59.9893 34.696 61.696 34.696C62.8053 34.696 63.7867 34.6107 64.64 34.44C65.152 34.3547 65.8347 34.0133 66.688 33.416C67.6267 32.7333 68.096 32.3493 68.096 32.264V29.704C68.096 28.7653 68.2667 28.296 68.608 28.296C68.864 28.296 69.248 28.5093 69.76 28.936C70.4427 29.3627 70.8267 29.832 70.912 30.344C71.0827 30.856 71.168 31.624 71.168 32.648C71.168 33.8427 70.4853 34.824 69.12 35.592C67.84 36.36 66.2613 36.9147 64.384 37.256C62.5067 37.5973 60.7147 37.768 59.008 37.768C58.4107 37.768 57.8133 37.768 57.216 37.768C56.6187 37.6827 56.1067 37.5973 55.68 37.512L51.584 37.384C51.584 37.5547 51.5413 37.7253 51.456 37.896C51.456 38.0667 51.456 38.28 51.456 38.536C50.432 44.168 49.152 49.8853 47.616 55.688C46.1653 61.4907 44.16 66.7813 41.6 71.56C39.04 76.3387 35.712 79.9653 31.616 82.44C29.824 83.464 28.1173 84.5307 26.496 85.64C24.96 86.7493 23.2107 87.688 21.248 88.456C19.3707 89.224 16.9387 89.608 13.952 89.608C10.112 89.608 7.21067 88.8827 5.248 87.432C3.37067 86.0667 2.09067 84.104 1.408 81.544C0.810667 78.984 0.512 75.9547 0.512 72.456C0.512 71.8587 0.64 70.7493 0.896 69.128C1.23733 67.5067 1.57867 65.8853 1.92 64.264C2.34667 62.6427 2.73067 61.5333 3.072 60.936C3.66933 59.5707 4.69333 57.864 6.144 55.816C7.68 53.768 9.42933 51.72 11.392 49.672C13.3547 47.624 15.36 45.9173 17.408 44.552C19.456 43.1867 21.3333 42.504 23.04 42.504C23.7227 42.504 24.4907 43.0587 25.344 44.168C26.2827 45.192 27.0933 46.3867 27.776 47.752C28.4587 49.1173 28.8 50.2693 28.8 51.208C28.8 51.5493 28.6293 52.36 28.288 53.64C28.032 54.8347 27.4773 56.2 26.624 57.736C25.7707 59.1867 24.4907 60.4667 22.784 61.576C22.4427 61.6613 22.1013 61.704 21.76 61.704C21.504 61.704 21.2053 61.704 20.864 61.704C18.4747 61.704 17.28 61.2347 17.28 60.296C17.28 59.528 18.048 58.8453 19.584 58.248C21.12 57.5653 22.272 57.1813 23.04 57.096C23.8933 57.0107 24.448 56.6693 24.704 56.072C24.96 55.3893 25.088 53.9387 25.088 51.72C25.088 51.2933 24.96 50.6533 24.704 49.8C24.5333 48.9467 24.2773 48.136 23.936 47.368C23.68 46.6 23.3813 46.216 23.04 46.216C21.5893 46.216 20.1387 46.856 18.688 48.136C17.3227 49.416 16.0427 50.9947 14.848 52.872C13.6533 54.7493 12.5867 56.6267 11.648 58.504C10.7093 60.296 10.0267 61.7893 9.6 62.984C9.42933 63.496 9.13067 64.3493 8.704 65.544C8.27733 66.6533 7.89333 67.8053 7.552 69C7.21067 70.1093 7.04 70.9627 7.04 71.56C7.04 72.6693 6.99733 73.8213 6.912 75.016C6.912 76.1253 6.912 77.1493 6.912 78.088C6.912 80.392 7.296 82.2693 8.064 83.72C8.91733 85.1707 10.88 85.896 13.952 85.896C16.5973 85.896 18.7733 85.4267 20.48 84.488C22.272 83.464 23.808 82.2693 25.088 80.904C26.4533 79.4533 27.776 78.0453 29.056 76.68C34.2613 71.3893 38.3573 65.4587 41.344 58.888C44.3307 52.232 46.464 45.0213 47.744 37.256V37H46.976C46.72 37.0853 46.464 37.1707 46.208 37.256C46.0373 37.256 45.824 37.256 45.568 37.256C45.1413 37.256 44.672 37.256 44.16 37.256C43.648 37.1707 43.136 37.128 42.624 37.128C42.0267 37.128 41.344 37.2133 40.576 37.384C39.8933 37.5547 39.0827 37.9387 38.144 38.536C38.0587 38.6213 37.76 39.0053 37.248 39.688C36.736 40.3707 36.48 40.7973 36.48 40.968V41.864C36.48 42.888 36.7787 43.6987 37.376 44.296C37.888 44.808 38.144 45.3627 38.144 45.96C38.144 46.5573 37.888 47.0693 37.376 47.496C36.9493 47.9227 36.4373 48.136 35.84 48.136C35.2427 48.136 34.7307 47.9227 34.304 47.496C33.4507 46.5573 32.7253 45.5333 32.128 44.424C31.616 43.3147 31.36 41.992 31.36 40.456C31.36 39.5173 31.744 38.7067 32.512 38.024C33.3653 37.256 33.9627 36.7867 34.304 36.616C36.5227 35.08 38.7413 34.312 40.96 34.312C43.1787 34.2267 45.6533 33.9707 48.384 33.544C48.9813 30.3013 49.6213 27.3573 50.304 24.712C51.072 22.0667 52.0107 19.592 53.12 17.288C48.8533 16.0933 44.7147 14.856 40.704 13.576C36.6933 12.296 33.0667 11.1867 29.824 10.248C28.032 9.65066 26.496 9.096 25.216 8.584C24.0213 7.98666 22.144 7.688 19.584 7.688C17.7067 7.688 15.8293 7.944 13.952 8.45599C12.16 8.88266 11.264 9.99199 11.264 11.784C11.264 12.296 11.2213 12.8933 11.136 13.576C11.136 14.2587 11.136 14.9413 11.136 15.624C11.136 17.2453 11.3493 18.9093 11.776 20.616C12.2027 22.2373 13.0987 23.6453 14.464 24.84C15.8293 25.9493 17.9627 26.5893 20.864 26.76C22.0587 26.8453 22.9973 26.5893 23.68 25.992C24.448 25.3947 25.088 24.7973 25.6 24.2C25.9413 23.3467 26.5813 22.92 27.52 22.92C28.3733 22.92 28.8 23.5173 28.8 24.712C28.8 24.968 28.7573 25.224 28.672 25.48C28.672 25.736 28.6293 26.0347 28.544 26.376C27.6907 27.4 26.6667 28.3813 25.472 29.32C24.3627 30.1733 22.8267 30.6 20.864 30.6C19.4133 30.6 17.7493 30.344 15.872 29.832C14.08 29.2347 12.3307 28.2107 10.624 26.76C8.91733 25.224 7.552 23.1333 6.528 20.488C5.58933 17.7573 5.248 14.3013 5.504 10.12C5.67467 8.41333 6.31467 6.792 7.424 5.256C8.61867 3.72 10.0693 2.48266 11.776 1.544C13.568 0.519997 15.3173 0.00799561 17.024 0.00799561C18.3893 0.00799561 20.096 0.221329 22.144 0.647995C24.192 1.07466 26.2827 1.62933 28.416 2.312C30.6347 2.90933 32.64 3.50666 34.432 4.104C36.3093 4.70133 37.76 5.128 38.784 5.384C41.5147 6.23733 44.288 7.304 47.104 8.584C49.92 9.77867 52.8213 11.016 55.808 12.296C56.064 11.784 56.448 11.1867 56.96 10.504C57.8987 9.224 58.8373 8.584 59.776 8.584C60.2027 8.584 60.416 8.79733 60.416 9.224C60.416 9.992 59.8187 11.016 58.624 12.296C58.4533 12.552 58.24 12.808 57.984 13.064C61.824 14.6 65.792 15.9227 69.888 17.032C74.0693 18.1413 78.3787 18.696 82.816 18.696C91.008 18.696 96.128 15.8373 98.176 10.12C98.2613 7.90133 98.7307 6.792 99.584 6.792C100.011 6.792 100.395 7.13333 100.736 7.81599C101.163 8.49866 101.376 9.30933 101.376 10.248ZM83.324 60.936C83.324 62.728 82.94 65.0747 82.172 67.976C81.404 70.8773 80.38 73.608 79.1 76.168C77.9053 78.8133 76.54 80.776 75.004 82.056C73.5533 83.2507 72.1453 84.104 70.78 84.616C69.4147 85.0427 68.3053 85.4693 67.452 85.896C67.1107 85.9813 66.7267 86.0667 66.3 86.152C65.9587 86.3227 65.5747 86.408 65.148 86.408C63.4413 86.408 62.1187 85.9387 61.18 85C60.8387 84.6587 60.284 84.3173 59.516 83.976C58.8333 83.6347 58.1933 83.0373 57.596 82.184C56.9987 81.3307 56.7 79.9227 56.7 77.96C56.7 75.912 56.956 73.9493 57.468 72.072C55.932 70.28 55.164 68.3173 55.164 66.184C55.164 64.904 55.4627 63.6667 56.06 62.472C57.6813 59.4 59.7293 57.0107 62.204 55.304C64.6787 53.5973 67.0253 52.4027 69.244 51.72C71.548 51.0373 73.1267 50.696 73.98 50.696C77.1373 50.696 79.484 51.72 81.02 53.768C82.556 55.816 83.324 58.2053 83.324 60.936ZM78.076 61.576C78.076 59.6133 77.3933 57.992 76.028 56.712C74.748 55.432 73.1267 54.792 71.164 54.792C69.5427 54.792 67.8787 55.304 66.172 56.328C64.5507 57.2667 63.1427 58.4613 61.948 59.912C60.7533 61.3627 59.9853 62.7707 59.644 64.136C59.5587 64.648 59.4733 65.1173 59.388 65.544C59.388 65.9707 59.388 66.3973 59.388 66.824C60.3267 64.776 61.308 63.0693 62.332 61.704C63.4413 60.3387 64.252 59.4853 64.764 59.144C65.1907 58.8027 65.7453 58.632 66.428 58.632C67.3667 58.632 67.836 58.888 67.836 59.4C67.836 59.7413 67.3667 60.3813 66.428 61.32C65.5747 62.1733 64.5933 63.3253 63.484 64.776C62.3747 66.1413 61.436 67.848 60.668 69.896C61.3507 70.7493 62.2467 71.3893 63.356 71.816C64.5507 72.1573 65.7027 72.328 66.812 72.328C68.0067 72.328 69.116 72.1147 70.14 71.688C71.2493 71.176 71.9747 70.4933 72.316 69.64C72.4013 69.384 72.444 69.1707 72.444 69C72.5293 68.744 72.572 68.5307 72.572 68.36C72.572 67.5067 72.188 66.9947 71.42 66.824C70.7373 66.568 70.0547 66.4827 69.372 66.568H69.116C68.1773 66.568 67.708 66.3547 67.708 65.928C67.708 65.672 67.7933 65.416 67.964 65.16C68.22 64.904 68.4333 64.6907 68.604 64.52C69.116 64.008 69.6707 63.752 70.268 63.752C71.1213 63.752 72.06 64.3067 73.084 65.416C74.0227 66.696 74.492 67.9333 74.492 69.128C74.492 70.664 73.724 71.8587 72.188 72.712C70.7373 73.5653 69.116 74.1627 67.324 74.504C65.532 74.8453 64.1667 75.016 63.228 75.016C61.8627 75.016 60.7533 74.7173 59.9 74.12C59.8147 74.2907 59.772 74.6747 59.772 75.272C59.772 77.6613 60.412 79.2827 61.692 80.136C62.972 80.904 64.0387 81.5013 64.892 81.928C65.404 82.0987 65.8307 82.184 66.172 82.184C67.3667 82.184 68.604 81.672 69.884 80.648C71.2493 79.624 72.444 78.216 73.468 76.424C74.236 75.0587 74.9613 73.4373 75.644 71.56C76.3267 69.6827 76.8813 67.848 77.308 66.056C77.82 64.1787 78.076 62.6853 78.076 61.576ZM126.484 82.568C124.692 83.7627 122.985 84.36 121.364 84.36C118.975 84.36 116.884 83.2507 115.092 81.032C113.3 78.728 111.465 76.0827 109.588 73.096C109.417 72.84 109.247 72.6267 109.076 72.456C108.991 72.2 108.863 71.944 108.692 71.688C107.668 73.0533 106.729 74.4187 105.876 75.784C105.023 77.064 104.255 78.1307 103.572 78.984C102.121 80.9467 100.415 82.3973 98.452 83.336C96.4893 84.2747 94.5693 84.744 92.692 84.744C90.8147 84.744 89.1933 84.3173 87.828 83.464C86.4627 82.5253 85.78 81.288 85.78 79.752C85.78 78.8133 86.2067 78.344 87.06 78.344C87.4867 78.344 88.0413 78.5573 88.724 78.984C89.4067 79.4107 90.1747 80.1787 91.028 81.288C91.4547 81.7147 91.924 81.928 92.436 81.928C93.6307 81.928 95.124 81.2027 96.916 79.752C98.708 78.3013 100.159 76.808 101.268 75.272C101.951 74.3333 102.804 73.1387 103.828 71.688C104.852 70.2373 105.919 68.7013 107.028 67.08C106.26 64.3493 105.748 61.7467 105.492 59.272C105.236 56.712 104.895 54.5787 104.468 52.872C103.7 49.6293 101.609 47.752 98.196 47.24C97.3427 47.0693 96.6173 46.8133 96.02 46.472C95.4227 46.1307 94.8253 45.96 94.228 45.96C93.716 45.96 93.2467 46.1733 92.82 46.6C92.1373 47.2827 91.54 48.136 91.028 49.16C90.516 50.0987 90.388 51.0373 90.644 51.976C90.9 52.6587 91.2413 53.6827 91.668 55.048C92.0947 56.4133 92.6493 57.096 93.332 57.096C94.2707 57.2667 95.252 57.0533 96.276 56.456C97.3853 55.7733 98.3667 55.2613 99.22 54.92C99.9027 54.664 100.457 54.536 100.884 54.536C101.908 54.536 102.42 54.92 102.42 55.688C102.42 56.6267 101.78 57.3093 100.5 57.736C99.22 58.1627 98.1107 58.76 97.172 59.528C96.2333 60.2107 95.0813 60.4667 93.716 60.296C91.5827 59.9547 89.876 58.9733 88.596 57.352C87.4013 55.6453 86.804 53.5973 86.804 51.208C86.804 48.4773 87.9133 46.0027 90.132 43.784C91.2413 42.6747 92.308 41.9067 93.332 41.48C94.4413 41.0533 95.636 40.84 96.916 40.84C97.3427 40.84 97.812 40.8827 98.324 40.968C98.836 40.968 99.348 41.0107 99.86 41.096C102.335 41.5227 104.297 42.2907 105.748 43.4C107.199 44.5093 108.351 46.216 109.204 48.52C109.716 49.8 110.1 51.5493 110.356 53.768C110.697 55.9013 111.124 58.1627 111.636 60.552C112.404 59.4427 113.129 58.504 113.812 57.736C114.495 56.8827 115.049 56.2 115.476 55.688C117.865 52.872 119.401 50.7387 120.084 49.288C120.852 47.8373 121.321 46.5573 121.492 45.448C121.663 44.3387 122.047 43.4853 122.644 42.888C123.327 42.2053 123.881 41.864 124.308 41.864C124.991 41.864 125.332 42.248 125.332 43.016C125.332 44.1253 124.82 46.1307 123.796 49.032C122.772 51.9333 120.681 55.2613 117.524 59.016C116.329 60.552 114.793 62.7707 112.916 65.672C113.257 67.5493 113.94 69.3413 114.964 71.048C116.415 73.4373 117.695 75.656 118.804 77.704C119.999 79.752 121.407 80.776 123.028 80.776C124.137 80.776 125.204 80.392 126.228 79.624C127.167 78.9413 127.977 78.6 128.66 78.6C129.257 78.6 129.556 78.8133 129.556 79.24C129.556 79.5813 129.343 80.0507 128.916 80.648C128.489 81.16 127.679 81.8 126.484 82.568ZM230 77.576C228.976 78.6 227.397 80.0507 225.264 81.928C223.216 83.72 221.04 85.4267 218.736 87.048C216.517 88.6693 214.64 89.6933 213.104 90.12C211.312 90.632 209.691 91.1867 208.24 91.784C206.789 92.3813 205.211 92.8933 203.504 93.32C201.797 93.832 199.664 94.088 197.104 94.088C193.52 94.088 189.68 93.448 185.584 92.168C181.488 90.9733 177.648 89.48 174.064 87.688C170.48 85.9813 167.579 84.3173 165.36 82.696C160.923 79.368 157.509 74.888 155.12 69.256C152.816 63.5387 151.664 56.84 151.664 49.16C151.664 47.0267 151.877 44.7227 152.304 42.248C152.731 39.688 153.243 37.2987 153.84 35.08C154.437 32.776 155.035 30.9413 155.632 29.576C157.424 25.48 159.6 21.4693 162.16 17.544C164.805 13.6187 168.219 10.3333 172.4 7.688C174.619 6.23733 177.435 4.74399 180.848 3.20799C184.261 1.58666 188.741 0.775993 194.288 0.775993C195.056 0.775993 195.867 0.818662 196.72 0.903999C197.573 0.903999 198.427 0.946665 199.28 1.032C203.973 1.544 208.112 2.99466 211.696 5.384C215.365 7.77333 218.224 10.2907 220.272 12.936C221.211 14.1307 222.021 15.7093 222.704 17.672C223.387 19.6347 223.728 21.7253 223.728 23.944C223.728 24.968 223.643 25.992 223.472 27.016C223.387 28.04 223.131 29.064 222.704 30.088C221.68 33.2453 220.272 36.1893 218.48 38.92C216.773 41.6507 214.64 43.8693 212.08 45.576C209.52 47.1973 206.448 48.008 202.864 48.008C199.707 48.008 197.275 47.7947 195.568 47.368C193.861 46.9413 192.453 46.2587 191.344 45.32C190.235 44.296 188.955 42.9307 187.504 41.224C186.309 39.7733 185.499 38.152 185.072 36.36C184.645 34.4827 184.432 32.7333 184.432 31.112C184.432 29.4907 184.432 28.3387 184.432 27.656C184.432 25.608 185.285 23.56 186.992 21.512C188.784 19.3787 190.875 17.5867 193.264 16.136C195.739 14.6853 197.915 13.96 199.792 13.96C201.499 13.96 202.864 14.6427 203.888 16.008C204.912 17.288 205.637 18.7387 206.064 20.36C206.576 21.9813 206.832 23.2613 206.832 24.2C206.832 25.48 206.661 26.9307 206.32 28.552C205.979 30.1733 204.827 31.7093 202.864 33.16C202.523 33.5013 202.181 33.672 201.84 33.672C201.243 33.672 200.944 33.2453 200.944 32.392C200.944 31.9653 201.072 31.4533 201.328 30.856C201.584 30.2587 202.011 29.7467 202.608 29.32C203.291 28.808 203.717 28.2107 203.888 27.528C204.059 26.8453 204.144 26.2053 204.144 25.608C204.144 25.096 204.101 24.6267 204.016 24.2C204.016 23.688 204.016 23.2613 204.016 22.92C204.016 22.2373 203.632 21.2987 202.864 20.104C202.096 18.824 201.072 18.184 199.792 18.184C198.512 18.184 196.976 18.696 195.184 19.72C193.477 20.6587 191.984 21.8533 190.704 23.304C189.424 24.7547 188.784 26.2053 188.784 27.656C188.784 28.5093 189.296 29.832 190.32 31.624C191.429 33.416 192.667 35.1653 194.032 36.872C195.141 38.152 195.909 39.176 196.336 39.944C196.848 40.712 197.531 41.2667 198.384 41.608C199.323 41.864 201.029 41.992 203.504 41.992C207.771 41.992 211.013 40.712 213.232 38.152C215.451 35.5067 217.243 32.3493 218.608 28.68C219.12 26.9733 219.376 25.352 219.376 23.816C219.376 22.1093 219.12 20.5307 218.608 19.08C218.181 17.6293 217.627 16.4773 216.944 15.624C215.237 13.32 213.232 11.6133 210.928 10.504C208.624 9.30933 205.467 8.54133 201.456 8.2C200.688 8.11466 199.92 8.072 199.152 8.072C198.469 7.98666 197.787 7.94399 197.104 7.94399C191.984 7.94399 187.888 8.71199 184.816 10.248C181.829 11.784 179.227 13.192 177.008 14.472C173.168 16.776 170.096 19.72 167.792 23.304C165.488 26.888 163.483 30.5573 161.776 34.312C161.264 35.5067 160.709 37.1707 160.112 39.304C159.6 41.4373 159.173 43.656 158.832 45.96C158.491 48.264 158.32 50.3547 158.32 52.232C158.32 59.0587 158.917 64.52 160.112 68.616C161.307 72.712 163.909 76.2533 167.92 79.24C170.053 80.776 172.784 82.3547 176.112 83.976C179.44 85.5973 182.939 86.9627 186.608 88.072C190.363 89.2667 193.861 89.864 197.104 89.864C200.603 89.864 203.333 89.3947 205.296 88.456C207.259 87.6027 209.435 86.792 211.824 86.024C213.275 85.5973 215.109 84.744 217.328 83.464C219.547 82.184 221.68 80.8187 223.728 79.368C225.861 77.9173 227.397 76.7653 228.336 75.912C228.933 75.3147 229.531 75.016 230.128 75.016C230.64 75.016 230.896 75.272 230.896 75.784C230.896 76.3813 230.597 76.9787 230 77.576ZM275.163 75.016C275.419 74.76 275.76 74.632 276.187 74.632C276.784 74.632 277.083 74.9307 277.083 75.528C277.083 75.8693 276.87 76.3813 276.443 77.064C276.102 77.7467 275.334 78.5573 274.139 79.496C272.944 80.52 271.707 81.4587 270.427 82.312C269.232 83.1653 267.568 83.592 265.435 83.592C263.131 83.592 261.296 83.1653 259.931 82.312C258.651 81.4587 257.712 80.52 257.115 79.496C256.603 78.3867 256.262 77.5333 256.091 76.936C255.067 77.704 254 78.728 252.891 80.008C251.867 81.2027 250.374 82.312 248.411 83.336C246.448 84.2747 243.632 84.744 239.963 84.744C237.915 84.744 236.038 84.2747 234.331 83.336C232.71 82.312 231.899 80.136 231.899 76.808C231.899 75.8693 231.942 74.888 232.027 73.864C232.198 72.7547 232.454 71.56 232.795 70.28C233.819 66.2693 235.014 63.112 236.379 60.808C237.744 58.504 239.792 56.7973 242.523 55.688C244.23 55.0053 246.32 54.3653 248.795 53.768C251.27 53.1707 253.446 52.6587 255.323 52.232C255.92 52.0613 256.432 51.5067 256.859 50.568C257.371 49.544 257.926 48.6053 258.523 47.752C258.864 47.3253 259.248 46.984 259.675 46.728C260.102 46.3867 260.571 46.216 261.083 46.216C261.51 46.216 262.064 46.4293 262.747 46.856C263.344 47.2827 263.728 48.0933 263.899 49.288C264.155 50.4827 264.283 51.592 264.283 52.616C264.198 53.128 263.984 53.768 263.643 54.536C263.387 55.2187 263.174 55.9867 263.003 56.84C262.832 57.9493 262.406 59.528 261.723 61.576C261.04 63.624 260.699 65.3307 260.699 66.696C260.699 67.8907 260.614 69.384 260.443 71.176C260.272 72.8827 260.272 74.0773 260.443 74.76C261.382 76.808 262.704 78.1733 264.411 78.856C266.118 79.4533 267.611 79.624 268.891 79.368C269.83 79.1973 270.896 78.6427 272.091 77.704C273.286 76.7653 274.31 75.8693 275.163 75.016ZM254.427 60.424C254.256 59.7413 253.83 59.016 253.147 58.248C252.55 57.48 251.782 57.096 250.843 57.096C250.672 57.096 250.331 57.1813 249.819 57.352C248.368 57.864 246.832 58.8453 245.211 60.296C243.59 61.6613 242.182 63.4533 240.987 65.672C239.792 67.8907 239.11 70.4933 238.939 73.48C238.939 74.3333 239.195 75.4427 239.707 76.808C240.304 78.1733 241.072 79.3253 242.011 80.264C242.95 81.2027 243.888 81.4587 244.827 81.032C246.875 80.1787 248.582 78.984 249.947 77.448C251.398 75.8267 252.592 73.864 253.531 71.56C253.958 70.4507 254.256 69.2987 254.427 68.104C254.683 66.824 254.811 65.6293 254.811 64.52C254.811 63.496 254.768 62.6427 254.683 61.96C254.598 61.192 254.512 60.68 254.427 60.424ZM304.214 78.088C304.555 77.7467 305.025 77.576 305.622 77.576C306.219 77.576 306.518 77.832 306.518 78.344C306.518 78.9413 305.835 79.88 304.47 81.16C303.105 82.44 301.611 83.464 299.99 84.232C298.369 85 296.833 85.5547 295.382 85.896C294.699 85.9813 293.761 85.7253 292.566 85.128C291.457 84.616 290.774 84.0613 290.518 83.464C290.177 82.696 289.921 81.8427 289.75 80.904C289.579 79.88 289.494 78.8133 289.494 77.704C289.494 75.0587 289.793 72.328 290.39 69.512C290.987 66.696 291.542 64.264 292.054 62.216C291.03 62.5573 289.878 62.728 288.598 62.728C287.403 62.728 286.337 62.8133 285.398 62.984C284.801 63.8373 284.289 64.8187 283.862 65.928C283.435 66.952 282.838 68.104 282.07 69.384C280.705 71.6027 279.169 73.8213 277.462 76.04C275.841 78.1733 274.177 79.9227 272.47 81.288C270.763 82.6533 269.099 83.336 267.478 83.336C266.369 83.336 265.814 83.0373 265.814 82.44C265.814 81.8427 266.539 81.288 267.99 80.776C270.038 80.008 272.129 78.3867 274.262 75.912C276.395 73.4373 278.315 70.8773 280.022 68.232C280.875 66.952 281.43 65.8 281.686 64.776C281.942 63.6667 282.07 62.8133 282.07 62.216C282.07 62.216 281.686 61.7893 280.918 60.936C280.235 59.9973 279.894 59.1013 279.894 58.248C279.894 56.3707 280.491 54.664 281.686 53.128C282.966 51.592 284.289 51.0373 285.654 51.464C286.593 51.72 287.19 52.1467 287.446 52.744C287.787 53.3413 287.958 53.9813 287.958 54.664C287.958 55.432 287.83 56.2427 287.574 57.096C287.318 57.864 287.062 58.5467 286.806 59.144C287.062 59.4853 287.617 59.656 288.47 59.656C289.75 59.656 291.158 59.4 292.694 58.888C293.803 57.2667 294.87 55.9867 295.894 55.048C296.918 54.1093 297.857 53.7253 298.71 53.896C299.307 53.9813 299.862 54.1947 300.374 54.536C300.886 54.8773 301.142 55.5173 301.142 56.456C301.142 57.224 300.758 58.376 299.99 59.912C298.71 62.216 297.515 64.7333 296.406 67.464C295.297 70.1093 294.443 72.5413 293.846 74.76C293.249 76.8933 292.993 78.3867 293.078 79.24C293.249 80.3493 293.547 81.0747 293.974 81.416C294.486 81.7573 295.041 81.928 295.638 81.928C296.065 81.928 296.491 81.8853 296.918 81.8C297.43 81.6293 297.899 81.5013 298.326 81.416C299.606 80.9893 300.673 80.52 301.526 80.008C302.379 79.496 303.275 78.856 304.214 78.088ZM285.142 56.456C285.142 55.688 284.886 55.1333 284.374 54.792C284.289 54.7067 284.161 54.664 283.99 54.664C283.563 54.664 283.179 54.9627 282.838 55.56C282.497 56.072 282.326 56.584 282.326 57.096C282.326 57.5227 282.369 58.0347 282.454 58.632C282.625 59.144 282.923 59.272 283.35 59.016C283.777 58.76 284.161 58.4187 284.502 57.992C284.929 57.5653 285.142 57.0533 285.142 56.456ZM341.971 34.44C341.971 34.44 341.971 34.7387 341.971 35.336C342.056 35.9333 341.886 36.6587 341.459 37.512C341.032 38.3653 340.094 39.2187 338.643 40.072C338.131 40.4133 337.192 40.6693 335.827 40.84C334.462 41.0107 332.926 41.1387 331.219 41.224C330.28 43.6987 329.256 46.216 328.147 48.776C327.038 51.2507 325.886 53.5973 324.691 55.816C322.899 59.2293 321.363 61.7467 320.083 63.368C318.888 64.9893 317.95 66.2267 317.267 67.08C316.584 67.848 316.115 68.7867 315.859 69.896C315.774 70.408 315.688 70.8773 315.603 71.304C315.603 71.7307 315.603 72.1573 315.603 72.584C315.603 75.7413 316.499 78.0453 318.291 79.496C320.168 80.9467 321.96 81.672 323.667 81.672C325.63 81.672 327.592 80.9893 329.555 79.624C331.518 78.1733 333.139 76.8507 334.419 75.656C335.443 74.8027 336.211 74.376 336.723 74.376C337.064 74.376 337.235 74.5467 337.235 74.888C337.235 75.4853 336.766 76.424 335.827 77.704C335.315 78.3867 334.462 79.3253 333.267 80.52C332.072 81.7147 330.579 82.824 328.787 83.848C326.995 84.7867 324.99 85.256 322.771 85.256C318.334 85.256 315.347 84.232 313.811 82.184C312.36 80.136 311.635 76.7227 311.635 71.944C311.635 68.1893 312.019 63.5813 312.787 58.12C313.555 52.5733 314.75 46.728 316.371 40.584C315.944 40.584 315.518 40.584 315.091 40.584C314.664 40.4987 314.28 40.456 313.939 40.456C312.83 40.456 311.976 40.6267 311.379 40.968C310.867 41.224 310.44 41.352 310.099 41.352C309.246 41.352 308.819 40.712 308.819 39.432C308.819 37.9813 309.203 36.872 309.971 36.104C310.568 35.5067 311.592 35.208 313.043 35.208C314.152 35.208 315.646 35.4213 317.523 35.848C317.694 35.336 317.864 34.8667 318.035 34.44C318.206 34.0133 318.334 33.5867 318.419 33.16C318.59 32.3067 318.76 31.624 318.931 31.112C319.102 30.6 319.315 29.96 319.571 29.192C321.022 24.84 322.6 20.6587 324.307 16.648C326.014 12.6373 328.488 9.05333 331.731 5.896C332.328 4.95733 333.139 4.488 334.163 4.488C334.931 4.488 335.614 4.82933 336.211 5.51199C336.808 6.10933 337.064 6.83466 336.979 7.688C336.979 7.688 336.936 8.75466 336.851 10.888C336.766 13.0213 336.595 15.624 336.339 18.696C336.083 21.6827 335.699 24.5413 335.187 27.272C334.931 28.8933 334.547 30.6427 334.035 32.52C333.608 34.312 333.054 36.1467 332.371 38.024C332.883 38.1093 333.352 38.1947 333.779 38.28C334.291 38.28 334.76 38.28 335.187 38.28C336.467 38.28 337.448 38.1093 338.131 37.768C338.899 37.3413 339.326 36.9147 339.411 36.488C339.582 36.0613 339.667 35.848 339.667 35.848C339.667 34.1413 340.094 33.288 340.947 33.288C341.374 33.288 341.715 33.672 341.971 34.44ZM332.883 13.064C332.371 12.9787 331.56 13.96 330.451 16.008C329.342 18.056 328.147 20.744 326.867 24.072C325.587 27.4 324.35 30.9413 323.155 34.696C323.07 35.0373 322.984 35.3787 322.899 35.72C322.814 35.976 322.728 36.2747 322.643 36.616C323.24 36.7867 323.838 36.9147 324.435 37C325.032 37.0853 325.672 37.2133 326.355 37.384C326.696 37.4693 327.08 37.512 327.507 37.512C327.934 37.512 328.318 37.5973 328.659 37.768C329 36.8293 329.299 36.0187 329.555 35.336C329.811 34.568 330.067 33.8853 330.323 33.288C331.262 30.1307 332.03 26.888 332.627 23.56C333.224 20.232 333.523 17.6293 333.523 15.752C333.523 14.216 333.31 13.32 332.883 13.064ZM327.251 41.224H324.947C324.35 41.224 323.752 41.224 323.155 41.224C322.643 41.224 322.131 41.1813 321.619 41.096C320.851 44.3387 320.083 47.8373 319.315 51.592C318.632 55.2613 318.078 58.5467 317.651 61.448C318.675 60.2533 319.742 58.5467 320.851 56.328C321.96 54.1093 323.07 51.6773 324.179 49.032C325.288 46.3013 326.312 43.6987 327.251 41.224ZM367.807 62.216C368.575 62.472 368.959 62.8987 368.959 63.496C368.959 64.008 368.703 64.4773 368.191 64.904C367.764 65.3307 367.21 65.544 366.527 65.544C365.418 65.544 363.796 65.544 361.663 65.544C359.615 65.4587 357.524 65.416 355.391 65.416C353.343 65.3307 351.807 65.2453 350.783 65.16C350.442 65.0747 349.887 65.032 349.119 65.032C348.522 65.032 347.882 65.0747 347.199 65.16C346.602 65.16 346.004 65.16 345.407 65.16C344.298 65.16 343.402 65.032 342.719 64.776C341.61 64.1787 341.055 63.5387 341.055 62.856C341.055 62.2587 341.524 61.96 342.463 61.96C343.316 61.96 344.468 61.8747 345.919 61.704C347.37 61.448 348.65 61.32 349.759 61.32H361.791C363.412 61.32 364.692 61.4053 365.631 61.576C366.655 61.7467 367.38 61.96 367.807 62.216ZM415.445 5.896C415.616 6.40799 415.701 6.96266 415.701 7.56C415.701 9.35199 415.274 11.8267 414.421 14.984C413.653 18.1413 412.714 21.384 411.605 24.712C410.496 27.9547 409.514 30.7707 408.661 33.16C406.016 40.4133 403.498 46.3013 401.109 50.824C398.805 55.3467 396.757 58.888 394.965 61.448C393.173 63.9227 391.765 65.7573 390.741 66.952C389.717 68.1467 389.205 69.0427 389.205 69.64C389.802 70.92 390.314 72.7973 390.741 75.272C391.168 77.6613 391.424 79.752 391.509 81.544C392.192 81.7147 393.045 81.8 394.069 81.8C394.922 81.8 395.818 81.7147 396.757 81.544C397.696 81.3733 398.592 81.1173 399.445 80.776C402.176 79.5813 404.437 77.9173 406.229 75.784C408.021 73.5653 409.301 71.9013 410.069 70.792C410.41 70.3653 410.752 70.152 411.093 70.152C411.52 70.152 411.818 70.408 411.989 70.92C412.16 71.3467 412.117 71.7733 411.861 72.2C410.154 74.8453 408.405 77.1067 406.613 78.984C404.821 80.8613 402.773 82.312 400.469 83.336C398.08 84.36 396.074 84.9573 394.453 85.128C392.832 85.2987 392.021 85.384 392.021 85.384C391.85 86.0667 391.68 86.7493 391.509 87.432C391.424 88.2 391.253 89.3093 390.997 90.76C390.741 92.2107 390.357 94.3867 389.845 97.288C388.736 103.091 387.37 108.381 385.749 113.16C384.128 117.939 381.312 122.035 377.301 125.448C376.789 125.789 376.32 125.96 375.893 125.96C375.04 125.96 374.144 125.619 373.205 124.936C372.266 124.339 371.669 123.571 371.413 122.632C371.157 121.693 370.944 120.328 370.773 118.536C370.602 116.829 370.474 115.08 370.389 113.288C370.304 111.496 370.261 110.088 370.261 109.064C370.261 105.395 370.858 100.531 372.053 94.472C373.248 88.4987 374.912 81.8427 377.045 74.504C379.178 67.08 381.738 59.4853 384.725 51.72C387.712 43.8693 390.997 36.36 394.581 29.192C395.861 26.632 397.312 23.9013 398.933 21C400.64 18.0987 402.346 15.368 404.053 12.808C405.845 10.1627 407.552 8.02933 409.173 6.408C410.794 4.78666 412.16 3.976 413.269 3.976C414.293 3.976 415.018 4.616 415.445 5.896ZM410.709 12.296C409.685 12.8933 408.576 14.3013 407.381 16.52C406.272 18.6533 405.162 21.0427 404.053 23.688C402.944 26.248 401.877 28.552 400.853 30.6C398.549 35.2933 396.202 40.4133 393.813 45.96C391.509 51.4213 389.248 57.7787 387.029 65.032C387.968 64.0933 389.248 62.472 390.869 60.168C392.49 57.864 394.197 55.1333 395.989 51.976C397.781 48.7333 399.53 45.4053 401.237 41.992C403.029 38.5787 404.522 35.336 405.717 32.264C406.741 29.8747 407.68 27.4 408.533 24.84C409.386 22.1947 410.069 19.8053 410.581 17.672C411.093 15.5387 411.349 14.0027 411.349 13.064C411.349 12.296 411.136 12.04 410.709 12.296ZM387.285 75.4C387.114 74.7173 386.858 74.0347 386.517 73.352C386.261 72.584 385.792 72.2853 385.109 72.456C384.597 73.0533 384.17 73.736 383.829 74.504C383.573 75.272 383.445 76.3813 383.445 77.832C383.445 77.832 383.701 78.088 384.213 78.6C384.81 79.0267 385.536 79.112 386.389 78.856C386.645 78.6853 386.901 78.5147 387.157 78.344C387.413 78.1733 387.541 77.7893 387.541 77.192C387.541 76.936 387.541 76.68 387.541 76.424C387.541 76.0827 387.456 75.7413 387.285 75.4ZM387.797 84.36C387.797 84.36 387.626 84.4027 387.285 84.488C386.944 84.5733 386.517 84.616 386.005 84.616C385.322 84.616 384.554 84.4453 383.701 84.104C382.848 83.6773 382.25 82.9093 381.909 81.8C381.226 84.5307 380.714 86.536 380.373 87.816C380.032 89.096 379.776 90.0347 379.605 90.632C379.434 91.2293 379.264 91.8693 379.093 92.552C379.008 93.2347 378.837 94.3867 378.581 96.008C378.325 97.6293 377.898 100.104 377.301 103.432C376.96 105.139 376.661 107.059 376.405 109.192C376.149 111.411 376.021 113.373 376.021 115.08C376.021 116.36 376.106 117.384 376.277 118.152C376.533 118.92 376.874 119.261 377.301 119.176C377.813 119.091 378.325 118.536 378.837 117.512C379.434 116.573 380.032 115.464 380.629 114.184C381.226 112.989 381.781 112.008 382.293 111.24C383.061 110.045 383.616 108.893 383.957 107.784C384.384 106.675 384.768 105.096 385.109 103.048C385.536 101.085 386.133 98.2693 386.901 94.6C387.157 93.4053 387.328 91.9973 387.413 90.376C387.584 88.84 387.669 87.432 387.669 86.152C387.754 84.9573 387.797 84.36 387.797 84.36ZM434.005 33.288C433.408 33.288 432.81 33.2027 432.213 33.032C431.701 32.776 431.189 32.4773 430.677 32.136C429.568 31.624 429.013 30.5147 429.013 28.808C429.013 28.04 429.184 27.1867 429.525 26.248C429.952 25.3093 430.592 24.4133 431.445 23.56C432.042 22.9627 432.768 22.664 433.621 22.664C434.389 22.664 435.114 22.9627 435.797 23.56C436.138 23.9013 436.352 24.456 436.437 25.224C436.608 25.9067 436.693 26.6747 436.693 27.528C436.693 28.552 436.608 29.576 436.437 30.6C436.266 31.5387 435.968 32.2213 435.541 32.648C434.944 33.0747 434.432 33.288 434.005 33.288ZM420.949 83.592C417.792 83.592 415.616 82.8667 414.421 81.416C413.226 79.9653 412.629 78.216 412.629 76.168C412.629 75.2293 412.714 74.2907 412.885 73.352C413.056 72.4133 413.269 71.4747 413.525 70.536C412.672 72.072 411.349 73.864 409.557 75.912C407.765 77.8747 406.101 79.4533 404.565 80.648C404.224 80.904 403.882 81.032 403.541 81.032C403.029 81.032 402.773 80.7333 402.773 80.136C402.773 79.4533 403.029 78.856 403.541 78.344C407.125 74.5893 409.856 71.56 411.733 69.256C413.61 66.8667 415.061 64.8613 416.085 63.24C417.109 61.6187 418.09 60.1253 419.029 58.76C419.797 56.2853 420.48 53.896 421.077 51.592C421.76 49.2027 422.784 46.7707 424.149 44.296C424.576 43.528 425.429 43.144 426.709 43.144C427.562 43.144 428.33 43.3573 429.013 43.784C429.696 44.2107 430.037 44.936 430.037 45.96C430.037 46.472 429.909 47.0693 429.653 47.752C428.714 50.3973 427.69 52.6587 426.581 54.536C425.557 56.328 424.192 58.632 422.485 61.448C420.693 64.3493 419.242 67.1653 418.133 69.896C417.109 72.6267 416.597 74.9307 416.597 76.808C416.597 78.0027 416.853 78.984 417.365 79.752C417.962 80.52 418.816 80.904 419.925 80.904C422.314 80.9893 424.149 80.6053 425.429 79.752C426.709 78.8133 427.776 77.9173 428.629 77.064C429.738 75.8693 430.677 74.76 431.445 73.736C432.298 72.712 433.066 71.816 433.749 71.048C434.261 70.536 434.517 70.6213 434.517 71.304C434.517 71.7307 434.389 72.2853 434.133 72.968C433.962 73.6507 433.749 74.1627 433.493 74.504C432.64 75.6987 431.616 77.0213 430.421 78.472C429.312 79.9227 427.989 81.16 426.453 82.184C424.917 83.1227 423.082 83.592 420.949 83.592ZM465.989 73.48C465.306 75.016 463.813 76.8507 461.509 78.984C459.29 81.1173 456.645 82.9947 453.573 84.616C450.586 86.152 447.557 86.92 444.485 86.92C440.048 86.92 437.061 85.64 435.525 83.08C433.989 80.4347 433.221 76.8933 433.221 72.456C433.221 69.4693 433.477 65.8 433.989 61.448C434.501 57.096 435.269 52.4027 436.293 47.368C437.317 42.3333 438.597 37.256 440.133 32.136C441.669 27.272 443.333 22.536 445.125 17.928C446.917 13.32 449.605 9.30933 453.189 5.896C453.786 4.95733 454.554 4.488 455.493 4.488C456.261 4.488 456.944 4.82933 457.541 5.51199C458.138 6.10933 458.394 6.83466 458.309 7.688C458.309 7.688 458.266 8.75466 458.181 10.888C458.181 13.0213 458.053 15.624 457.797 18.696C457.541 21.6827 457.157 24.5413 456.645 27.272C455.877 31.88 454.469 36.744 452.421 41.864C450.458 46.984 448.368 51.6347 446.149 55.816C444.357 59.3147 442.906 61.832 441.797 63.368C440.773 64.904 439.962 66.0133 439.365 66.696C438.853 67.3787 438.469 68.2747 438.213 69.384C438.128 69.9813 438.042 70.664 437.957 71.432C437.957 72.1147 437.957 72.84 437.957 73.608C437.957 75.144 438.042 76.6373 438.213 78.088C438.469 79.4533 438.768 80.3493 439.109 80.776C440.048 81.7147 441.072 82.3973 442.181 82.824C443.29 83.2507 444.4 83.464 445.509 83.464C446.448 83.464 447.301 83.336 448.069 83.08C450.97 82.2267 453.914 80.8187 456.901 78.856C459.973 76.8933 462.149 74.9733 463.429 73.096C464.026 72.2427 464.496 71.688 464.837 71.432C465.264 71.0907 465.605 70.92 465.861 70.92C466.288 70.92 466.501 71.2187 466.501 71.816C466.501 71.9867 466.458 72.2427 466.373 72.584C466.288 72.84 466.16 73.1387 465.989 73.48ZM454.341 13.064C453.488 12.8933 452.122 14.7707 450.245 18.696C448.453 22.6213 446.576 27.9547 444.613 34.696C444.016 36.744 443.333 39.3467 442.565 42.504C441.882 45.6613 441.2 48.9467 440.517 52.36C439.834 55.688 439.322 58.7173 438.981 61.448C441.712 55.9013 444.186 50.9093 446.405 46.472C448.624 42.0347 450.33 37.896 451.525 34.056C452.634 30.984 453.445 27.6987 453.957 24.2C454.554 20.7013 454.853 17.928 454.853 15.88C454.853 14.2587 454.682 13.32 454.341 13.064ZM497.364 73.48C496.681 75.016 495.188 76.8507 492.884 78.984C490.665 81.1173 488.02 82.9947 484.948 84.616C481.961 86.152 478.932 86.92 475.86 86.92C471.423 86.92 468.436 85.64 466.9 83.08C465.364 80.4347 464.596 76.8933 464.596 72.456C464.596 69.4693 464.852 65.8 465.364 61.448C465.876 57.096 466.644 52.4027 467.668 47.368C468.692 42.3333 469.972 37.256 471.508 32.136C473.044 27.272 474.708 22.536 476.5 17.928C478.292 13.32 480.98 9.30933 484.564 5.896C485.161 4.95733 485.929 4.488 486.868 4.488C487.636 4.488 488.319 4.82933 488.916 5.51199C489.513 6.10933 489.769 6.83466 489.684 7.688C489.684 7.688 489.641 8.75466 489.556 10.888C489.556 13.0213 489.428 15.624 489.172 18.696C488.916 21.6827 488.532 24.5413 488.02 27.272C487.252 31.88 485.844 36.744 483.796 41.864C481.833 46.984 479.743 51.6347 477.524 55.816C475.732 59.3147 474.281 61.832 473.172 63.368C472.148 64.904 471.337 66.0133 470.74 66.696C470.228 67.3787 469.844 68.2747 469.588 69.384C469.503 69.9813 469.417 70.664 469.332 71.432C469.332 72.1147 469.332 72.84 469.332 73.608C469.332 75.144 469.417 76.6373 469.588 78.088C469.844 79.4533 470.143 80.3493 470.484 80.776C471.423 81.7147 472.447 82.3973 473.556 82.824C474.665 83.2507 475.775 83.464 476.884 83.464C477.823 83.464 478.676 83.336 479.444 83.08C482.345 82.2267 485.289 80.8187 488.276 78.856C491.348 76.8933 493.524 74.9733 494.804 73.096C495.401 72.2427 495.871 71.688 496.212 71.432C496.639 71.0907 496.98 70.92 497.236 70.92C497.663 70.92 497.876 71.2187 497.876 71.816C497.876 71.9867 497.833 72.2427 497.748 72.584C497.663 72.84 497.535 73.1387 497.364 73.48ZM485.716 13.064C484.863 12.8933 483.497 14.7707 481.62 18.696C479.828 22.6213 477.951 27.9547 475.988 34.696C475.391 36.744 474.708 39.3467 473.94 42.504C473.257 45.6613 472.575 48.9467 471.892 52.36C471.209 55.688 470.697 58.7173 470.356 61.448C473.087 55.9013 475.561 50.9093 477.78 46.472C479.999 42.0347 481.705 37.896 482.9 34.056C484.009 30.984 484.82 27.6987 485.332 24.2C485.929 20.7013 486.228 17.928 486.228 15.88C486.228 14.2587 486.057 13.32 485.716 13.064ZM546.554 47.112C547.066 47.88 547.322 48.7333 547.322 49.672C547.322 51.5493 546.682 53.9387 545.402 56.84C544.207 59.656 542.97 62.7707 541.69 66.184C540.41 69.5973 539.727 73.096 539.642 76.68C539.557 81.288 539.471 86.024 539.386 90.888C539.386 95.752 538.831 100.488 537.722 105.096C536.698 109.789 534.522 114.056 531.194 117.896C528.463 121.053 525.562 123.187 522.49 124.296C519.503 125.491 516.346 126.088 513.018 126.088C512.421 126.088 511.781 126.045 511.098 125.96C510.415 125.96 509.733 125.917 509.05 125.832C507.429 125.661 505.679 124.893 503.802 123.528C501.925 122.163 500.303 120.2 498.938 117.64C497.573 115.08 496.89 111.965 496.89 108.296C496.89 107.016 497.018 105.608 497.274 104.072C497.701 101.512 498.341 98.9093 499.194 96.264C500.047 93.704 501.285 91.5707 502.906 89.864C504.527 88.1573 506.703 87.304 509.434 87.304C511.653 87.304 513.743 88.1147 515.706 89.736C517.669 91.4427 519.29 93.3627 520.57 95.496C521.935 97.6293 522.831 99.5067 523.258 101.128C523.514 102.152 523.727 103.219 523.898 104.328C524.154 105.523 524.282 106.675 524.282 107.784C524.282 109.747 523.898 111.112 523.13 111.88C522.277 112.819 521.21 113.288 519.93 113.288C518.991 113.288 517.882 113.032 516.602 112.52C515.749 112.349 514.725 111.752 513.53 110.728C512.421 109.789 511.866 108.552 511.866 107.016C511.866 105.992 512.079 105.011 512.506 104.072C513.018 103.133 513.445 102.493 513.786 102.152C514.469 101.64 514.938 101.384 515.194 101.384C515.621 101.384 515.919 101.939 516.09 103.048V103.176C516.09 103.517 515.919 103.859 515.578 104.2C515.237 104.541 515.109 105.139 515.194 105.992C515.365 107.187 515.834 108.04 516.602 108.552C517.37 109.149 517.925 109.448 518.266 109.448C519.375 109.448 519.93 108.339 519.93 106.12C519.93 104.328 519.418 102.152 518.394 99.592C517.541 97.4587 516.346 95.624 514.81 94.088C513.274 92.552 511.482 91.6133 509.434 91.272C508.41 91.1013 507.301 91.3573 506.106 92.04C504.826 92.7227 503.717 94.0453 502.778 96.008C502.181 97.1173 501.797 98.3547 501.626 99.72C501.37 101.085 501.242 102.493 501.242 103.944C501.242 105.565 501.37 107.101 501.626 108.552C501.797 113.245 503.034 116.659 505.338 118.792C507.557 121.011 510.501 122.12 514.17 122.12C514.682 122.12 515.194 122.077 515.706 121.992C516.303 121.992 516.901 121.949 517.498 121.864C520.058 121.523 522.533 120.243 524.922 118.024C527.311 115.805 529.317 113.245 530.938 110.344C532.303 107.869 533.157 105.821 533.498 104.2C533.925 102.579 534.138 100.616 534.138 98.312C534.138 96.8613 534.095 95.24 534.01 93.448C534.01 91.656 534.01 89.4373 534.01 86.792C534.01 85.0853 534.01 83.1653 534.01 81.032C534.095 78.8987 534.181 76.5093 534.266 73.864C529.743 76.2533 526.031 77.448 523.13 77.448C520.826 77.448 518.693 76.7227 516.73 75.272C516.047 74.76 515.535 74.12 515.194 73.352C514.938 72.4987 514.81 71.6027 514.81 70.664C514.81 68.616 515.322 66.3547 516.346 63.88C517.37 61.32 518.565 58.9733 519.93 56.84C521.295 54.6213 522.49 53 523.514 51.976C524.111 50.952 524.794 50.44 525.562 50.44C526.245 50.44 526.799 50.8667 527.226 51.72C527.653 52.488 527.653 53.0427 527.226 53.384C526.117 54.3227 525.178 55.4747 524.41 56.84C523.642 58.2053 522.917 59.6133 522.234 61.064C521.637 62.5147 521.338 64.392 521.338 66.696C521.338 67.5493 521.381 68.4027 521.466 69.256C521.637 70.1093 521.893 70.7493 522.234 71.176C522.661 71.688 523.429 71.944 524.538 71.944C525.562 71.944 526.714 71.7307 527.994 71.304C529.274 70.792 530.341 70.152 531.194 69.384C533.242 67.5067 534.693 65.544 535.546 63.496C536.485 61.3627 537.21 59.3147 537.722 57.352C537.978 56.328 538.277 55.1333 538.618 53.768C538.959 52.3173 539.13 50.8667 539.13 49.416C539.13 48.904 539.685 48.2213 540.794 47.368C541.903 46.4293 543.055 45.96 544.25 45.96C545.189 45.96 545.957 46.344 546.554 47.112ZM579.324 60.936C579.324 62.728 578.94 65.0747 578.172 67.976C577.404 70.8773 576.38 73.608 575.1 76.168C573.905 78.8133 572.54 80.776 571.004 82.056C569.553 83.2507 568.145 84.104 566.78 84.616C565.415 85.0427 564.305 85.4693 563.452 85.896C563.111 85.9813 562.727 86.0667 562.3 86.152C561.959 86.3227 561.575 86.408 561.148 86.408C559.441 86.408 558.119 85.9387 557.18 85C556.839 84.6587 556.284 84.3173 555.516 83.976C554.833 83.6347 554.193 83.0373 553.596 82.184C552.999 81.3307 552.7 79.9227 552.7 77.96C552.7 75.912 552.956 73.9493 553.468 72.072C551.932 70.28 551.164 68.3173 551.164 66.184C551.164 64.904 551.463 63.6667 552.06 62.472C553.681 59.4 555.729 57.0107 558.204 55.304C560.679 53.5973 563.025 52.4027 565.244 51.72C567.548 51.0373 569.127 50.696 569.98 50.696C573.137 50.696 575.484 51.72 577.02 53.768C578.556 55.816 579.324 58.2053 579.324 60.936ZM574.076 61.576C574.076 59.6133 573.393 57.992 572.028 56.712C570.748 55.432 569.127 54.792 567.164 54.792C565.543 54.792 563.879 55.304 562.172 56.328C560.551 57.2667 559.143 58.4613 557.948 59.912C556.753 61.3627 555.985 62.7707 555.644 64.136C555.559 64.648 555.473 65.1173 555.388 65.544C555.388 65.9707 555.388 66.3973 555.388 66.824C556.327 64.776 557.308 63.0693 558.332 61.704C559.441 60.3387 560.252 59.4853 560.764 59.144C561.191 58.8027 561.745 58.632 562.428 58.632C563.367 58.632 563.836 58.888 563.836 59.4C563.836 59.7413 563.367 60.3813 562.428 61.32C561.575 62.1733 560.593 63.3253 559.484 64.776C558.375 66.1413 557.436 67.848 556.668 69.896C557.351 70.7493 558.247 71.3893 559.356 71.816C560.551 72.1573 561.703 72.328 562.812 72.328C564.007 72.328 565.116 72.1147 566.14 71.688C567.249 71.176 567.975 70.4933 568.316 69.64C568.401 69.384 568.444 69.1707 568.444 69C568.529 68.744 568.572 68.5307 568.572 68.36C568.572 67.5067 568.188 66.9947 567.42 66.824C566.737 66.568 566.055 66.4827 565.372 66.568H565.116C564.177 66.568 563.708 66.3547 563.708 65.928C563.708 65.672 563.793 65.416 563.964 65.16C564.22 64.904 564.433 64.6907 564.604 64.52C565.116 64.008 565.671 63.752 566.268 63.752C567.121 63.752 568.06 64.3067 569.084 65.416C570.023 66.696 570.492 67.9333 570.492 69.128C570.492 70.664 569.724 71.8587 568.188 72.712C566.737 73.5653 565.116 74.1627 563.324 74.504C561.532 74.8453 560.167 75.016 559.228 75.016C557.863 75.016 556.753 74.7173 555.9 74.12C555.815 74.2907 555.772 74.6747 555.772 75.272C555.772 77.6613 556.412 79.2827 557.692 80.136C558.972 80.904 560.039 81.5013 560.892 81.928C561.404 82.0987 561.831 82.184 562.172 82.184C563.367 82.184 564.604 81.672 565.884 80.648C567.249 79.624 568.444 78.216 569.468 76.424C570.236 75.0587 570.961 73.4373 571.644 71.56C572.327 69.6827 572.881 67.848 573.308 66.056C573.82 64.1787 574.076 62.6853 574.076 61.576ZM620.308 76.936C618.089 79.5813 616.169 81.416 614.548 82.44C612.927 83.464 611.519 83.976 610.324 83.976C608.788 83.976 607.465 83.3787 606.356 82.184C605.332 80.904 604.436 79.5387 603.668 78.088C602.985 76.6373 602.431 75.6133 602.004 75.016C600.383 76.4667 598.463 78.0027 596.244 79.624C594.025 81.16 592.191 81.928 590.74 81.928C588.009 81.928 585.876 81.2453 584.34 79.88C582.804 78.4293 582.036 76.3387 582.036 73.608C582.036 70.792 582.377 67.464 583.06 63.624C583.828 59.784 584.767 55.9867 585.876 52.232C586.985 48.392 588.052 45.192 589.076 42.632C589.332 41.864 589.844 41.224 590.612 40.712C591.465 40.2 592.319 39.944 593.172 39.944C594.196 39.944 594.879 40.2 595.22 40.712C595.561 41.224 595.732 41.8213 595.732 42.504C595.732 43.3573 595.561 44.2107 595.22 45.064C594.964 45.832 594.836 46.216 594.836 46.216C593.812 49.1173 592.617 52.1467 591.252 55.304C589.972 58.4613 588.777 62.0453 587.668 66.056C587.583 66.568 587.455 67.2933 587.284 68.232C587.199 69.1707 587.156 70.152 587.156 71.176C587.156 72.6267 587.327 73.992 587.668 75.272C588.095 76.4667 588.863 77.064 589.972 77.064C590.911 77.064 592.148 76.5093 593.684 75.4C595.305 74.2907 596.927 72.7547 598.548 70.792C600.169 68.8293 601.449 66.568 602.388 64.008C603.241 61.704 604.009 59.1867 604.692 56.456C605.375 53.7253 605.972 51.1653 606.484 48.776C607.081 46.3013 607.636 44.3813 608.148 43.016C608.404 42.4187 608.788 42.12 609.3 42.12C609.983 42.12 610.58 42.376 611.092 42.888C611.689 43.4 611.903 43.8693 611.732 44.296C611.391 45.1493 610.921 46.5573 610.324 48.52C609.727 50.4827 609.129 52.6587 608.532 55.048C607.935 57.4373 607.38 59.784 606.868 62.088C606.356 64.3067 605.929 66.184 605.588 67.72C605.247 69.256 605.076 70.1093 605.076 70.28C605.076 71.56 605.204 72.712 605.46 73.736C605.716 74.76 606.143 75.8693 606.74 77.064C607.167 77.7467 607.679 78.5147 608.276 79.368C608.959 80.136 609.641 80.52 610.324 80.52C611.945 80.52 613.481 79.9653 614.932 78.856C616.468 77.6613 617.62 76.5093 618.388 75.4C618.985 74.4613 619.54 73.992 620.052 73.992C620.564 73.992 620.82 74.4613 620.82 75.4C620.82 76.0827 620.649 76.5947 620.308 76.936ZM647.714 78.088C648.055 77.7467 648.525 77.576 649.122 77.576C649.719 77.576 650.018 77.832 650.018 78.344C650.018 78.9413 649.335 79.88 647.97 81.16C646.605 82.44 645.111 83.464 643.49 84.232C641.869 85 640.333 85.5547 638.882 85.896C638.199 85.9813 637.261 85.7253 636.066 85.128C634.957 84.616 634.274 84.0613 634.018 83.464C633.677 82.696 633.421 81.8427 633.25 80.904C633.079 79.88 632.994 78.8133 632.994 77.704C632.994 75.0587 633.293 72.328 633.89 69.512C634.487 66.696 635.042 64.264 635.554 62.216C634.53 62.5573 633.378 62.728 632.098 62.728C630.903 62.728 629.837 62.8133 628.898 62.984C628.301 63.8373 627.789 64.8187 627.362 65.928C626.935 66.952 626.338 68.104 625.57 69.384C624.205 71.6027 622.669 73.8213 620.962 76.04C619.341 78.1733 617.677 79.9227 615.97 81.288C614.263 82.6533 612.599 83.336 610.978 83.336C609.869 83.336 609.314 83.0373 609.314 82.44C609.314 81.8427 610.039 81.288 611.49 80.776C613.538 80.008 615.629 78.3867 617.762 75.912C619.895 73.4373 621.815 70.8773 623.522 68.232C624.375 66.952 624.93 65.8 625.186 64.776C625.442 63.6667 625.57 62.8133 625.57 62.216C625.57 62.216 625.186 61.7893 624.418 60.936C623.735 59.9973 623.394 59.1013 623.394 58.248C623.394 56.3707 623.991 54.664 625.186 53.128C626.466 51.592 627.789 51.0373 629.154 51.464C630.093 51.72 630.69 52.1467 630.946 52.744C631.287 53.3413 631.458 53.9813 631.458 54.664C631.458 55.432 631.33 56.2427 631.074 57.096C630.818 57.864 630.562 58.5467 630.306 59.144C630.562 59.4853 631.117 59.656 631.97 59.656C633.25 59.656 634.658 59.4 636.194 58.888C637.303 57.2667 638.37 55.9867 639.394 55.048C640.418 54.1093 641.357 53.7253 642.21 53.896C642.807 53.9813 643.362 54.1947 643.874 54.536C644.386 54.8773 644.642 55.5173 644.642 56.456C644.642 57.224 644.258 58.376 643.49 59.912C642.21 62.216 641.015 64.7333 639.906 67.464C638.797 70.1093 637.943 72.5413 637.346 74.76C636.749 76.8933 636.493 78.3867 636.578 79.24C636.749 80.3493 637.047 81.0747 637.474 81.416C637.986 81.7573 638.541 81.928 639.138 81.928C639.565 81.928 639.991 81.8853 640.418 81.8C640.93 81.6293 641.399 81.5013 641.826 81.416C643.106 80.9893 644.173 80.52 645.026 80.008C645.879 79.496 646.775 78.856 647.714 78.088ZM628.642 56.456C628.642 55.688 628.386 55.1333 627.874 54.792C627.789 54.7067 627.661 54.664 627.49 54.664C627.063 54.664 626.679 54.9627 626.338 55.56C625.997 56.072 625.826 56.584 625.826 57.096C625.826 57.5227 625.869 58.0347 625.954 58.632C626.125 59.144 626.423 59.272 626.85 59.016C627.277 58.76 627.661 58.4187 628.002 57.992C628.429 57.5653 628.642 57.0533 628.642 56.456ZM696.502 76.552C694.369 79.2827 692.363 81.2027 690.486 82.312C688.609 83.4213 686.817 84.104 685.11 84.36C683.403 84.5307 681.611 84.616 679.734 84.616C676.833 84.616 674.571 83.6773 672.95 81.8C671.414 79.8373 670.561 77.576 670.39 75.016C670.305 73.3093 670.39 71.2613 670.646 68.872C670.987 66.4827 671.841 63.88 673.206 61.064C674.486 58.4187 675.851 56.4987 677.302 55.304C678.753 54.024 680.161 53.128 681.526 52.616C682.891 52.104 684.001 51.6773 684.854 51.336C685.537 51.08 686.262 50.952 687.03 50.952C688.737 50.952 690.102 51.3787 691.126 52.232C691.553 52.5733 691.809 53.0427 691.894 53.64C692.065 54.152 692.15 54.7067 692.15 55.304C692.15 55.6453 692.107 56.0293 692.022 56.456C692.022 56.7973 691.979 57.1387 691.894 57.48C691.723 58.5893 691.211 60.04 690.358 61.832C689.59 63.5387 688.865 65.2027 688.182 66.824C687.67 67.336 687.115 67.592 686.518 67.592C685.835 67.592 685.665 67.208 686.006 66.44C686.433 64.7333 686.987 63.3253 687.67 62.216C688.438 61.0213 688.822 59.9973 688.822 59.144C688.907 58.888 688.95 58.632 688.95 58.376C688.95 58.12 688.95 57.9067 688.95 57.736C688.95 56.5413 688.438 55.7307 687.414 55.304C686.902 55.1333 686.518 55.048 686.262 55.048C685.153 55.048 683.873 55.56 682.422 56.584C680.971 57.608 679.777 59.016 678.838 60.808C677.729 62.7707 676.918 64.9893 676.406 67.464C675.979 69.9387 675.766 72.0293 675.766 73.736C675.766 75.784 676.491 77.4907 677.942 78.856C679.478 80.136 681.313 80.6907 683.446 80.52C685.835 80.264 688.139 79.624 690.358 78.6C692.662 77.576 694.625 75.9973 696.246 73.864C696.502 73.6933 696.758 73.608 697.014 73.608C697.27 73.608 697.398 73.7787 697.398 74.12C697.398 74.4613 697.27 74.9307 697.014 75.528C696.843 76.04 696.673 76.3813 696.502 76.552ZM737.663 75.016C737.919 74.76 738.26 74.632 738.687 74.632C739.284 74.632 739.583 74.9307 739.583 75.528C739.583 75.8693 739.37 76.3813 738.943 77.064C738.602 77.7467 737.834 78.5573 736.639 79.496C735.444 80.52 734.207 81.4587 732.927 82.312C731.732 83.1653 730.068 83.592 727.935 83.592C725.631 83.592 723.796 83.1653 722.431 82.312C721.151 81.4587 720.212 80.52 719.615 79.496C719.103 78.3867 718.762 77.5333 718.591 76.936C717.567 77.704 716.5 78.728 715.391 80.008C714.367 81.2027 712.874 82.312 710.911 83.336C708.948 84.2747 706.132 84.744 702.463 84.744C700.415 84.744 698.538 84.2747 696.831 83.336C695.21 82.312 694.399 80.136 694.399 76.808C694.399 75.8693 694.442 74.888 694.527 73.864C694.698 72.7547 694.954 71.56 695.295 70.28C696.319 66.2693 697.514 63.112 698.879 60.808C700.244 58.504 702.292 56.7973 705.023 55.688C706.73 55.0053 708.82 54.3653 711.295 53.768C713.77 53.1707 715.946 52.6587 717.823 52.232C718.42 52.0613 718.932 51.5067 719.359 50.568C719.871 49.544 720.426 48.6053 721.023 47.752C721.364 47.3253 721.748 46.984 722.175 46.728C722.602 46.3867 723.071 46.216 723.583 46.216C724.01 46.216 724.564 46.4293 725.247 46.856C725.844 47.2827 726.228 48.0933 726.399 49.288C726.655 50.4827 726.783 51.592 726.783 52.616C726.698 53.128 726.484 53.768 726.143 54.536C725.887 55.2187 725.674 55.9867 725.503 56.84C725.332 57.9493 724.906 59.528 724.223 61.576C723.54 63.624 723.199 65.3307 723.199 66.696C723.199 67.8907 723.114 69.384 722.943 71.176C722.772 72.8827 722.772 74.0773 722.943 74.76C723.882 76.808 725.204 78.1733 726.911 78.856C728.618 79.4533 730.111 79.624 731.391 79.368C732.33 79.1973 733.396 78.6427 734.591 77.704C735.786 76.7653 736.81 75.8693 737.663 75.016ZM716.927 60.424C716.756 59.7413 716.33 59.016 715.647 58.248C715.05 57.48 714.282 57.096 713.343 57.096C713.172 57.096 712.831 57.1813 712.319 57.352C710.868 57.864 709.332 58.8453 707.711 60.296C706.09 61.6613 704.682 63.4533 703.487 65.672C702.292 67.8907 701.61 70.4933 701.439 73.48C701.439 74.3333 701.695 75.4427 702.207 76.808C702.804 78.1733 703.572 79.3253 704.511 80.264C705.45 81.2027 706.388 81.4587 707.327 81.032C709.375 80.1787 711.082 78.984 712.447 77.448C713.898 75.8267 715.092 73.864 716.031 71.56C716.458 70.4507 716.756 69.2987 716.927 68.104C717.183 66.824 717.311 65.6293 717.311 64.52C717.311 63.496 717.268 62.6427 717.183 61.96C717.098 61.192 717.012 60.68 716.927 60.424ZM766.714 78.088C767.055 77.7467 767.525 77.576 768.122 77.576C768.719 77.576 769.018 77.832 769.018 78.344C769.018 78.9413 768.335 79.88 766.97 81.16C765.605 82.44 764.111 83.464 762.49 84.232C760.869 85 759.333 85.5547 757.882 85.896C757.199 85.9813 756.261 85.7253 755.066 85.128C753.957 84.616 753.274 84.0613 753.018 83.464C752.677 82.696 752.421 81.8427 752.25 80.904C752.079 79.88 751.994 78.8133 751.994 77.704C751.994 75.0587 752.293 72.328 752.89 69.512C753.487 66.696 754.042 64.264 754.554 62.216C753.53 62.5573 752.378 62.728 751.098 62.728C749.903 62.728 748.837 62.8133 747.898 62.984C747.301 63.8373 746.789 64.8187 746.362 65.928C745.935 66.952 745.338 68.104 744.57 69.384C743.205 71.6027 741.669 73.8213 739.962 76.04C738.341 78.1733 736.677 79.9227 734.97 81.288C733.263 82.6533 731.599 83.336 729.978 83.336C728.869 83.336 728.314 83.0373 728.314 82.44C728.314 81.8427 729.039 81.288 730.49 80.776C732.538 80.008 734.629 78.3867 736.762 75.912C738.895 73.4373 740.815 70.8773 742.522 68.232C743.375 66.952 743.93 65.8 744.186 64.776C744.442 63.6667 744.57 62.8133 744.57 62.216C744.57 62.216 744.186 61.7893 743.418 60.936C742.735 59.9973 742.394 59.1013 742.394 58.248C742.394 56.3707 742.991 54.664 744.186 53.128C745.466 51.592 746.789 51.0373 748.154 51.464C749.093 51.72 749.69 52.1467 749.946 52.744C750.287 53.3413 750.458 53.9813 750.458 54.664C750.458 55.432 750.33 56.2427 750.074 57.096C749.818 57.864 749.562 58.5467 749.306 59.144C749.562 59.4853 750.117 59.656 750.97 59.656C752.25 59.656 753.658 59.4 755.194 58.888C756.303 57.2667 757.37 55.9867 758.394 55.048C759.418 54.1093 760.357 53.7253 761.21 53.896C761.807 53.9813 762.362 54.1947 762.874 54.536C763.386 54.8773 763.642 55.5173 763.642 56.456C763.642 57.224 763.258 58.376 762.49 59.912C761.21 62.216 760.015 64.7333 758.906 67.464C757.797 70.1093 756.943 72.5413 756.346 74.76C755.749 76.8933 755.493 78.3867 755.578 79.24C755.749 80.3493 756.047 81.0747 756.474 81.416C756.986 81.7573 757.541 81.928 758.138 81.928C758.565 81.928 758.991 81.8853 759.418 81.8C759.93 81.6293 760.399 81.5013 760.826 81.416C762.106 80.9893 763.173 80.52 764.026 80.008C764.879 79.496 765.775 78.856 766.714 78.088ZM747.642 56.456C747.642 55.688 747.386 55.1333 746.874 54.792C746.789 54.7067 746.661 54.664 746.49 54.664C746.063 54.664 745.679 54.9627 745.338 55.56C744.997 56.072 744.826 56.584 744.826 57.096C744.826 57.5227 744.869 58.0347 744.954 58.632C745.125 59.144 745.423 59.272 745.85 59.016C746.277 58.76 746.661 58.4187 747.002 57.992C747.429 57.5653 747.642 57.0533 747.642 56.456ZM804.471 34.44C804.471 34.44 804.471 34.7387 804.471 35.336C804.556 35.9333 804.386 36.6587 803.959 37.512C803.532 38.3653 802.594 39.2187 801.143 40.072C800.631 40.4133 799.692 40.6693 798.327 40.84C796.962 41.0107 795.426 41.1387 793.719 41.224C792.78 43.6987 791.756 46.216 790.647 48.776C789.538 51.2507 788.386 53.5973 787.191 55.816C785.399 59.2293 783.863 61.7467 782.583 63.368C781.388 64.9893 780.45 66.2267 779.767 67.08C779.084 67.848 778.615 68.7867 778.359 69.896C778.274 70.408 778.188 70.8773 778.103 71.304C778.103 71.7307 778.103 72.1573 778.103 72.584C778.103 75.7413 778.999 78.0453 780.791 79.496C782.668 80.9467 784.46 81.672 786.167 81.672C788.13 81.672 790.092 80.9893 792.055 79.624C794.018 78.1733 795.639 76.8507 796.919 75.656C797.943 74.8027 798.711 74.376 799.223 74.376C799.564 74.376 799.735 74.5467 799.735 74.888C799.735 75.4853 799.266 76.424 798.327 77.704C797.815 78.3867 796.962 79.3253 795.767 80.52C794.572 81.7147 793.079 82.824 791.287 83.848C789.495 84.7867 787.49 85.256 785.271 85.256C780.834 85.256 777.847 84.232 776.311 82.184C774.86 80.136 774.135 76.7227 774.135 71.944C774.135 68.1893 774.519 63.5813 775.287 58.12C776.055 52.5733 777.25 46.728 778.871 40.584C778.444 40.584 778.018 40.584 777.591 40.584C777.164 40.4987 776.78 40.456 776.439 40.456C775.33 40.456 774.476 40.6267 773.879 40.968C773.367 41.224 772.94 41.352 772.599 41.352C771.746 41.352 771.319 40.712 771.319 39.432C771.319 37.9813 771.703 36.872 772.471 36.104C773.068 35.5067 774.092 35.208 775.543 35.208C776.652 35.208 778.146 35.4213 780.023 35.848C780.194 35.336 780.364 34.8667 780.535 34.44C780.706 34.0133 780.834 33.5867 780.919 33.16C781.09 32.3067 781.26 31.624 781.431 31.112C781.602 30.6 781.815 29.96 782.071 29.192C783.522 24.84 785.1 20.6587 786.807 16.648C788.514 12.6373 790.988 9.05333 794.231 5.896C794.828 4.95733 795.639 4.488 796.663 4.488C797.431 4.488 798.114 4.82933 798.711 5.51199C799.308 6.10933 799.564 6.83466 799.479 7.688C799.479 7.688 799.436 8.75466 799.351 10.888C799.266 13.0213 799.095 15.624 798.839 18.696C798.583 21.6827 798.199 24.5413 797.687 27.272C797.431 28.8933 797.047 30.6427 796.535 32.52C796.108 34.312 795.554 36.1467 794.871 38.024C795.383 38.1093 795.852 38.1947 796.279 38.28C796.791 38.28 797.26 38.28 797.687 38.28C798.967 38.28 799.948 38.1093 800.631 37.768C801.399 37.3413 801.826 36.9147 801.911 36.488C802.082 36.0613 802.167 35.848 802.167 35.848C802.167 34.1413 802.594 33.288 803.447 33.288C803.874 33.288 804.215 33.672 804.471 34.44ZM795.383 13.064C794.871 12.9787 794.06 13.96 792.951 16.008C791.842 18.056 790.647 20.744 789.367 24.072C788.087 27.4 786.85 30.9413 785.655 34.696C785.57 35.0373 785.484 35.3787 785.399 35.72C785.314 35.976 785.228 36.2747 785.143 36.616C785.74 36.7867 786.338 36.9147 786.935 37C787.532 37.0853 788.172 37.2133 788.855 37.384C789.196 37.4693 789.58 37.512 790.007 37.512C790.434 37.512 790.818 37.5973 791.159 37.768C791.5 36.8293 791.799 36.0187 792.055 35.336C792.311 34.568 792.567 33.8853 792.823 33.288C793.762 30.1307 794.53 26.888 795.127 23.56C795.724 20.232 796.023 17.6293 796.023 15.752C796.023 14.216 795.81 13.32 795.383 13.064ZM789.751 41.224H787.447C786.85 41.224 786.252 41.224 785.655 41.224C785.143 41.224 784.631 41.1813 784.119 41.096C783.351 44.3387 782.583 47.8373 781.815 51.592C781.132 55.2613 780.578 58.5467 780.151 61.448C781.175 60.2533 782.242 58.5467 783.351 56.328C784.46 54.1093 785.57 51.6773 786.679 49.032C787.788 46.3013 788.812 43.6987 789.751 41.224Z" fill="white"/>
</svg>
