<svg width="65" height="68" viewBox="0 0 65 68" fill="none" xmlns="http://www.w3.org/2000/svg">
<g filter="url(#filter0_d_2_17)">
<path d="M32.62 15.81C30.6657 15.81 28.7552 16.3895 27.1303 17.4753C25.5053 18.5611 24.2388 20.1043 23.4909 21.9099C22.743 23.7154 22.5473 25.7022 22.9286 27.619C23.3099 29.5358 24.251 31.2964 25.6329 32.6784C27.0148 34.0603 28.7755 35.0014 30.6923 35.3826C32.609 35.7639 34.5958 35.5682 36.4014 34.8203C38.207 34.0724 39.7502 32.8059 40.836 31.181C41.9217 29.556 42.5013 27.6456 42.5013 25.6913C42.5013 23.0706 41.4602 20.5572 39.6071 18.7042C37.754 16.8511 35.2407 15.81 32.62 15.81ZM32.62 31.62C31.4474 31.62 30.3011 31.2723 29.3262 30.6208C28.3512 29.9694 27.5913 29.0434 27.1425 27.9601C26.6938 26.8767 26.5764 25.6847 26.8052 24.5346C27.0339 23.3845 27.5986 22.3281 28.4277 21.499C29.2569 20.6698 30.3133 20.1052 31.4634 19.8764C32.6134 19.6477 33.8055 19.7651 34.8888 20.2138C35.9722 20.6625 36.8981 21.4224 37.5496 22.3974C38.201 23.3724 38.5488 24.5187 38.5488 25.6913C38.547 27.2631 37.9218 28.7701 36.8103 29.8815C35.6988 30.993 34.1919 31.6182 32.62 31.62Z" fill="#616161"/>
<path d="M32.62 3.9525C27.1479 3.9525 21.7987 5.57517 17.2488 8.61531C12.6989 11.6555 9.15265 15.9765 7.05856 21.0321C4.96448 26.0877 4.41657 31.6507 5.48412 37.0177C6.55168 42.3846 9.18675 47.3145 13.0561 51.1839C16.9255 55.0532 21.8554 57.6883 27.2223 58.7559C32.5893 59.8234 38.1523 59.2755 43.2079 57.1814C48.2635 55.0873 52.5845 51.5411 55.6247 46.9912C58.6648 42.4413 60.2875 37.0921 60.2875 31.62C60.2792 24.2847 57.3616 17.2521 52.1747 12.0653C46.9879 6.87838 39.9553 3.96076 32.62 3.9525ZM20.7625 52.1266V49.4062C20.7642 47.8344 21.3894 46.3274 22.5009 45.2159C23.6124 44.1044 25.1194 43.4792 26.6913 43.4775H38.5487C40.1206 43.4792 41.6276 44.1044 42.7391 45.2159C43.8506 46.3274 44.4758 47.8344 44.4775 49.4062V52.1266C40.8791 54.2277 36.787 55.335 32.62 55.335C28.453 55.335 24.3609 54.2277 20.7625 52.1266ZM48.4152 49.2596C48.3759 46.6673 47.3196 44.1941 45.4741 42.3732C43.6285 40.5523 41.1414 39.5294 38.5487 39.525H26.6913C24.0986 39.5294 21.6115 40.5523 19.7659 42.3732C17.9204 44.1941 16.8641 46.6673 16.8248 49.2596C13.241 46.0596 10.7137 41.8464 9.57759 37.1781C8.44145 32.5098 8.75006 27.6065 10.4626 23.1175C12.1751 18.6285 15.2107 14.7655 19.1674 12.04C23.1242 9.31459 27.8154 7.85525 32.62 7.85525C37.4246 7.85525 42.1158 9.31459 46.0726 12.04C50.0293 14.7655 53.0649 18.6285 54.7774 23.1175C56.4899 27.6065 56.7986 32.5098 55.6624 37.1781C54.5263 41.8464 51.999 46.0596 48.4152 49.2596Z" fill="#616161"/>
</g>
<defs>
<filter id="filter0_d_2_17" x="0.952488" y="3.9525" width="63.335" height="63.335" filterUnits="userSpaceOnUse" color-interpolation-filters="sRGB">
<feFlood flood-opacity="0" result="BackgroundImageFix"/>
<feColorMatrix in="SourceAlpha" type="matrix" values="0 0 0 0 0 0 0 0 0 0 0 0 0 0 0 0 0 0 127 0" result="hardAlpha"/>
<feOffset dy="4"/>
<feGaussianBlur stdDeviation="2"/>
<feComposite in2="hardAlpha" operator="out"/>
<feColorMatrix type="matrix" values="0 0 0 0 0 0 0 0 0 0 0 0 0 0 0 0 0 0 0.25 0"/>
<feBlend mode="normal" in2="BackgroundImageFix" result="effect1_dropShadow_2_17"/>
<feBlend mode="normal" in="SourceGraphic" in2="effect1_dropShadow_2_17" result="shape"/>
</filter>
</defs>
</svg>
